<mxfile host="app.diagrams.net" modified="2022-11-11T21:07:44.193Z" agent="5.0 (Macintosh; Intel Mac OS X 10_15_7) AppleWebKit/537.36 (KHTML, like Gecko) Chrome/109.0.0.0 Safari/537.36" etag="jlnVwRkirLII_uF01ycr" version="20.5.3" type="github">
  <diagram name="Page-1" id="55a83fd1-7818-8e21-69c5-c3457e3827bb">
    <mxGraphModel dx="1678" dy="867" grid="1" gridSize="10" guides="1" tooltips="1" connect="1" arrows="1" fold="1" page="1" pageScale="1" pageWidth="1100" pageHeight="850" background="none" math="0" shadow="0">
      <root>
        <mxCell id="0" />
        <mxCell id="1" parent="0" />
        <mxCell id="vxvJLaRAeoQ-sSdQ6FoQ-14" value="" style="shape=ext;double=1;rounded=1;whiteSpace=wrap;html=1;fillColor=none;strokeColor=#82b366;strokeWidth=1;" vertex="1" parent="1">
          <mxGeometry x="425" y="32" width="269" height="98" as="geometry" />
        </mxCell>
        <mxCell id="vxvJLaRAeoQ-sSdQ6FoQ-2" value="" style="shape=image;verticalLabelPosition=bottom;labelBackgroundColor=default;verticalAlign=top;aspect=fixed;imageAspect=0;image=data:image/png,iVBORw0KGgoAAAANSUhEUgAAAEAAAABACAYAAACqaXHeAAAABHNCSVQICAgIfAhkiAAAAAlwSFlzAAAB2AAAAdgB+lymcgAAABl0RVh0U29mdHdhcmUAd3d3Lmlua3NjYXBlLm9yZ5vuPBoAAAroSURBVHic7Zt7cNTVFcc/5/52AyEgioLIOFq1vnAaaYPZBGqlVZNsMBSRzQYQtbZqK62d1lrbsdXQqWjbaadqfT9axZqEVQsBsolaTKuSbJCqKGprkdb6Cq1QSkhIdn+/0z92NyyQfWQ3CTr6nfnN3nt/55x77vndx7n3noVP8PGGHGwFckVh2eKCUW77yIyIw064e7zduTkQ6IsXfaQNcMbshccbx34BOGQQbD0oj1pO3vfWP7F8mxku5UYClm1PY3CNB8hHWGxbfc8Vn33+4a7hUGykoEYF7e/EPwF5JzWDuhAtB5kDfFpGua//UA+B4vKaM42l31LldGCgj1UAHAlgxClsawq8nJFcb02roGeBvp22BxQVXe62Ju68VIQakM+AHp6GpQ/oVJU2xKnrCK5YBWgmiiXCU+H/AaLLVId+njLi/EVVzlJkYkrhxZX+k0RZCZyabWUCGwwsWB9s2JIpT3FFdbmIBKPs9AAtwLYDKfU4kHMh8x5QfPb5h0te3vPAp4BNSQ1QVOU7xhUxIWByrCVbgaAo74JEkvEpTgHIScC5wIRY8XZV57yO5kBbOgUBSrz+pxTOBrpsQ+nzaxteGYjOU1l9ASqPxrJPiLAzlVxHGS3IjHgvFrgy6RBwRcy9xBqvqrVjerbd2NramrTh+2PWLN/YPfnmxwrXABNETEup11fVFgz8KR2vQnG0XuqTNR5AHBNW6R9dZZpmoElcevRneXvJqXcPaICScv/nFMpi5Hd2NK9Ymk7p/dHaGugCri2uqH5VRO4HxjmYJk/lgrmhpron07CPAzAm9axu5XU/bYdH/0Exx2Sumf4D0bpQcMXjNKMDGkCNzI5ZynFH5KexYimpqL5ORc5ESO4/KF0q2tJRPPUeamudjuYVD3oq/L0Iy4ExqNNYXF4zv6Olfm3mSg+M5xobdwHzcpEx4Bzg8fofAL4i8FZ7sOFYAE9FdSUig1BaGyewqzoYDPYClFT456lQB+QBfQhrUEqAo5LpsR96QF4V9MHwtvF3bdx4TzhzXZIj2ZccA6CwO14gRqb0vxWeQXgqybM1RjTnAx23stTnywdob254XB2ZB9hAHso8YAqZu+P5oEUKt7on7QzOmnXJ6EG2dUBk5wmqa2Eo+Pu3B3o1c86ccZFI/lqUM0WkwuliTWHZ4jkT+vZIj8UiFCtGaiOsUtU3MqnSIAUKlcDxCmf35PfcBHwnK/0TMOSu8HONjbsKyxZ7x1h9q6JLmXwp3wo/2TPGHIbqKVEqfdsY429bW79+MLKLqqqudUXGrAM8wNdnzplzfWweyBrDshfY9MTy3aU+X5V2mccAL2hpgi/YEnFZF25cXfefwcrduHp1d0mF/+cqPAaMDveOmQY8k45vRtniSbaJTMaKuONljmIXdBe8vo8BZnj9J0REPKieEC3RQz3emssB1NHPx0erYC/yeGt2pKrU2a35oK6EIW6DLA15TrmR2lon00bvD7Wcf+JEpy5jnENT0ZZU+Oc5wo9s+j4bVWrvlGeAPfk9G1wQdQ9NnvteG86XfbwJOQr07mgyQQn05vSa7sPUqZiFHcG6dQTTcuaM03y+vLFd5jaFy1PNsApnuArLFheI1bdOoXAYdHlflUdst7kpmy6fDWaULZ5k7+57FDgzVrRD4Q5UN8ddeGPwqeIDcOVbfVezt/ErHWWZS50tlss96B1cIly7w+GYNzhsUKXc4605KqHAZUvf91GOjZW0Rxz3vI0tD7+XyFdSWXNa3CV2ISyIpTfl93T6BuPvH3SILNlnpy2JSXnwMHZeEWyJOmLJ4EI5PprUJz5SjU8BVe4LNddflvQ9Ti8ICr0uoq4pCHlnzF54fJyoYHfeu62tv9sz/OpmDxEus8VaB6B22G2JeT32YmtKRnUvh0iRgT/uXQZVrjJqXxXP9uTv+aD0PN/pbWsCqc/ZDiZUOzc0PfImxGf+zNhiXux8SL4XAHSCHTZH5Kzkhxz9PUBgjSKr+/PK30It9S8dHLWGH2dU+iYfoV079g4BkY2hpvp7DqJOI4bi8prZorp6u4zf8JG+GMkWYjEBEFQn9PcAVfWVVPqn9ucd+esx4+zaQCBgD7UCRVVVY9zhgkm2ZQ74AJbtODLO7mwLBHqGut44Qk31y0tn12zpi7i2Jm6GpqrSbwBEeWsXLcCzQ1Wxx+ubqiq/lIicq6KWcQ60rQpol4kUe/1BsayrQ2seyei8YLCIb8UTv8AO4M29jzb2OKNfGKoKPRULCsG0iUgF9B+KJINLoArbbp9e4Tt5qHQYsKJ4QkRubW+qrx22msS5g+hFpqPKA8DzInLAfkNVxYiUKnoRMMEScytQPpSqeLyLjkYit+AkOkLDiJnn1kyJoDMBRPSWUHDFd9Ow3O3x+nuBy4Fzps2de+iLK1f+d38iRRo9Xn80k+AEGXR8KuGKfZEo81SYPSKrQJ/bnpSQbc+ER1Tit0gmr2/UpJTE+0HhmpLKmlqSHLgaibr/AqNGpAe4bN5yDDZggcwHAqS6MK2tNdrx6nw0umGxre4BD2CBxxT9e39OxS3CZcA4Vb3B4/WfbMY6l6ZaUUbEAG0tge0er38lcIEqPo/Xf5wqf0b0gLN9QUYRem0WyDQAg9R3rF7dPZBcQR8MBVesTiybPtv/W+OwUuAEoMbZbaZ5KmuW2aIvCFY3gGrksHjnGLkACbdZQtgpBE4EposwPYMrgc3i2Onmi33w/NqGV0rLfcWOZRpQzkE5BfQhSyF6JQGJ9Y6YJxhqrOvsHdVbLOgygVeILrsDPduBl0VkqcvdU9rWEtg+2LraWgLb87s7vSg/jMkbGMLWEQ2Ric3k18WeYUXscOfm03y+XxXsokiMTFFH+j+4iKgrzHoX0QVkLEpmoWYHGRqxJouJX3GbtJcisZC4pHEJBuRFAEXnF5VfeFQywg8FamuNGF0Sy0VE7U25ipQSb41f0fpoVt8TMfeo8m6ugocaIjpWVeaDlsaKHgoFGy7OWS6Ap9J/F8oVuQobQbzcO6r3CwN5h4OFBfDOG5vXHH3iaf+KxfZMzFm9YYLCvwW90+Xec/GGVav+NxQyD1iIPd5FhzhG054FGse+EFgaVUx/hsgDKlbaY3UjWOI4i1T1hpgGNzti3ZtWUw13b2gKvJ+WbpDIOgbP4/X/Gvg20BXynDp+sBeeHm91J8gkEe5vb2r4WrZ65IrsHSEhdtWs3dnd9koXgCrudJTDiY/lmWAihsATlIker3/Q7iqQcs8+UsjeAI7sRPqDAA7LWo5ozktZLsjaAG7L/CJiR7odYawglxCN2t6t6G8ARKQa5TjgHUUfBhDES/wqXvV2RLZFLOuOXBuRC3KOxJ5RufBYW+0tgCXIXe3B+m8AeLz+FqLhq+s7mhtmApR4q6sUaQRAWRJqbjiojYchmAQdta8k5lCpyp2paNs9U9cSPXUG4Zt8CP6yk5MBSn2+fEW+Gsu2hprrUm9OamsdVe6K5U4t9i74Yi71DwVyMoDTJQv2/oFCbs+EJ8+y7gO6AUScJWnIhx05DgFzZSzxbmTbIasy4Xh27SM7JBozDMqXSypqPpWbDrkhawOUeKtnghYBiOqdgwledmxuiyUtxEkayjISyNoAionvxfs0L4PNTAI6WhpeAnk2KkcuyVaHoUD2BlBei6VuDTXWdR7wHon+M0R4eiB+cZylQFiIy/kIwuNdlPJPi9Pmzk0ZylpYtriA2tqP/X7kExxM/B/fBCWumwE3FgAAAABJRU5ErkJggg==;" vertex="1" parent="1">
          <mxGeometry x="140" y="330" width="64" height="64" as="geometry" />
        </mxCell>
        <mxCell id="vxvJLaRAeoQ-sSdQ6FoQ-3" value="" style="shape=image;verticalLabelPosition=bottom;labelBackgroundColor=default;verticalAlign=top;aspect=fixed;imageAspect=0;image=data:image/png,iVBORw0KGgoAAAANSUhEUgAAAEAAAABACAYAAACqaXHeAAAABHNCSVQICAgIfAhkiAAAAAlwSFlzAAAB2AAAAdgB+lymcgAAABl0RVh0U29mdHdhcmUAd3d3Lmlua3NjYXBlLm9yZ5vuPBoAAApiSURBVHic7Zt7cFTVHcc/v3M3T5GID1QeahV8EHyUmCzRoouvkASsaJcQsIrWwVeto9WOnbZOHGs79TGto45VW1FQYdlWrUqWgI/4gmww9UUQBZRREFFRhGBIsvf8+sfuJmtIII+7pDP6/evu75zzu9/zved1f/e3QprhL505WGxbkYqcjHAiMBIYDuQB2UAOsB3YAmwWWGeRRixvZ2R9+8rrzzyzPZ38JB1OiycHh1vXqUS1DGEC4OujqxjICuBJcBZEI49v8JAm4LEA/rLKs7H2aoRyuui0QovAemCTCF9YpVVghwhDVHU/kOHAKCCzC/cW9AWQO6OR0BKvOHsigL+s8mxUbwEt7lT0DehSgSXWSn1uy+bG2tra2O58BQIBX1P2QUf5jJlglYBAKbB/p2pvqepN9YsX1vSXe78E8JfOHAGxe4DzUswuootBHoptzqtuaHiwrT/3KCiYneEcuO0cMXYWyFTAaS8UXeSoXLssElrXV/99FsBfVnEJyt3AvglTDOEx49rblteE1/bV7+5QWD7jSLHuDQKXARkJc5MI19VVh/7RF5+9FqBgypRcn5t7H8qsFHOtcc2Vy5fMX72n9oFAwNeac/DhrrH7SUyGAFjHbHVcd2tWyxfr9zRFAIrPqTzWOvYuoCylI/fWRULX9LY/vRKg6MypB0hWVjWqRQnTDtBfRSML5wDaVZuCs4J5GRlmslUCIpxKfJHL6Kou0IawTuB1tVqb4fgWvbboia+74zN+0vRZKno3MBhojEZCY3vTH+iFAPGtzSwFjkuYGsUQrFsUeq+r+v7yaRNR+SVKGfH9vtdQaBFlsajeW1ez8Pmu6pxSNuNwV91LDfK0xW0B5wLr8siKJQs+6ck9eiyAv6xiTvuwV15CfOdFI49v26Ve+bSJYuUvCoWd+yPQCNIAugb0c6uyFcAY8qzKUEFHAQXAWMB0av9fxNwUrZ6/tFuOkypeRJgIzI1GQhf3pF89PqColddE9OdAeH/ZNisSibSklk8oDR7UirkHS0XKXLDAUlWdT1vbc9EXntrSk3v9pHzGkDY3Vo5IJVBCfOUfh9ol/rKKJy326hXV4c86txPR5YqcLlDX0371ag0IBAK+rhapotLKMwQ7DxiWMLkiPBKz9o43Foff7809OqO4JDjKOuYGlF/Q8cA2q+rFXZ0DuuPYHfp9EBpfVnGZKn8nsT+rsgzlqvqa0Nv99Z2KwpLKfDF6n6CnJ0xW4dr6SOje/vjtlwDjyyquV+XOhB9XRP44ch/31nA47HbXxj95xmiJucdjOEKVvLhVtyGsd62u3O2IqaoyRdHVNwl6C4nRIPD7ukjotr72oZ8nwYpNwCFAM0JltDr0ny7rlQcLcOUSRKbSMU26w2ZBnkJ4pK56QbSrCuNLK0oVwsA+wLZoJJTX1z44e67SPYYfnb9DIFfg0mhk4S6r8/iSinHDj85/DDV/RqSIjlPj7jAIOBm4bMTosWccdtSYVRvWrdqYWmHD2sa1w0aNXWqEIxEe2LimsUuheoK0vA7nB4OZg5rMn4DrSNnOFNYJPKcqLxvDp6rORgBjW4e5RoahMkGEycDRKe6swn25zTm/qa19ZKfXXD0XoOjMqQdIZtaz330z1KUi5g/dDenOGF9SMU4Nt5Jy1AVpIEPKo8/M3+wlX08FKC0tzfqawW9o/CAD8KlVuWjF4gUv9MVfYdm00xyVeQqHJUxrmt3MH7+zZN4ObxjvetrqF75084Yq5Cd+Rn0xKexr5wFWVC98xbiZhQivJkyjs32tw/vPtAOeTwH/pIrpCiNzd+bc49WczQ8GM/fZ7lyN6Jb6SGiuFz6TSMsi2BMEAsFBLZm+EZphxXGaN6Q7+Nkd9qoABQWzM3xDt10CzAL10zEFVeANFXm0aR/3ocZwuHVvcdprApw8KXiMI+ZJYMweqn5grTl/Rc38xr3Ba68IUFhSmW+MfRUYkjB9DTytKu+KUYtKPnA+6AGJ8m0GCSyPLHgz3dzSLkDBlCm5vljuu8CRCdOclqyW6996+umtqfVOPffcfd223NsVvSJB7OO2NntCw/Phb9LJr19H4Z5g5FHjbhT4GYDC/fWR0OzPVq/eZXf45P33WzesXblo+Kixg0UoBvKMMbGNa1e+lE5+np4DuoAY9PLE9Se5zTnX76mB+0XeTcBaABW9PBgMpvUhpVWAwpLKMSmnuDk9ORc0NDzYhvJPAIGD1m8349LJMa0CGHEPT14L+kZP26mY+o52HOExre8grQKISHLVR1W7DW93hkNH3VQf6UBaBVDVfu8yXvjYHdK9CP7f4wcBBprAQKOvmRu7oqrKFC1fXYq6q+qXhD/yzG8KCqYED8uIyYnZzZ9HehP73x08GwFF0feuEqPPiWOWUVWVlpHli5mXFXlmZ84hv/bKp2dEU/brQ05Yti7HK7+dcASAiv7IK4ff+zXgBwEGmsBA4wcBBprAQMNDAbQ9L2L/1p0CoMbYjlKnx2d6tR3nfyOa9NFuE5Uu85H6Au8EEL5KXu7Mdg4EwNotKeUH9tSVFT2o/VrNlwD+cyuHJm2qfNk/sh3wcARIe8qKOPFP4Or41rTfyNgJPSYlnJa8VpUPAGwsdmhHBXZJj+krPBPAiLQnNljLKQArFj3xIbAKQFVmFZcEO6e87gJ/6czBGk+EBOGjZHjc4JyarCOu7VfazXd4e+VoRK4bhfZp8NOkXdC/JS6HWEfmFhTM7i5HkHj8L/YwyFAAUf7aXqg26XPHELP91a7a9wWeCRAOh11EquO/9NTikmARQHbz53NIZm2plDtDty0tPqfy2M7t/ZNnjP54h1kMXBC3SMP2QfYBAP+kyhNAzoybqemcodYfePc2CFjcuwxmJiCucW4HJtbW1sYKSi4832faXgFGCXq6dbSxaFJFnRF5R0UtKifgusV0hOnXW5ep7Z/IxN5O8mEpd3jJ2dOQ86drVn02YvTY44ExAkeMGH28u3Htylc2rXun6bCjxjyuwnEgxwAiwkjiqTCFxCPHydEYycSWL69ZuAmgaFLFjSJcmSirjkZCt3vJ2fN4W0HJhYf6TNubwMGAgl4WjSx8OFleXBo83YqZhepZIMmEqU0oL1rk0dR8gqKy6TNEdS7ggGyJ+dxxDc+GP/aSb1oCjv7yaROxsoT2KaZ3Ng3S33X+6hsIBHzbtx8tnf9TUFAwOyNj6NYqRX5LMgUPptRFQhGvuaYt4lpUVjFZlBCQmzB9KHBzdnPOv7v7QJIfDGbu2+RMVfRWYDTEE6aNMqNucejJdPBMa8i5uHz6KVb1MZTUAEYTUCMiK1X5VLBqlWFgxojoJOKp70lyHwv2ouWR8Mvp4rhXvg47sZybBbmGjtGwJ+wU0fuzv9Wba2vDTenkt9cSJE4677z9slqzZ6I6DTiJlCedQBPIW4j+y7h23vKa8FdduPEcA5UjJP6y6RcSX+FR5Yr68cc9RFWV3VNDrzFQ8QBVaz9PIfHFQHQ+ce/vN34QYKAJDDQGTAAxTke4zNDtHyzSDU/fBnuDlszmFdktWSsVMjLVLhsoHv8D1IXWiHEx7yIAAAAASUVORK5CYII=;" vertex="1" parent="1">
          <mxGeometry x="140" y="250" width="64" height="64" as="geometry" />
        </mxCell>
        <mxCell id="vxvJLaRAeoQ-sSdQ6FoQ-4" value="" style="shape=image;verticalLabelPosition=bottom;labelBackgroundColor=default;verticalAlign=top;aspect=fixed;imageAspect=0;image=data:image/png,iVBORw0KGgoAAAANSUhEUgAAAEAAAABACAYAAACqaXHeAAAABHNCSVQICAgIfAhkiAAAAAlwSFlzAAAB2AAAAdgB+lymcgAAABl0RVh0U29mdHdhcmUAd3d3Lmlua3NjYXBlLm9yZ5vuPBoAAAaySURBVHic7ZpviFzVFcB/584m2WxCbaqxRk3QmCAxRQsh+zbtB7dg1uwk0rTNZjbGNrbQNhbaT6X+AWEgYC22YEHFP0hNU81ORoS6dMZsBEfamn1bQohC1lD8Ylr/4Adpspslm517+uG93Z3ZzM57M/PmzWL8wTDv3Xveeeeeee/cc89cIQa+uXPnV5dcXPIOsCHkJaenLtlvnXgz+79m2gVgmn0DgEWTi28n/OABbjOL5Y5m2VNKWxw3SVhjVNQ7ETmsaj8UMWtQ3TNfW8KaWH6cWG5SilieH8kfeUgsz1dri4vYHbDQuOIdIGHlnGTqfpQehGtqvovKCtBNvqoTiH4euq1m5DPQY24u8xKggdKB+tJp0+WO/lVhR+3GtA6FwRFnw07SaVtNLnAWcEZG95UM/izCmUgsbBbKrcBqgXu6ht//0TC8VE08xDQoW/0n6axZbm89ns1ORGFns9jS17fUjpkzwGo19BDggOAgqLrKP/pgoQ8ewLfxA6DU9nmpKxHq2tbfbbEPipGy69XqVEL08eP57NutlKuFuhygog8L0jM3xooIFjHA262Uq4V6U+HF/vfnCCcAUDYBK0r6WikXmkYToVNuLrPVzWW2AqcWoFwgV3wmeMU7oNHl8Jqu3v4HARRdswDlAqnPAYr6SfRaRR+/rK/VcjVQ7yvwKjBZoX1ShOwCkAtN4GLI6U29BXQDBTef+U49N4mbWmz+Mgi27M7ptOlyTx8AGHZuezRo2dosWvYEOO5opyKPKPJI18j7m1tlR8scICrtMyeWpa2y48sYEJUip3fvjVDsF0iUtisUITHg5l/+T2m7VYois8eN6quX6IKgTP0R5fuVs5GpLmBXaUvHxeLJC+3mHRG042LxZKP66iU6Byhfq9J79dyGQiE7Bnw7Kn1liI6j4n0H0IwYUHDzGXHzGQEKrdBn0IcFniqKPBQkG11JTKn2Z+YdTjJ1bEY0TKmrAX3Hc9n3gF+GGUukJbEqrEC5a/okbKmrXn210IySWCUaKXXVrK+7u7ttvGPlN25axnvZbPayGaaUL2RJbKL92ieNmpNnx8yTQQP4QiZCKmK87+DxNToNzgajsEErBrmOiU9/Nd7+9T8tm/j08vxiDvU6YLooURaMqlBJbrLCcST6CoXCFPCvEHrqc4DBPlZUsXOmrXBBC2/aUsNvm6WvFupygD/flk05JVWYSpzyA1Ys+jbfvWejSRR/hupzbj57ej45aGVBpImYRPF3qGwXZC1wTzXZuBxQlrmFonoQDLhWlnkqWB4kGpkDBIrqHZQuX2sNbpUoCZbShlcZr5rc1EJkDrDwiQCorsOrNmvF4FYDZcEtnTa4o+sAVOTjiMyOzgFGKKiyF2RVZ3L3z0dyR56tFNzqxRke3Y9wHQBq34pCJ0SYCbZfsAPAJwCi8oeu3tQDhN+FNj/ptHG2pX6B8Hu/5aOJ4pJMw3p9InsCCoXsmNOb2gf8DehQeMbp3f0oyL+RkvfYMg76qvvGkb+UXu9s230fyC4My2YalcW4p9cjMr3VZQox9787dCiw0BGWSGcBN58ZcpJ7kmjxIMgq78OqsmWuAMh3O5P9diQ38Ar4gxc5BFTY2TfzEH0kVvcNHz38ZpQ2Rz4NurnDx27v+eH6dnOpX9A7MZRvVPIzPFGbAl4BQOjze8syPAAsHyNamCguyUT5y0/TlDzAN/RF/1PGbIYnX5ltnTmumuE1g+AgODvl3LKlr69lf2CExbfxFqDU9nkJ8QToMWAPsNqOmTNOMtXYTtEaan31YMe8naIAYhkKkg90gNu54WCnO/o98XLq1ainvEk0kjGWoTDovjFwMEiutt3i3rbZlQ1aNr3Mda3Y/UZIYM3TgEOlIFgz8plYhoa9wUewWzxiApa5sW/CiLUmuHn7vWsVNs7Xr7Cxs6fv5jhtis8B6bRJ2OKAgPcKCa8hukuUHyC85jWxUtoSA6TTsdkV2yvg9KZ6gKP+XZ9wc5nflPfvfgLk116/6XFzhxuaDcIS3xMgTL/bk21tEwcuF1h0ALgEgNXY4kCcMWC6wHnun6+/fn5up5t/+RzIOc8qrfbPcKTE965Znd7QcM2Wu/vWze13dty7HvRqAFX5MC67YnOAVRnEn5etMS84vXtn1gKb7uq7Sov2Bf9UE1IcjMuuWPMAJ9l/CNX7/NP/guS8Q90OXO+3/9nNZ/bFZVOsZfGJqUX7lyYmrwV6gBtAfzpH5OhU24UH4rQp1kTo3aFD42uW2yTCT0D+AZwHziP8XVR+7DobkicGBy/EadP/AdTIRJm6O6BmAAAAAElFTkSuQmCC;" vertex="1" parent="1">
          <mxGeometry x="290" y="280" width="64" height="64" as="geometry" />
        </mxCell>
        <mxCell id="vxvJLaRAeoQ-sSdQ6FoQ-5" value="" style="shape=image;verticalLabelPosition=bottom;labelBackgroundColor=default;verticalAlign=top;aspect=fixed;imageAspect=0;image=data:image/png,iVBORw0KGgoAAAANSUhEUgAAAisAAAE3CAIAAADkMJYCAAA3o0lEQVR42u2dCXRb13nnH/CwgyDBfacWSrJELZZka4lsObbrLK6zOG6apnGnnabtaZt0Tk/PmZlO25lp5qRpJ6eTpEmaOO04zmbH9mRzbMuSZWvf930jxX3fSWzE/uZ77wJPEEhRJHAf8Cj9f+eZhiTyvcsH4P7wffe79xokSRIAAACAnGPELQAAAAADAQAAgIEAAAAAGAgAAAAMBAAAAMBAAAAAYCAAAAAABgIAAAADAQAAADAQAAAAGAgAAACAgQAAAMBAAAAAYCAAAAAABgIAAAADAQAAADAQAAAAGAgAAACAgQAAAMBAAAAAAAwEAAAABgIAAABgIAAAADAQAAAAGAgAAACAgQAAAMBAAAAAAAwEAAAABgIAAABgIAAAADAQAAAAAAMBAACAgQAAAAAYCAAAAAwEAAAAwEAAAABgIAAAADAQAAAAAAMBAACAgQAAAAAYCAAAAAwEAAAAwEAAAABgIAAAAAAGAgAAAAMBAAAAMBAAAAAYCAAAAAwEAAAAwEAAAABgIAAAAAAGAgAAAAMBAAAAMBAAAAAYCAAAAICBAAAAwEAAAADANEy4BQDMgiRJWZ7BYDDgNgIw87sj+zcYAPeebNTH0x/MoiVVNrM8gJYAgIEASLeL+jX1gUraP91JP+rX1Acqaf8EG4H7HGThwP1uHZV4PJ76NfWPXv+UPxD0+gLBcCQcjkSj8XA0KtC/CImzGYxGs0m0mk0Wi9lmtTgdNpfTTl/JLkaF1Afs8XQzwUYABgLgnhVPqnVSTUPEYjH6GgqHB0cmRkYnxz1+jzdAh2+K/i6SWaZANBqsFovdbikssJcUFZQUu0rdrvJSt5lkJYrG20kTEmwE7geQhQP3hXhSAx3VN/SV7NI7ONrbPzI4OjE+4ff4/JKkbb9PrilyOUrdBZXlxbVVpdUVJSaTLKRUJ7EgCYERgIEAWPDiSQ10otFoJBLp7htu7x7sHxofGfdGY/E8NtVsNlaWFtVUli6uq6ipLGPhkSokqAjAQAAsSPekWofw+QMtHX0knt7BsXA4qsPG26zm+uqypfVVy5fU2GzWtNhoegkDADAQAHpxT2rQo4onMBW8frO7uaOvb2CMhn4WxO9iFA11VaUPLK1d2VifpqLpw0UAwEAA6CLoiSmwVNvNjt4L1zp7BkZisYX6Iqec3OLa8tUrGpYuqjZThk4hrXIBrwEAAwGQN/ekjfF4vP7zV1uv3eylEup75pelarqm5fXrmxpdBQ6motSQSEBqDsBAAOTRPeFweGB47NT55taugYUb9MyOUTQ2NlRtWb+iqqJE9RCBeAjAQADkSD+p7qGgh9zT0TNw8nxLz8DY/fB6psCnvqZ084MrFtVVWiwWeAjAQADkyD0EG+xh7unsGTxy+lr/8MR9eEOqyou2b1qteogNEcFDAAYCgLN76Gta3NM3OHL41NWuvtH7/OY01JQ+tnl1dWWZGg+xUgUBg0MABgKAS+iTOt4zPuHZf+xSS2c/XrwMCnyWLal6fMvaYndhqocQDAEYCICs3MPSbqzOLRgMnjx/4/Sl1pAup5TmF7NZfHht45b1K+12G/MQgiEAAwGQVejD3BMKhdq7+vcevTzu8eHmzIK70PnktrWNi2qsVivVyyEYAjAQAPNzj6CM+qhpN5/fv/foxas3e/BqndO7WjA0La998gPrXK6C1MlDCIYADATAnEIfZeHqMIU+Le09e45c9PpDuDnzwumwfujRdSuW1iMYAjAQAHPSDyt4o9CH3OMPBPYeuXClpQev0kyDIWHV8roPPbrB6XSoFQqQEICBAEh3j5DMvLFRn/7BkXf2nhmZ8OLmZEmJu+CZJx6qqSpPDYYEZOQADASAMK3ogArezl9pPXDiSjgSw83hApXFfXBz08a1y202uUwOGTkAAwFwSz9q0YHfH3jv0NkrLb24M9xZTRm57XJGjoKh1AUUcGcADATuU/2wgR+WeRsbn3jz/VO0dSnujEZUlbmf/cjWkuIiioRYRg4SAjAQuH/1wwZ+KPPW3Tf45nunfIEg7oymFDhtn3hqU0NtFWXkSELqbkO4MwAGAvedfijzRvq50dr1zr6zGPjJDVaL6Tcf3/jAsgYmIXVYCHcGwEDgftEPG/iZmpq6dL1996ELC2UL7XsDMs6Htz+4btVSu92eWpuAOwNgIHC/6CcQCBw7e+3Imet4GebhzW8QHnt41ZaNq5iE1NoE3BmQM0y4BSAv+qG6A4p+Dp+6cuxcM25Lnp4L4cCpa+FobPvmNYnuABICMBC4H/RD0Q/p5/j5FtyW/MI+AUBCAAYC95V+Lh8/dxO3RRcSOksSkrZvXiskF0qAhAAMBO5B/bDSA+hHfxJqoVqEbQ+tJvHQmBAkBGAgcA/qh6Kf0xebj5+/icoDvXH49A271bJx7Qp6DAkBGAjcO/ph004p+rnS3LHv2GXoR5fPlPD+0UsOm3XVisWGJAIWMAUwEFi4+mEGYqsetHb07Dp4HoXXuiUek3bsP0d7fC9ZVMvEQ/OEICGgHZgPBLTVjxr99A8Ov/rW4algBHdG5zjtluef/WBFWQnNE1KX7cFtAVqAFxbQ0EBs+IeiH4/X++v3TkI/CwL/VPiNd497fT6qWqSnj55EfE4FMBBYeAGQOvN0x97ToxN+3JaFwtCYd9f+s/TEUfEIRbGQENAIjAMBraIfNf9GM0/buoZwWxYWN9r6jp+9tu3h1anbCGFACCAGAgsg+mHVB6Sf1o7ekxdbcVsWIkfPNnf2DFASlWJZ+jzBnlncFoAYCOg9AGLFbxMTnl0Hsej1QiUai+/Yf/b3P1WobmTHSuMAQAwE9BsAqWsf7Dxwxj8Vwm1ZuHi8U+8ekAeE6CMFBoQADAT0rh91z9PTF5o7ekdxWxY6LZ2D56+00hNKTyszECQEeIEsHOBpINIPq38bHB49erZFQE91T3Dg5LXF9ZWVosjSccjFARgI6DQAYou/7T54IRyN4rbcG4TCkfcPn3/uo9vUvRuwZBzgArJwgKd+WP7t/JW23qHxu/4QpwPkgrbu4YvX2pCLA4iBgB5R9/4ZHZs4cvb63YSlfp0rs3zgTv4T94/kHHvYeyFcOHjq2rJFNbROD3JxAAYCOgqAUuefHjx5NRSOza4f+omaylJaAZNJiH6QJpywLj8YCrPvi0TphFHWeU8FQ3d0jsGYXMdZ4tfRpzlSmrtIZjIl/ZXEJnTqUpBzbVUwFD1w8sozT26iXBzphy0Wh1wcgIFA/g3EAqCunsEb7f2zfrOsH/LVI5vWbN/y4HyvFY0ltCR3iMEQM0RX39D3X31HGZngIqGEI5ctrrVZzdTPR2PRcOKihlAoTL8sPaLC5HA4woRDwyRUqMx+MpQ0qGokpY+mgRND0k9ZtpC5MfXBvKPGmb5zTt999WbvgysXLVlkZgNCCIMADATyrB+1AIECoH3HL8+aW1OWS4jJAZPfP5XJ61UUTclez26zsgekBzqj2stnDw1zkGZ+88kty5bUZXwSJa6LMUlca+n8wWvvGIxi1i1kdpQoCDEZEwvbS/IdSChwfkGNIZU5/Rxdce+xy89Xlqq5OJQkABgI5Fk/rADh4rX24XH/3X4kUbTtDwR4NcNht5IwDEY6MYfOkLWQlObxZrWUqtlsooM9XtJQRdqlDluSxCwDNWqbWQp+8QlL4wf/ksvd+95P3rx8vYMyanOUUP/w5OUb7RvXPqDWxcFAIGNQCweyDBfiagB04kLrXKrXqIcXpHhgKsirDU6HnVohSBRwxJUjm8o65QwSrYEW8/k8vFpYXOQyyok9Om02zaMKNDpijfYbrsl9XBo2MDR64XKzJP++82jJsXMtU0pRHBaLAzAQyGcAxJaAoxGgs5dbvfNJrE3xMxANilvMosT7t5sYH+N1NooS3EUFyV4+q/iMbnhTwXW37yAbjsqSnXuO0Bzi+Spk0jt14Uobdg8CMBDQRQDk8/nPXOmYa3esfPUHpji2xFXgFHj3g5MTYxzPVl5axKKFjJvJ0oMUSDUV0WITUwM9LVk2aXzCc/TkRSGjnOCJSzf9/gA99SQhhEEABgJ5DoD8gRDrXmc/Ej2pYPD6eBqoyOWMy/GBMJc2zHoYlEN+MDk5wbGFtOm1Oo8zoyNxw6ssfcVWD0nD330o+wAoGqOhMyNz0LzaQxuonrvSijAIwEAgzwEQjQBdvN49j59UBq7pAzjHxtBAC88YSBlc94wPcmzh0oZaeRBIynwpB+ah1YXNsi8MQtH4r7NpD43D7Tt8huqpqUJPSEhofrHQ+audGA0CMBDITwykzgG6dL3DN58tGAxKD+/1BTi2x+12sfiK3ykNI+N+8iuv0y2qr8qmm06m4OJripvld61RcAf2erKI0t7bf5zm/BoVMitn8/iD15q7EAYBGAjkWj/qHCAqwr5wrXNe9mEPaPczr8/Pq0nuwgIhu1GWaUGQEI5bxkf6ebWwqqLUZrVkFSpIcYfoW1LYm7yL8cGWPZmdieYq7d5/XJlbZTIY2ISeTCqqz1xuDyIMAjAQyEsARAZq7x4Y8wTmV1VskPNwcprLy81AZaXurOuwEwfN11Gm7AhByeofa+cWUhkMi2orlGrseKZ12PFVhc1y2wwJlRcOvpRZYw4cPe0PBI3yyjoG5bnI8F6NTHjbuwboZcA2r8NbA8BAIEcBEEvBUQCUwWg/O9XY+CS3CKM8y3H+6RUThnjcGBq9zvHWLVlUo6y2IGVUMSHF4lKTu1nVDx3FU3uH+rvm2wxSxc49R41GeT4pGwFKFl9kcpy71o4FswEMBHIqIZaCm5j0dvZlVrIsr+cyNDLOq0kV5SVylyxx27JBcZAhNnGF431bs7JRCWXm3UhmIIMUXV3SmmogOrzNL8+3GSfOXB4Z87AaBCUFl9Uv1dU3Pj7pUffwxrsDwEBA2wBIrUE4e6Vtvp95Wf6NlcNxNBANaJQUuXgWwyk9vHHiHMe7t2xpvdVsmn+cILEbv8TZ5TAH0wxUO/FNqkWc1+l2vHfYKK9QJ3JZ0o1eDBeudqIeAcBAIHcBEJsG1NKRWb0yc5BheHScY8Mqyt08k0CKKv2+CY7zUqnLf2BZgzD/lRHkGCgeX11yI00/dBjjnp4Lr8z9VJeutnT1Dsp7KyjrinLZM+JGWz+9GJCIAzAQ0Fw/ag1CV++QLxDK7DxsOUu+BqqtKhckPik42T5Kx+yJOkd7L3Ns5OqVS+Px2Lx66eR01Pia0pbpBpLDoJEvkwDmeLa3dh9S9GMy8ltR1BsIdvYOKps8RZGIAzAQ0Eo/qQa62tqbcf+uKMg4NMzTQPVypRm/gmwlBvJF7PHR0xwbuX71ciHhnznKUvk2Ke42T9QUDM9oIFNsqOvcj+Zy9baOnustHbJ+KP9mzLwIezrXbvamJuIQBgEYCGgiIVYFR+VPHb2jGZc8C0rVczAcmfT4uBmopjKeFBCXg3pnX9RR5N3F8QaWFBfR1NR4csBkboXYci1200wpOPWoH/3vHs/dCwspADKQfuQaBGPmJdgzHR09IxgKAjAQ0FY/6ko8rZ0DlPnPqIA32bsr/+vp47byTU11ubz9m1zpnOXycMqcJUUQnoizaOrofIf6Z+ehB1fK2zTIRdlzbI9cvr2mtHkWAxnj3rFz/zj7dWkjhtPnrynlB0r0c2uvDA7HVCjS1j2IijgAA4FcpODauoayTXIpdPdyMxD1rTWVpckP4Fl/DFcyVJSFo72CBjrPc7yTH3hozdwTcWwQSBRCK0s7ZjEQHTXeb3e3XZzlVG/vPqgswWPKeBme2bnR1seWykYiDsBAQKsYiD7nUkdDKyFk07crh9wPdvfxXP2Tpnxy7PqokZSFo849NniAYyOLCguaHlgszSlblajDXuFuMxujd/1mV8vnSQAz/hvN3Dpy8oJIm3uzFJzAbQRIpXdwPNVAeL8AGAhwjoFYHfbA0FggmOWSnQZWjNDbP8yxkcsW10qcyuFYH+0NF9CjCs9rfG/m9i3rkxVxd2ktCzxXlzXPHgCxwxG90nV85lzcrj1HKTdGc4AM2gRAgrzYdrh/aAyJOAADAf76EZS5h/QJl7qYm50D2YcXrCCut3+IYzsbF9dJEp8MEJs161ViIFv4xvBQL8d2bli7Qt7QSI4VZr/tSh2cXId9c45nrpv8p44bR9P+kraj3Xv4lLIKnGgwaBIAMeiFgVVKAQwENJEQK0OgLqZvaJJDpZmSiQtFov2DI7waWVle4nTaUhaHy7htVKonlyNEJHM4bqI/jnfs5/muMxof25oIg+LSnZoh/wpUsVDpGCh1TM4lBmJHRcfvjI3dFlm+f/AkVQrQCBArgRMMAscquNSjp39MnRUECQEYCHA2kLIYT3h4IssSaoOahaOjtb2HYzuXLarl1fUpySpKxDnosXv0Fb7388ntD1FJAJPQnRJxrAxBroKbD6bYSPzMb6lzVOlDw669x2gESFmFR+Q4B2g6I5M+enlgKAjAQECrAKinf4Qe8NgBIVGScLOjm2NTV61YnOkOCDPMWaKibE9ETsS5g/snxkc5trPA6di2aQ3dVEGaeWqQlKjDjq0pb5l7AJTYtSF6aujYnzMHHDh6xuPzi4p/BAPfWUDpBw0A9QyMkIFYIg5vHAADAQ76EVKWg+sZHOPUXxlYHNTWwXOIpWnFEjmxpUwKyj5RSI30RWzsNgzd3M33xj7z1DZR3gMifttMqZRpOqR9uxhY5s4kRqycerXjyN/ROWgdUlGuwFaWwU6mF7U7uvtuGQgSAjAQ4BkDUecyMMJnU5+EfwzGrt4B6rJ4NbW6stRd6JRu+SeLFrLdxJUYSN6MZ/QlvneV1kfYtnmNlBgymTkFt6qkxWCU5hsDJdaL833jtR/8/dDIBFsEIfuNGOYCvTzUcjhICMBAgJuBWCHc+ESA12mVgSAaC5E6uvs4tnbl8kXZd31qZ+0JO9mDouDhoYFuvjf2Yx96hAITpXZ5ui/l32FNWUs25z9+eZSVwHHZiGEujI4HUg2E9w6AgUC2+lENNOn102JuXOwjJDfrpo/ntFwmxwavW9XIZ1aQEqP5aVmEJJM3f849DHrikQ1shZ7U7poFQDSwsrqiNbMAiI6rw3WjUyUiWwguEQBpLiHapMHrn0IxAoCBAOcYiD7Y9g9NcFv3kyW5lOzQlettHFu7ZlUjnTg+W6HzXQ+DuraPL5mFo6Pa850Y77mWH/vwo1arKZZYI0FS67Dpj4sKuwssmS9J907zw7QMtoHVv2k7+nPb0Tc4hiwcgIEAH/cIylxUNgg0Mu7hevpEDNTc1sVxFr3dZl3RWCdlu2M3CxkMk8ksHGGJ9HZeO8T3Djsd9mc/+hjdXyHRXUtCcku6NeXNGZ+2a6Ls6sgyeSsg3hsx3JXhUQ9iIAADAW4SUrNw45MBjmdOFiMYwpEobV3D8czr1yyXsu8BldAhNQaiw973Le53+IlHNtZWlao710mJYmxJrsPOlB3Nm4zKRqg5GwFSGZv0xxQkXgtUABgI3M8GYjEQQbth8svXGBIF2QINxhuvNrdzbPOGNSuUdkvZ1GQblBb6lRmpKqVTO7nXI5Akfv+3n47H4lTwrrRZvuNuy0R90VBmI0DDgcLTfSvlAgSDsgyPpHkRdurhSY4DYXU4AAMBPjEQy8L5/CGOZ04WIshcvt7K8cwl7sKlDdVZJ+Lk5nluj4HIS74b3+N+kxsX1z75yHolcyVPD5K3pCvLPAW388ZGwWAWRa02YpgdfyCcGgPhHQRgIJC5fgRlHIjwB4KRaIz3Z2bFQ0ZDS2tXMMRTb1s2NskbwWUaBMlrByjLBwSj1mhcTD1zne9fPZ4J7rf6tz7+RImbliuVQyFq+dpMU3DekO1w17rkCJAqn5wVIkiUUw1MhdhrBgYCMBDgk4WjUmzuJ2cbBRHRmHTxSgvHM2/asEreCDS7T+FsmMoXtt32t/Hw4OWfcL8VVovlj5//BFVg072mLelWlXdkdp7dLetjgjU5CzXXARBjbMKLcSAAAwE+BmISohQc7w/McqCRCIKMxnOXbnBstqvASVNT41mtk21g0ZA3PREn1E/+E9+tuxnLl9Z/5PEt0Vh0ibvDImYy7yoUNe9p35AswjayOyzlMgJiJeyBIMaBAAwEsnVPagxEMw21iIGSJdnGC1xjIGLrxtVZVsSxEMITcqS/bWLjPRd+rMU9f+6ZxxsbqleVZjgqtq9tTTBWwErghDwFQIJsoBDmAwEYCPAJgJiEst4X9c69vDJnxeP1t3XyrMnevGGVzWrOthukGChsn/7X9eP/S4swiMzxxT/67aa6QAYlcDHJ+G7rQ8lleMRczgFKIzAVVA0EDwEYCGQFy6hoYyBDcrSFJCSePn+N46lNJtPWh9QwaN6doBpA+KL26d29MT7ee+57WtxtKuSzr/+xYLTM9wePda2YDLpZCVweAyDFQGFUIgAYCPCMgWjBSW1ioFs12cfPXOJ78g/KW5HGhYw/hStu9IScM/5jvefLExNjWtyTukVN3RU/ne9PvXNjs1FUNmLI7SII06Gtb6EfAAMBnhKKxGIaXcKQiIKMg8Pj7Z08twuqr61cXFcZz3SzBoPSiftmysLJ/xqbGr/4zxrdk8a1z3S7vjT37z/bu6TfX5FcBMGYxwCIoAmpyL8BGAhwM5AcA9FkIE1qp5TFEdhYkMF4/DTnMOg3tj9MFc7zX6Y0sY4AScg3rRbu1h48/m8N9LVrdOeXbvmvg9bPzfGbd9zYJCaGf4w5XYh0piOWTMFBQgAGAnwkFI1oFwOxRJzcgZ44e5nvyWlqqsvlkFLW/ZxXECTItXDOO9+auHDtP2kXGlZufWHM/OG7fmfzcHXbeD2l4ERj7jZimIVYFIVwAAYCPNyjGiim5ewONRE3PDrJd5VSWh3giW0bMi/LlmekOmb595LQntZL72p0WywWS9GW1yZM22f/trevbzIaU/cByjPhKJbkATAQ4CehxGOtDmVqaiIPJx44dpbvr0CLT9PoiDT/HYNYrs0Xsc9+/sq+LwQCAY3uv91ud2z6hcf08J2+oXey5OLgcqYfeZVXQ35mod52SLc+u+AdBGAgkK2EtO5KbiXiRPHoyYvRKM+Mn6vAsW3Tarb9wdwTcWo1mS/slFhRwh0OS7xv8MyXtbs5BQUu26Z3Jkzb7hAAPZzciEE06CECAgAGAhrJSLsjuTqPIRAMnTzHeTTo6Se3KruPxiVp3q0ix3jDdwmDan3f7Gq7oKmEXFvfHjV/KO3vRwMFJ3pXJUrgjOocpjyHQEZlRVQEQAAGAnz1o2EUlFweQe5MDxw9w/fsFWXFWzasyrAsW14WwXbXm1PY+gchrst7p0HpuNJtPx+0fjb1L3fe2CAZLKKozgHSBSL6FQADAb6YNO5X1C1TSUKXrrWNjU/yPf8zT21LbFsnzadRSr/uDTnu+q2O6I3eU/+g6S2iwoS67S91u/4n+yMt2n2o40FWhC1HQIIhvyVw0+8d3jUABgIcuhKCptvn4EJsKIj+t/fQKb4nr6kqe2jdirg0/0V6aFmEsGMuK7PV+f5PR/NxrW9R49a/6a58nZbteb9lbViwJzZi0FEIROshYUQKwECA6ydZUfM+5dYacWShPYdPxXgXgD/70e2JOi1pjr97olm+u40DqZR1Pu/xTGr9pDSu+0RH7YFdLZv1GQCZTaL6wQXvIAADgaz0w7oSs1nU/nJCYsc6UfR4Ayd4LxNXXVm27eHV8wuDlOTg3A1kifV5z/xJDgbh2/toCwR73jdimNlAImIgAAMBfh4ibBaT9lVUyapsg/y5fueeo9x/l2effsxElVrxue7fbVDW5pltWYRplIfeaj31b5o+I7Tmzdu7D8uzUOUASFSW4THkuwLu1kEfVoyJHVrhIQADgaz1Qx2KxWzKyeWSS2WLppvtPW1cFyoVlL0PaImEuc0NSuS1DHItnGNeV2kY/8+drWe1u0tHT14YHfdQCRwrwdZbP++wWVT9QEIABgLZGohw2i05vKKSiRPFdzUIgz7+kUcddqtSFSfcPRen9KL+sH1++8UJsfK2T46NDml0i95896Bo0sVGDDPidFjUlw3eQQAGAtnqh4Rgt1lyksJhK/SwVJzpyOmLo2OcB/YddtuzT29XN1C7+9o8BmEiXDDfq5jiI/Hzv63FDKFzl2509w0z/QhyDKSf9FvicNqtbMMnGAjAQCDrV4mCy2nLzeUSE4OUi9L2cm/tPsj9ErRSXG116Vy2T2Wr8fhD9gyuUhg9OXj8C9yrEt7cdUAUEzXr+uziCxw2VT+QEICBAIcYyF3oyFVnInf68gI9ch7OtO/waa/Pz/33ev5TH2ajQbMIwpDMqnkjjswuVBX8adtxnrvY3Wzrun6zK7EXqg42YpjxphW57KmVCJAQgIFAJt20kJglKrvAYjZbTWKuLq2UZSsSoh2f33n/CPdLPLCsYfOGlfIe3sLdwyBJEv1ha2YXqvf8/c2zP+XV7F/vOphchNSoz47dbjURYmK3VrgHwEAgOw+xLBz1KXa7OZfRF9uzjsKgd/cdD4XC3K/x/HMflge34nPYvI7K4UKOjC/UMPzHbVf3ZN/gvoHhMxeuK7NQ2SIIuqtBEORBIIuqHxgIwEAgaxXQkjwKBXI5XI7Gsw3qnkGiMRgK79zDPwyiXRt+5+OPx+NR2n5vtkIEZbrNHBYnnQWprve57BfsoREgOTBM9O+CoLsSBPlwOWzMQPJUWaTgAAwEstGPkKxEoG6luNCR24snF0gQTVR/HJgKcr/G9q3rVzTWK2HQrLk4NiVoXgXZaYcUru76WDY7OIxPeA6fvKCMAMkBkN7WIVWhQSCWhUMMBGAgwC0Gom6lrLggt5dOrNFDDgqGIhQBaHGV//iZp2lqzZ1ycerScJ5QtvY1xP3lrU9dutqc2Y+//d4haqG6EYNu+/aKUpcaA8FAAAYC2RooMTtUFCtKC3PbpdwWBlEizuP1c79GZXnJpz/2eHKVhDuacO5Lw82CKPm++i8vXLwybwlR/Lf34ClWAqfDjRhSb1V5iUuNgfD2ATAQ4BADkQSoW7FZLXaLObdXvxUGUVHcL9/eo8VVntr+8KrlDXeaHsSmBHlDfDKQZiH4lW/831Pnrszrp3bvOxaOxpT8m742Ykij0GmzWa2plQjwEICBQOb6EZRxIJaFM5vN7kJ7bge22ebdiaK4PYdOjYyOa/Gb/tHvftxmMUsxtmKppF6drfjJJQvHcNjitI31N154+dipi3P8kUgkSou0sspAI71nJX2tQ5p6FDqVWmx5xaBEJQIAMBDgEwMR5cXOnDeAbdlA/a8pFpNe+flOLa5S7Hb93qfZHNV4ejZOmRblC/MxkNMaE01mwSB+899fffvdOS33sP8IzcmdSuTf9B1U0CAQfUxhOVsEQAAGAnwkxMIg6lxqyovyIkGlCFkOxI6fuXy9pV2Ly2x9aPWjm9fGZ8rFUUfqC9m5XMVhjtBvQRIymSwv/3zXD199c/Zle+hf3959iH7z5ERUnY4AMRqqS9UYCPoBMBDgZiCWhSsrKbRYxBxnd+Qu12hQsoEmMtEPX31Loy3gfu/TH6muLI0nRoRUEclTkybDfOoAbeaIvAksSchsNpktu/ad+Pp3Xw6F7zjf9vjpS0MjEwY5pDBKbGqSoNPDZjO5C50sBoJ+AAwE+MdAFoul2GXLfRPkleISNXmmju6BA0fOaHEZksKf/8EnaX+19OJsioEifGIgOxkoWd1nUiR0+uKNv/vKd4ZGxmb8/l/vOmDU8UYMqZQWOcwKWBMBwECAm37YV1aMQAaqqSjKRzMUEVJJgiinsF795a5gMKTFhWqrytMHhOTAwxCNmUNRDnWANlOE/T7M6UxCvQOjf/Plb1+6djPtmy9dbensHjCyZXj0uhCcCr0w6OWB6agABgJaxUDEoupSecmcPLRCUZCCxzf12q/e1ehKj25e98QjG5IDQmoMJkzyKIezmkJJqTELseymZSoU/cdvvPTGO/tuC4B2HpCNq+ONGG51JUZhcW0ZMxAGgQAMBPhLiMVARYVOl8Oap2YYFRnKYRAtV9rW0aPRhT73qaeWLaqRVAkpg1FeHsUIDnPotqhOkZBcmGC2GkXza7967x++9uKkx0ffQDuUX7nRrhYg6HAjhlTcBXaXU87CwUAABgJaGYgNBVWWuvLUCnWCqlyS8G8/+oWyvQJ/KOz4i88/V+wukOcHSYkoyDffvbpnOuzmsLIInSTc2ovPILICMrPFZLFeae74L1/6lwtXWt569xCZScloLYAOvbrMRS8MDAIBGAjw7/hv7RJksVit1sa60jy2JblIkKmzd2jHe4c1ulKhy/mXf/RbZpMYl+LsylwmpdpM4ZnvrpKOUwxvDQSj//ydV6hCQUzUIBh0XoNALK0voxcGYiAAAwGt+n61HK6ijJIu5jw1I7l/qjzibfrZm++PjE1odK362so//Q8fF4Q4C1m4ZOGspvAdYrtbw0IUDCnRj1lM7oWq89dGkdNSWlzIYiDoB8BAQCsDUQdpVaitKMxnSJaUEC0W98IPfqbdxTasWfG5Z59iA0JcDCTHQIm5RtNju1t12uQhOQASxWQGTtd9en2V22azoRAOwEBAu17/1lCQnIirL8tjJ5NMCspj+Jevt7+796h213rqsU1PP7mFBoQ8QQ4GspvCTD4zzalNLgVuZPugGpMjQHqvglu2qIKl4KAfAAMBDSWkDgWVlRS58zA1VW1LMhenxAuv/GJX/+CIdtf77LMfohJtT4jD70uVCMJsCzoYbiXlDAtg+IcodtmLi1yqgbAgKYCBgFYdPxsKou6Gsi6NdSV5bAurzWYlCZSL++5L/0+jpXoYf/r7n6pdsjX789jM4Tn+dvp3D2NZfSlLwSEGAjAQ0DYGYom4hIHqK2gBm/y1J5GLMyoLfba09bzxzn4N3ypG42ef/4sRy8ezjYGULJymsswlVrPY2FChDgKhDAHAQEBDCamLI1Cn43DY6ysL89qcW7k4ktDP39qj3RxVgj7ll33glRHzM1nFQHItnLLjkHAvSKihyu1wOOgTCRkIC5ICGAho3uuriTi73f7Akoq89jmJFUvZxg3Ur3/9e6/QhtaaSqh4y0/GzB/M+AxmMWY0SPeEfeQwdOXSSnoZsEEgTEQFMBDQVj+py/NQ10P1CJXFjrw2KaUuTjSNjnm+98Ofa3pF+q2Ltvxq3PxkxmewiuF7Q0FVpU6aBsRScOpSCHibABgIaOshZiD65EsZmFVLK/PdHHWOKs2hMZ84e2X3vmNaS6h426+GzRmOCdnNSpQmCQt6MIhu+5pl1SwAUg2EdweAgUAuwiA2FEQdUHVFcUmhLf+NSpnL+aPX3+7o6tP0ktTnlm97ecjyXEYxUOQeCIFKC+1V5cXMQJiICmAgkLv+PjUR53Q6m5aU53t/TvkjuTG5dwOtovP1F34SCAQ1vQ/061c/+uM+25/M9wdtYkjQ706ncz2aGisoAlar4OAeAAOB3IVBqfUIDbXlJYX2fLcqOSBE66qZzEOjk9/8959qXfRMN2Hx9m91F/yP+cVASjncgh4KogCooaacGQg1CAAGAvkJg9hQELGmsSLf/c9tA0IkofNXWl5/Y3cOLtz4gb/tKvnu3CeQylm4hf3sC+uWV1HsSx8+MA0IwEAgb2EQdUD0KZg6o7rqMvpcnO/MUMqub7QBtmh+Y8f+46cv5uCGLHvoD3vq3pGMzrnFQCF5w4cFm4Erdztrq8vUFBxGgAAMBPIgIXWpbDYa9OAD1RSC6EGOyRlCZtp05zsvvt7e2ZuDCy9d9fjIiqNhseau32lnk1IXZhKOnuIHH6hhARCrQUAABGAgkDcJqfUIVeUl9RUuKf81CUo3Ka/Wo2zfEBf+9zd/MDHpycENqa1fEd14asL0yN1ioHCytYl9GhbQsaiykErgmIGwEByAgUCeE3GsHoFyMgUFBetX1lpMog6aJjtIVpCy29ukL/CVb3w/GArn4Npud0nxozv77F+Y5XuULYKEhbgqDz25G5rq6YlmK/EgAAIwEMi/hNQwyF1UuHJxiV6aJgdCygQhk6Wrd+hr3/lxbtYDJSUvfvRrnWU/EIyWOxgoskBno65aUlpEu5c7nawEDgEQgIFAnnv61KI46ptWLq2mPZt140e5dYqFLBeutn7vhz/L2eWXb/jsyIrTAXHZ9H+ymhZkLZy7wLKqsYYCIIwAARgI6CsMok/E1DFR9+RyuR5aVSMaDXppnVyWYGL12fsOn331l7tydvma+uXmrccHrJ+bFgOFFtx0IHpCN66qpSc3dQQIBgIwEMh/N582GlRdWdpY59ZH29TqbHl3cTp+tWP/jvcO5awBToez4bHvd1X8NLVQm7ZJvfNG3TplWZ27tqosbQQIL34AAwFdhEHqSnH0GZk+Ka9bUVvoNOujdcpaCSIbErKQhH70+o4DR8/ktPt+8FOetRcnTNvYH5NZuAXjnwKHZd0DcgECRoAADAR0+UpKGQ1K5OJWUi5ODy8wQ8qCPXI6jgK27770s6MnL+SyEeUVNaWPvdfl/oZgMNvkNRGkhfPMGjavri0spKfUxRZBgH4ADAT0HgbVVJWtXFSimwYqO9mxQMgsz1T99ouvnTp3JZeNoHGTZZv+bGz1xbhrozIhdWFIaNWiUsq/0RPKFkFAAQKAgYAeJcRWImCV2SwMalpWXeG266aB6iQh2UKSYPz6Cy/nWEJEVfViw/Kv07RZg7AAOvFyt30NJVQLC1kJHAoQAAwEdPx6SsnFuRQ2ram3W0V9tC4xSUidqZovCb317kFhIejHZhG3rmtQ9YMCBAADAV2HQWm5OOq8SoqLNq6sNhr01MbETFVqZkJCJ85cylkLevoGz15qpiYI+h5JIdFsaqopKXazCuzU/BsCIAADAZ1KSM3FsTCoqKiINpJZvbRMV6I0JjZUlSUkGMSvv/DKwWNnc3P5X+88oDiQJbIMug2GmpaUNdRW0NPHAiDswgC0wIRbADT4+JzYQZUkFFVYuTTq8YU6B726kZCQmk2KCsK/vvg67an60d/YpumFR8cmj56+SHUQBn3HEg2VrtXLapl+6ElUd0GFfgAMBPQeBgnK5qEUX8TjcUrgxGIxktDGpnrvVNuYJ6ifZiYklOxUv//KGx6v7zPPfli7q769+2A8bqDlGWg0Sre9eYnLumlNA+mH5d9o+EfdBRUvb8D50ypuAdCid09dsZQ+R1N35nYXbV1bV2A36aqZcjaOChPk5RJosqr1Z2/tefEnv9JoAVN/YGrPodNyLRktcWPUaQquwGHetn4RPV9qAQI9iRj+AYiBwAKTkDogRJFQLMm2dbEDZztDtGmPfgI2oyDSG8HE/izs3n9idHzyr/7seYuF85oOu/YcjURjZouVBUA67M+pavGRdfVlpSXq8A/KrwFiILBgX163F2dTv1ZeVvKBdXUWk35eeIkCPlFuqVlZtsdy5uL1v//qCx6Pj+NlIpHozr1HjXJvLuozAKIn5QNr6yrKS1n+DcM/AAYCCzsMUvduUIuz3W53TWXZw6uqTKKuJCQkQjYTW8DU0trZ/9df/lZ37wCva+w5dNLnD5LnDImMls6SIaJxU1N1TVU5PUH0NGH4B8BA4B6REKtKYBJSBoTcVOa7uUl/EjIoEpIbazFbLGMTvr/9ynfOXLia/dkpD7lj92HyG4Va8kwgnQVA9ERsWV29qK6Snhp6gtL0AwMB7RC/9KUv4S4Abbv25AOjAvuj1SI6rcLAaCCuly0KWEsNSeTONxqNHTlx3mwSVy5fks2pj5y8sP/oWZM8pmJW7oKODET6oU8Di+urmH7U4R/k30AuXn64BSAHXTsTD40rCPKmOLcp59S1wWhMP4UJkuwGCoWYkAyGWDTyyi923Wzv/os//qzNmuHer2/uOigHQEZ1SF8v3bpZNGxqqlKjH9IPNl8AiIHAPSihW8FFEnpMkVCh3Tg45o/FJT21NJGVU+nuGzx59uK6phWuAud8z3jhcvOO94+YlI0hdBUAWc1y6UFDbWVxcTEZKHXzBQz/ABgI3OMSYo8tZmNxgWlw1BeNSXpqrKDm4tgfPF7/3kMnKspKGuqq53Wuf/vxL2hIiarsjImeXdCDgZw207YH66ory5h+1Kk/0A/IJcjCgZz266w0Lk1L9JePmsXjl3q9gYiuJCSwmaNCYjnTaDTyzX9/9Wpz2x/+7idpoGQuZ6H03bXmDtrBXOnW9aKfIqd527qG0tJiVvkG/QAYCNx3EkoLibavF09f6x0aD+qpsZI8qSkxJsLCIuP7B05db2n/qz/7vfraqrue4tc799OvS9GPQTc9e02Z46GmOlk+ycJrzDwF+QJZOJCHfj1tQIhBHWBZkTUaCY97w7qKhG7pRw6JjBQYTXp8ew6eLHDaly2pn+WH+wdHXnr1bXkvIpPZqIMRIPolHqgv2rCqnmXesPABQAwE7t9ISFCq49JUtO4B0eUYutw+rp8COdZ3KwIxGEzyvj4sI/fiy2/Q7nZf+PxnaA+kGX/yzV0H2DxXNp6U31+DljxYt6xsUW1izmnqrj/QD8jbu0uSJNwFkBfotceWjKOVs4PBYCAQ8Hq9Ho9ncnJyeGT89PUB31RUZ+2V/5MbHY9So5WGRxx2y+d/95OPbXso7bsnJr1f/G9fNVDG0WxRSrGNeQyA3E4T7RNISyIVKah7nqLwGiAGAvd1JJSalGPL4jAes1sv3xzoHvZJkkE37ZWU/6jN5uQuc8ZgKPLtF18/dPzcn/7Bp8tK3ep3v737kB42YqArL64sWL2smrJuhQps4IeiT6x6ABADAURCibiCAopwODw1NeX3+1kwRHT2jVxtHw1FJJ01WWChkLLoN4uHIhaz+LnnPvr0U49Shx6YCn7xr78aiUomucDMlK8sHM34WddYVl9TxtzD1htVlzyAfgBiIIBISO4BWYFcaiRkTlJa5Lx0c3BoIqibD0vJGjljYsqQPH4VNUZjkR+8+tbhk+e/8IefOXPheigcpfxbvjZioBbWlDjXLK9MRj6Jkmt1yQM2Dgf9AMRAACSW6lGHhUKhUGowRF+7+kevdYzrZmOh1PhNUoOhOB3xOEUXNquNDCTKfX0eAiC72di0tLS+upTFPeSetMwb6g4AYiAAZoiE1GEhUYEFQxaF8mLntfbh3pEpPQVD8lfWamp8XBRJRdS6cCQuyhXYuQ6A6Fp15Y6mpZVFhS614I0yb1R0wDb7QeYNwEAAzNajs+os9lFdNZBVgQYx6kfGr3aMTfqj+mkyHZJklJLbIVFsJAgs8snpOqQlLsvqpWVU70ZBjxr6UNotreYN+gEwEACZSMimUOJ2dfaNtvZ6psJ62u2bvoosmyipU1lzc3m71bii3t1QXVqQhKXd2KgPC32QeQMwEABz7c7VfBFLxzEJUZdqT1JX6W/rHe3o94Wjcd20Wrh95TfNe3ybxbi0unBRTYkS88jiYWk3ulFpoz7QD4CBAMgwGGJjQmxAiAVDioZsi6rIQ2PdQwGdeChnV6I1DhZVOZfWUtzjVN3D3Kym3dQtAaEfoNO3OWrhgM65VW+WnDPEKuUCCv4Egc7+8a5B/1Q4ds/fEIdVbKhwLq4tUSMeNe5h7mEL7WDUB8BAAPCRkJCyik9EgXmIqUhWkELP4GT3kNcTiOhmJQWOQaFU5LDUVxbQjqYOBSae1LgndZE3uAfAQABw9lA8uRaBGg/RmnJqSMQeTHj8nf2TgxMhPe16lzm0l3aF27q4hpYUlfNsjiSs1iDNPUi7ARgIAA09lLqQj7w4qBIPBRWYgegrPfb7p/pHPAOjgXF/eIGGRMUF5upSR015IQt11IiH1QSyUbG0uAfuATAQALnzEIuHyEMUEpF4WHaO2YhpiVTUN+Idmpia9C+A7BwZxGU3VZXYa2Xx2Jhv1K9sXhSrc4N7AAwEgF48pA4Rqdk5lUSyLhgcGvUNTkx5/NFwVF+vfKptK3Kayt32ypICEo86+YmhiocFPalTfOAeAAMBoAsPpYZEqooYzENEWGHCGxidmJrwRXzBSL7W3raYDC67ubDAXO52uF12demHNFLFw2ZHGVLACwDAQADk30NCsl5OLd1WB4rCSVQDsQdMVL5AcNIbnPSHfVOxYDgW1Gb9U5IFKcduMRXYxQKHpbTI4bRb1FXv1KlO7Cv7e7Y6eGqVgbq0AdwDYCAAdOqhtOycaiPVOuyB+keCuUr+Go35A2GPP0izi0LhGC0zGo6RzyQSE53wru8Y0Sjv5U15Mqpho02D7FbRbiHlWAscZqu8XZDIpMLsomqGGUjdk0INd6aP9MA9AAYCYMGoSI2KVBuxESM1QkrVD0P9NvZT6hnobDE5uopFpi3BYDGTMwyiYgs1XmH+YAs6pO4Amyoh9Y9p1klbUAfiATAQAAvPQ8K0sSLVRiqp1mFfVVQJsR9XT6WeXzWEut24upIQ+6qieijtq/rN0+sLIB4AAwFwT0VF04Wkain1QWr0k2agVL2lSch4exiUapfpsklTDsQDYCAA7q/ASBCE1OAmVTbTQx/1R9JioNQwKE1FaV9T/1X9qVSTAQADAXB/2SgtTkoLmFL/Pi0ASguDhGl5uTTTpEU5sA6AgQAAt3llxsdzeb/MqJY7PQYABgIAzElL836DQTYAwEAAAAD0hhG3AAAAAAwEAAAABgIAAABgIAAAADAQAAAAAAMBAACAgQAAAAAYCAAAAAwEAAAAwEAAAABgIAAAAAAGAgAAAAMBAACAgQAAAAAYCAAAAAwEAAAAwEAAAABgIAAAAAAGAgAAAAMBAAAAMBAAAAAYCAAAAICBAAAAwEAAAABgIAAAAAAGAgAAAAMBAAAAMBAAAAAYCAAAAICBAAAAwEAAAAAADAQAAAAGAgAAAGAgAAAAMBAAAAAAAwEAAICBAAAAwEAAAAAADAQAAAAGAgAAAGAgAAAAMBAAAAAAAwEAAICBAAAAABgIAAAADAQAAADAQAAAAGAgAAAAMBAAAAAAAwEAAICBAAAAABgIAAAADAQAAADAQAAAAGAgAAAAAAYCAACga/4/I5PJ+1Tr2lMAAAAASUVORK5CYII=;clipPath=inset(20.24% 33.33% 20.24% 33.33%);" vertex="1" parent="1">
          <mxGeometry x="460" y="280" width="61" height="61" as="geometry" />
        </mxCell>
        <mxCell id="vxvJLaRAeoQ-sSdQ6FoQ-6" value="" style="shape=image;verticalLabelPosition=bottom;labelBackgroundColor=default;verticalAlign=top;aspect=fixed;imageAspect=0;image=data:image/png,iVBORw0KGgoAAAANSUhEUgAAAEAAAABACAYAAACqaXHeAAAABHNCSVQICAgIfAhkiAAAAAlwSFlzAAAB2AAAAdgB+lymcgAAABl0RVh0U29mdHdhcmUAd3d3Lmlua3NjYXBlLm9yZ5vuPBoAAAr8SURBVHic5Zt/cFxVFcc/5+4m28QCLQg6WIsoglIs1dBsWqoGFLq7aTEMbjZN/VFnFEdFUURAFASccYYZEWQUZxgRlB/ZzVbotGY3RftDsG1eSimDU6So/KyoKL9sm3Sb3Xv8471NN2l3s7vZrVi+M5ncd985537v2fvuPefe94TDjGB4+dFCdjkQUTgTOB7YB7woyEMqcr+T6v3t4eIjh6shQNoisW+o8h3g2JKCsNWKfHkoFX+k7qTq3QBAy9Klzf5cUx8qHQXVf0NkA+jfQQNqOVVE2oFpAAoZI1wymEr8vJ7c6u6AOdFo4/Q9ZjWw2KvaqcLlQ6lEP6CFssHw8qNh9HJFrhAIABbVzzoDfffUi1/dHRAMx64Frvcu0/6Gkdim1at3l9JZ0NG90FpWgx4HjBhr525Zm/xLPfiZehjNo2VpdLbC1QAK27P+4U9O1nmALf3xzaJ8EsgCTWrMzfXiWFcHNGTli95QBrVf2bZmzXC5uoMD8Y0gdwIodLRGYqfWg2NdHaBIJ4Aqm4cGklsq1Rej+V9eRHVpTcl5qJsDFp7/6ROA9wGIyEA1Ngb7E38CngMQpL29fcW02jF0URcHzOvsnJHz7d+Rt6/oc1Mw94xrgyXDTSOvBcOx/tbwsnNrwRPq5IDm4aMagene5agxbK3amMrYo+PNJxHBrgtGYnfWYkTUzAFzotFGdx2HzQ/e/RLYFrWyJOu3p3hDuSo4be/7roi0qdKl8DNgDwDKipHmkTVzotHGqfCuSRzgBTs7gBOtNa1b1/buqIXdQ2F+JPp2Y819COe4NfpDJ933rWrt1WQEzMhkAsCJQLMY3lYLm8WwNZX8R9O+pgjguDXy9fkdPe+u1l7NIsH5i5fNMf7cCU5/34bC+tZIbIkoXwVOAH6fCWSue2zVqtcm6pcrl0cwtGwuYrcDRtEbh9J9V1XDuxYjQBZ19MwM+OXF2c36UOGN1lAsKsoa4HxgHnBpIBNY19JycUM1coVwBnofV2UQQJDzqiVftQOC4ejpbeGu+4Ph2PCozb0yanOvvLDHPD2vs3NGXkaEa7ziqzA2m3/Id/x/lhTaKlduIsRoPl2u+hGoygFt4a6zwTiKXIiXvgIozGrOBI4rEM0TW+UTsyxfKcJ7JpgsV24cRGWfVwxU2oc8KnZAOBwOgNyHu85bhXsVvgryRVH52OZ04q8HGPKoV/pcTnNjS6Eo4zc6ypWbABVOAVB4sdJ+5OGvVOEVOTqEMhsA4bKhVOLHRYXFfgM1G4CjgCYAhXudgfjGquQK0PLx6DEo57k02FRpP/Ko/BGwvD9fzDRmfllK1OlPbsv67Rn5axHuGEonPl2tXCH8DeY6XIchEC+/A+NRsQNUvEgMCGQaTpxMftua5PMHrmQXE3aBKpUDaA3HLgEudUV5eDCdSE/GoxgqfgSMYZ1aFBAwt599XnfXpt/Gq34Gy0U0GvU9v5sFKuYKgXxq/G/N2s9OxW5VgVBbuPsuRfMNW4Fd6u7eFEN+ln/V+6tITsBv4W0ybrbXXQZzwZZ0fDtAayh2k4h81OTkU4H92V0jTWYlolnzFo1uSSZHijVY8QgAkOm5L9ndviYR7QKM4k2Kk2Om91eRnDfc8sgK8nOTa/yem3S5lET4Mug069PQ8DQcgcWokN2rpwGPFe1LmcQPCTceIKLIWycRvdhrbhvotgrrXKi8jOFPmsmkhtY98PLEBoKRrotAgpnGzA8eW7Xq9WAodiWio06670eUmE/qviu8qKNn5qjNveI2JlcNpuM3AgTDMQUQkesHU/HrvLoRYBqitzqpvkvrzQ2qeAQWRnpOymnuamAuSNFYPY9Rm5uVL1tkko0ReQR0ESqXBCOxj6JSal7xoP9EWOmkEndR4pcuhoocEAwvn5XT7KOMHW2V354ISSfVu34SmctVWQ80o5xZtn0lEozETnVSiW+XTchDRQ4QGb1MVY4FFPR3IlI0XT3Ajb1qdaMTPP1uUqVlB1NxZ8Hi6Jk5I583ImUlOKosBN6B8q15nZ03lkqhD4WKHKCKG62JbHVSifMr0aXMfWHvBKjs3D4Y6oog0g/4pmUa51BhWFxhJOg986plH3DUG4I5wEXNpHPSRNT1YOT/AX6Asy+44KjR/dOWGDElAxpF8/dnt4W7rywla9U+37xP12zcmNxTSq4Ugh3RFtQsEpWi29+Kjs0VKrqsLdwdLGpQGUH1D4NrE/n0G2k9P3qy+M06lJOrJVoUwjNi5dzBgfizE28dKg6YcP964BpqH6uoiNyQb9OIT26pS+cBlJMVvaVStWBHtIX6dB5AVPXaBeHuDwL4Qdq9G/HZ0+2nkslkbqotRKNR3/N7zD1AN0L7ZPIToTnfR0TU67yd46STT0yVE7j7mGB2AJJT2oHtBjgaQER2JpPJXGsoFg2GYt1TaSiZTOZEZKd3eUyl+sYc0HHSySeC4eWz2iKxyxZGek6aCq9CR+bbGLcKnNURO0OEPoRebxi+QZC9RZWbrOZ+UmvL4xygGfsC8ASw02TdU9k3BNzweK/Culqb9gMWMGrxbftd8nVgTi0Mq8XnTWG2Yl3VMZ1oNOpLJhO3AbdNlZM7N41vww/8GTgNsSuC4e79Avun2pBCI9gVICA8VbG+6p9FXO+9sMf8qi3c/fhUObm2dG4ByacA/Ci3IvwUZBboDRXnk0XhdkAtFS+D+2xgdZNv/1+AUxR6QHtqRsul9kzTiP0NgHEGEj9D+QrCk1QxXIvAIjypol8aGkjcXqny4w/evVdUzgNWAa/XiBPA64I+4MN3Tj5CrSjQCIZjG4B2YKOTTpxTLYuWpdHZ/qxx3/0R7hhMJb5AFZsZAG2h7nYV3QAgKucMljhMORQEKsoFLsbduX1akJK/bLFcoDXSfZaorsc71HBZSK+Tih80zCvIBby9RG4X5OkSHfjf5wLBSOwhlA97l8NAMwBGzy18t+DIzQWUD7kF+UXWb8eO2bBmLPA60nOBvwJzQS/0Z33vzz/6ih17F/gIzwXk+15hJugCr/xo7qUZ/XmJIzoXcNLxlah2AGuBx0T05uyoPXfbtttHi2vVLxcYtymqGfsCDeYJwFfPXMAZ6EvBZHvEhcRYjxA6onKBeZ2dM5r2N7xzSyr5x4N03wy5QCATGLRwWmuoq2dooK93nP6bKRcQ5KAm3xS5QCaQacsZPuAMJA56veWIzwVqianmApUcjIjAWwC8/4fzm8OisEanH6pcLsrqREvLxQ3+E17rZ/wrqQ9mXzpmSen1u77w3i/u5cC3CXvUSvfQ2nh/Kb1CHOSA1lAsKuBzBhLxRR09M/fn7AoxzEd12cHa0quWrY0+c9cf+u97NRiKdSOSddLxlVX36hAIhpfPEsl2GXy/3py677nWUNdiI2aeRb8p7qe3Y1D4l0FuUnS7k048uDDSc5Ild5Gqv89J37urpAPO6oid4bO467KxZ2nO9IhwWYHIs/6snJ316ybgXQX1N2FsL9Y8AmCtOaOW3wwEw7GVwEUCv/Eb32dGbe4lCoI4ga8BKNxaoJbNBDLHT8sE7lZYArrSSfdFJ9ouvSss+jCwt0DkxFGfXo/7bUAeexEe1n3ZZ4GdwA6byx7k6SmhYFfYv/fF3cDm8bfpcZfLwjrZ9N6Ght1WZT2wV5BDvpxR1hwwPxSbb4TNjA+dR1Vk4eH4wLkYgqHYKoRPTKhe5aQTF5Zro6xVYOtAYivQ4b69xTDwCGI6/pedBxixjcvd74jkZeDfCLdl/cPLK7HxX04dFwRA5lQgAAAAAElFTkSuQmCC;" vertex="1" parent="1">
          <mxGeometry x="632" y="273.5" width="64" height="64" as="geometry" />
        </mxCell>
        <mxCell id="vxvJLaRAeoQ-sSdQ6FoQ-7" value="" style="shape=image;verticalLabelPosition=bottom;labelBackgroundColor=default;verticalAlign=top;aspect=fixed;imageAspect=0;image=data:image/png,iVBORw0KGgoAAAANSUhEUgAAAEAAAABACAYAAACqaXHeAAAABHNCSVQICAgIfAhkiAAAAAlwSFlzAAAB2AAAAdgB+lymcgAAABl0RVh0U29mdHdhcmUAd3d3Lmlua3NjYXBlLm9yZ5vuPBoAAAg8SURBVHic7ZptbGRVGcd//zPT192VbeV1aRc6c9vtUlh2dhvEREVQPygiiRCiCat+MEYEATEiYqKbEDFqTBAl4AchiEESISS6rsYobsyqC9l2WqHY7s7MNgUbwGxb6NJ2OzP38cO9t50tLbDQ20Eyvy9zz3Pumefl3vNyn3PESXCwq+vUhFlbk3P57pGRaYChtrbWYkPD7Wb210yh8HuAfs87T/AAZqeGTR1wSsVfCdi4jIopwCrKs8Ac0rTMSsCUmZVNmpQ0gdkkMCmzCeClstmYMxvLjI5OvVmfkitVHPa8hmnf/6TgMqSLgG7K5fUAs2aDwHaA+YaGLwJfR/o8cBoAvv+psM3JsjQoLQCYLUZFQqEswiQAXPibTaengRHMnhQ8UdfUtKdnaGh+OYWvCcBQT0/98dnZW47BNyS1Lmum2UI7B3t9+Ixgz0K9c78ANmP2XoKnGjQDQ3pzT8dsnaAes2akBsEGC+zdKGm9mbUArUDdMq03AL1IvQbXz8/NHc2m0z+sb2y8a2kgVFl46txzz6xLJPYCmQrxNNAn+JeZFXBuNDE//7dtY2OTb8qRmBnq6Vnvz821zEtnO2gXtGN2jsE2YCdBMAAw6K/z/U9ccOTIi5FsIQDDW7ZsmCuXnzKz7qBGg+b7d2xwbk9nLnd8DX1aNQ57XsM0XIHZdwQXAEgabkwkLorGMBfdPFsq/XTBebN7DudyO3cUCo/9vzoP0JnLHd+Ryz36cnv7DqR7Acyse7ZUuju6RwB9nZ1bne8/QxCQ32by+SurY3J8GGggnf4dcDng+86dv/Pw4X87gITv30jgfKls9tVqGhoXAqNcvgEoA86FfjoAP4gKwN7eQmGsSjbGTmZ0dBTpDwCYXQ7gBjs6tgjaA5n9sYr2rRWRj5uzqVSnM+fOi2qccweqZNSaYb7/5EJB6nGYdUXlxkQiVxWr1pB55w5F1zLb4kw6KyxPRXPjapNNp/dm0+kXs573FauYeqvBxbncK4SrU5POcuFyFeBoHAqH2tpagY8Dp2N2z4Dn/XPA8zJv1C5mJsLfFsfien9ipbvfDrPNzSc+cbOLzOxgNp3++QHPe08cOt8IQbCMl1qdgg8KLKYALFHcB8wTdIMvNZg9259KXRW33qWYFPhq1uIsDICLohIjPjyI2fnAn0PR2ZIe7U+n/zKQSnW9XtvVxIL8AUCrA9YBWPDVFzuZQuFwJp//GNI1wEsAgstMGsh63u7DntcQtw1a9HWdA+oBMFs2YRAXmVzuN4lisVtwN+ADTZh995jZ0/2p1EdjVS4Vw6s6R5RQcK64YoOY2DY2Nrk9n78J+BDwTCjulPSngXT6l/2ed1ocemUW+VrvMAsCsChcczL5/N+n2tszmN0MHANksEtmI9lU6qYY1g4Vb4BUt0RYFS7dt6+UKRR+Qrl8AVKUXmtBuiubTu/LplKdq6Ys7AKCekeUF1zsF1UlMzo6msnlrpDZVZi9CiD4INLDq6hmHsCgLkmYhpZZVZeolWRTqU6TriOcoQAMVu1DzcwS4aWfFBQNEhVdoWoc3LmzLjk5eQvSboNGAMELPnwzk88/tIqqonFvPmlB329cGAyrRL/nXaKpqXtN2hqKTPCr43V1X3vf8PDqfqeY1SGBVEwiFcNNhqoE4OmOjjPKzv3IzK4lylJLgz58eWcuF0t+wqS6MB0+7yqmv/o4lK1oBKg/nf5cybkhg10Ezs/I7LaptrbeuJwnUBT5WkwCxwFMin0JGtHX0bFtwLn7BO9ftEp7yr5/fW+hMEahELcJC6vfJEFyYDNmy21WrirOrDnrebsx+xaLT+F5M7t5Rz7/WNz6Kwj2HKWpJNFn8GJiJDZMupPF6bYo6celmZk7esfHZ+LWfYId0CpAMJE0mBDAShuhq0vk/H4H112Yyz3zunfHRGUOJKnFVFg8ATh2bIamphLBivOozG69sFB4QCeeA1hrIl8nXZQdEbTakt3i1aB3fHxGcA1mu8uJRPf2QuH+ajof+hi8AdJkEt8fRcKgcbCraxOHDv1ntZVuz+cfBx5f7f99K/SlUu0JaABwZkeck0aiSisWz1u56bsDSQs++tKwc8XiAMGGITj34eqYtXYkpEvCy5JKpUEXnvSIVl1XxzEOvFMwcGZ2dVg8kBkdnXIAgkdCYVc2lfp0dcyLn0HPuxrwAJAegXBeLs3O3g/8F8BJPzuYSm2uko2x0d/RcY6ZRSdDXirPzDwAYQB6x8dnkK4HMDjTSfsH0ulLq2TrqtOfSn1Ezu0HzgBAuiFafZ7Q37Pp9PeA2ytE+wS/9qX9mVxuWEH6+h2PgRv0vK2YfcDgs8AlFdV3ZvL5b0eF1wx4/anUdZJ+QMXxspB54HngOcGYwQsyO4o0adKk+f6ESVMJac45N6ti8VUrl+eHx8ZeuSaaZU6Sg5s2Ndcnkw1N9fUzlYe1DnZ1nSrf9yo/mfs9b5d8/1qkc4FzCOf6CqbN7NYdhcJ9lcJlR/z+LVs2US7fKLNdwKa3YvxyCOYsOP66EutZJjEjmBNcfmE+/wRANp1+FtgKfCGTzz8Yyl4GlttsHTfpIRKJu3eMjIwvrVz2qGx4420Gt2c9r9v5/sU412nhIUSCIzWnA02v7/KJhHm+xpNpE7XzoQd4IhQdA0xmC9t5ZvZ9J11p8BxwRGYjvnMH3qjrvq05/x9tbU2N69a1JEqlVny/xZc24Nw6M2ty0Ii0Ht+vMzjFnDsh6+zMmm3xNX3FpIVuIrPocHTgnPRCeePGh3v7+oqR3vXNzWdtO3Qo9sxJjRo1atSoUaNGjRo1atSoUaNGjXcb/wN2ZkcDWG16JwAAAABJRU5ErkJggg==;" vertex="1" parent="1">
          <mxGeometry x="777" y="275" width="45.5" height="45.5" as="geometry" />
        </mxCell>
        <mxCell id="vxvJLaRAeoQ-sSdQ6FoQ-8" value="" style="shape=image;verticalLabelPosition=bottom;labelBackgroundColor=default;verticalAlign=top;aspect=fixed;imageAspect=0;image=data:image/png,iVBORw0KGgoAAAANSUhEUgAAAEAAAABACAYAAACqaXHeAAAABHNCSVQICAgIfAhkiAAAAAlwSFlzAAAB2AAAAdgB+lymcgAAABl0RVh0U29mdHdhcmUAd3d3Lmlua3NjYXBlLm9yZ5vuPBoAAAexSURBVHic5ZtdbBTXFcd/53q8ZmfWYAxWEgJUomqoaFpFRAppKkdEqUIoEeahysdDpT5FakvUoiI+hkodFNhAZfcrFUoj5aF96UP7kFKVPDRtIlAlKrWklQpJhUJVO6KhBhubnVmzu57Th51NFrw73jW7O8T8Jcs7c8+999z/nHvPvffcK8Sgz5vsKxa7t6EyhLIB4W5gRVye2wBXUD5E9Czw2+5U8cRVb/nVesJS8+1udZyUvxPEBZa2SdFOwQf5WU8qn53wVkzfnDiHAHuf/6AYXgdWV72+InAyhA8ECdqp7a1CUdvAaoVHudFaxxR2BFnnTLX8DQTY+/3tIvwKsKPE04p6/nnnTX4ts23XvpXw1HIK/uMgB4FN0dtAhWeDw87vKmIfERB9+ZOUG18S+E4uax8D0c5q3mqoZNzgmwo/BiwgUBisWIIArNwz3pu37HOUzb6oMBRknTeSU7r1sF1/q8BxyiSM2Sl7w7gnOQMw023vJurzArsWW+MBgqzzhojsih7X+IXguwDS5032FQqpMYGMwOlc1n7kk2/29aDiuMFp4CGFXM/s9dWmWOzeJpABUNRbvI0HECXU7wMIZApdqW0GZXuUesVPOX9MULuOwF/ivAlMAKBst0A2AAicxJNSksrFYfneiWWhGBMnI0tU42Z9AHhSEtc/pTAEssEC7gEI4YPWqXtrcNzcFwT5qqoMIvo5YKDQSMYCOK7/Fz9rfzGuK4fKmAggrLKAfgBTMYsKdmk6nZoZyB9Njy68Kc0h4167X8WMoDyhsNDhaFPGyw3kPP5XT8AIV6KS+y3qrAccOziFstE+4A9Vz5zaBcfNfV2RV1B6olchwjsCZ0JlTNBYIxDkYYUdAFqQ2mucGtmsuknKg9H/jUBbCcgcCJ5R1dcAA4SgL4clM5z/gd1wt8zs97+BlAloBvUJiGDqrRhbhN79058NVX9RropxMeHTuUO9b7ezzmrEjqqdQGi6RoAeoNjpxkPCBKQPBA+jfAUAkZFONx4SJsCE4TPRz7wJS8NJ6DDvGNBOqMhTAiC8dS279Mp88um9+bViwgeMkZ45iaobF6JDYgQMeJoJCsGnAQj1VKywp8Yp+MMQvgBYqq1briRGQFDw10HZX4sx5+NknaL/HHy0lJ0H8i//vH25UT0SI8BI19JQQwBUw/j5+8cLtksqPBXOdk3UE51Z0nOxme27xAhQKVloeQwWo/MobAZAAX0vOJz5ayv1iPMCBQBFr7eywgVBo8mYmpbvVdS1ABF2hcpjKuaXra70dkJdAnKHnWPAsQ7qkggSnwonjboWYO/xVxkrXJ/LZt5e6MLccXNbQF4jCrRUQ0OxygNbExDd7Lj+PJn0lH/ZeZxXpdhIkXUtQCz+rJg/Oa7/tea0vKGUp4F7geVz/7S3IhWWzFRcKSpa1+3VqHMwPZC/u1HpODd4GfiUqjRR+RxUCJ4CeaWWgKqeD44478QVoiX5Npb+XRCnrgw6KPAIoPnu9HijCtYlwE/Zg+lifiCftccaLSwGk37W3rfQzNHGyItxMrbrH6NMwASezDRadn0L8GQmD61ofEdgYJUCKBebzLc4oNHuNnKHEgCsAu5QAjw1wF0AAv9tJmunFkNm2b6ry2slTL2/bLqh1dtudZZZU6laSVq6vnIWustPclsSsLZkumu6U+czwViXN/XAtLesrrt13NxeCI6UKm28GeEN/DVFQJu7gFxqQGhNeD31+XgRs6XBCpVw9t0GZYE2W4BfSL9odwf/FtG+m9MEWafwPABdpfjYgyIICFxQ9NW6coa/5Q71nmtGx/Z2gWHxA/h5raTM965tJjTPN1Ocqoz6LzlHW6NcGYvDC9wC7ngCEtsTnC1aF0xXOAPorHa9n5QeiVlA/mh6NBS5LxRZnz/ckgXXgpBoZCjJhleQ7BjgqYWniX6ExAjo9aZXOoVg1CkE/+ndP53YEfzkAiMlGQAqW1cDwLzB0XYgMQvIHep9F3QLRp+49tLS95LSI9H+52czf0iyfihbQGJHY3u96ZVJ9n8oRycnAELt7F0ge4+/KixYF0LpumC7/j2drLuqrROGaP1shHs7qYRJhfdFsYGlxoTrO1q3sAYA5aIBPVf+zaNJ++SOwFNLYRAA0bMG4XiUtKJ8x2Zxw5nxv0x0PBgxx013d/H3CrlyshwEbevByGShgpGDAAq5VGnmhLnqLb9qYCSS2JQ5kP9Wghq2FRk3vxN4KHocnjzaP2UA0il7mCgKpKo/sl1/a0I6tg22629V9IfR46iTskcgmgmOe5KLTloHgCVwPHMg2Lk4uoNKxg1eqLoxFmjIjnFPclA1FQ6yzhlVniMiQVVfdtzgtLMv9+Qn0jt4ajn7ck86bnBa0Z9SabzwbHU0eu7VWdffKPA6RL6yjAmBUyGMApcEveWrNdW7wmLCx+LOCTv7g7cQ3TzfrrCWj//fZWBt5Or6q5JHNWTHzaH4OV82yDpnBjzdEN2r2x3dKOtXGPqYrVvvGTfMv9UKY4WFKPDLOpAj9cXmlh15uGEnZY9UzL4aNU07EjzY503+pFjs2YqG20Hup7x8XRmrbLNQznbP5v8RJyKiv1HlS0DN0NhNuAx8CPpPxBzvKc2cmDzaP1Xvxvf/AZfVzvA7xmIRAAAAAElFTkSuQmCC;" vertex="1" parent="1">
          <mxGeometry x="776" y="315" width="44" height="44" as="geometry" />
        </mxCell>
        <mxCell id="vxvJLaRAeoQ-sSdQ6FoQ-9" value="" style="shape=image;verticalLabelPosition=bottom;labelBackgroundColor=default;verticalAlign=top;aspect=fixed;imageAspect=0;image=data:image/png,iVBORw0KGgoAAAANSUhEUgAAAEAAAABACAYAAACqaXHeAAAABHNCSVQICAgIfAhkiAAAAAlwSFlzAAAB2AAAAdgB+lymcgAAABl0RVh0U29mdHdhcmUAd3d3Lmlua3NjYXBlLm9yZ5vuPBoAAAQOSURBVHic7ZvfaxxVGIaf7+ysTbUxbbWlEcxFQFDxIpqYTdFqvSjJJFQLstkgemGhQVTE/gX2LzAgQolUqfgjWYMSFHaNKFRBkrUIvamgSBGV1opNDQk1ZLPn82Jnk227cZN2dic7znM1+807Z955OTNnzu5ZoQL73OSuJY0dRfQpoB1oqqRrABaBc4JO5p3YyPefjf11rUCuLfT0De1X0Y+BnfVwWD/kkqHw9HR24uurquUfugZSD8Qs08A2b+dpCzOgV+ro1DcMcptCD9DlleatNXtPT42dLWmc8gNiygjFi1cRhmcy6RP1s1s7etzBI4qMAs3G2NeB3tK+lR7QeTDZ5iybXwBBGM1l0i/U32rtSLipUWAYUHDactkPfoeyHhDPxzpUVACslYlSvWcgdR9Wnqy3YV8QTs1kxnMAIvKOqg4DIuQfBK4OwGJ3iNchxBbOlepqeR/0oboa9wuVS8CdAFgulvq71dUHvFndMCu3gzExLWumgUcDvaNStfxanUqCiggnc5n08z64qjk9/UPHVPW19WhNdUm4iQII2kDQRAEEbSBoogCCNhA0UQBBGwiaKICgDQRNFEDQBoImCiBoAzVBNe9t5f9Tx0a+D2ggxNq0NbEDAl9V04YygOmpiZ+B/evRhvMW2AChDeDh/uQe13W3VNOFMoDu3qEBo+b8rLR8U00bygAkprsBEdU91bShDCCXSZ8EehXnkWraUI4CgOay6S/WIwxlD9gIoQ1gbzK5dT26UAaQGBh8orBgLifc1FQ1bSgD0AKPCWwBDlTThjIAY1Z+/LxuCdB12hp72fREAQRtIGgk4Q4eViUpIm3A/V79W4R/AFAeBZpALyBydq2GNhVKO8X1jSB86dW2AqU3wx9U9Vcx8pF0u6lF74n5f2TRWb14vQDmvH9t27tBdgMFkDM31oZ2ADHQP8H85qO3u0BagaaVuYCIeWsmM37Mr1Mk3NQI8Cown8uOd1XTr9HGZWA7yIe57PhRv7yVL6Gpx2SoJeGmZm/0WF+dVMABCkBM1fo6IojInKpC8WVkx820pap/+2Kq1J4l5r0iFZzi/SWtirT7eZL8UmEkHjd5izbfTDsGmV9e1jf98gUgou3eOsA/pLtvKC2ig8A8cXNP7tOxi36ebLPR2ftsq2PyP1FcE502Bo57+5rJ28nOg8m2AP3VlH1ucpdj8p/grYY32OMCkHCH3gY97OnmBN6z8KMgS0GZ9RNFbxHVexF5Bu95pMqJ7z5PH3EAdjL34qzeHkd4DmhReFm8Q8OAAIiUfZZ3F5oLL63sK5HoG+xH5BXgcRr3bzJrsaiqp4zIGzPZdLZUXHO+3HHo0PZt+VurzqcbgYX4FT0zOenrUBoRERERERERERHR4PwLm1QhmriRwzEAAAAASUVORK5CYII=;" vertex="1" parent="1">
          <mxGeometry x="290" y="390" width="64" height="64" as="geometry" />
        </mxCell>
        <mxCell id="vxvJLaRAeoQ-sSdQ6FoQ-10" value="" style="shape=image;verticalLabelPosition=bottom;labelBackgroundColor=default;verticalAlign=top;aspect=fixed;imageAspect=0;image=data:image/png,iVBORw0KGgoAAAANSUhEUgAAAEAAAABACAYAAACqaXHeAAAABHNCSVQICAgIfAhkiAAAAAlwSFlzAAAB2AAAAdgB+lymcgAAABl0RVh0U29mdHdhcmUAd3d3Lmlua3NjYXBlLm9yZ5vuPBoAAAYbSURBVHic7ZtbbBxXGcd/35lxajvpxRKoN5XeUGOkJpUwydoCqUWkjb1pygOd3aRNW0gLKEIiD8ATFG1pH1oJkAgSD1UvqnqJ7Y16SbA3ltM2gMDeNBZUqkS5q05pCapI3Lg4jXfOx8OunY293pn1zu4GeX/Sao/POfN9//n2XObMOYYmTZo0abJykVg8+WWUeJ3d/iWb6f8JoPX1W0JJrC85Dayut2MV2XBkuP9ovf0uxGXxzR8HPorYjwNcXZxhLGsi9rEs3BJ5x3Ou+dLEgb0fROHA8zxncto8Bdwbhb2oMUXpk4Xv9a5vD3Vt3f6Jao17nudMnjJPc/bmT5ar3wiKAqA/F+SZfJKb3Jx9tZogzP/ywj0ACG+CfL06udEzHwARY8djnTvngwDrlxuERc1eeDPnmE2iRNKtouTcMSCVsld53v2T00bIi1/v+vbQhs3b78aVmbBGJ0/5qeJfPueYTRMH9n7Q3bstSu2RsGgQTKfTPqnU17qzb6ui96HcZIx9C1uBVZn/nr/5aORGjymZm0ot7A6V839w81B6GsyTStnxVGpn9/jbL6pwWUVW1f7XbTn9Snb//lPVCqw1SwcA8kGA/bVwrKK3x/q23VAL2+GwOfX19fIBqC3faexSQBBHjpUeA1YOVzWsBajqXeq42Ub4Nprbjcq3IWgMAHri3jpfzS7JL2jCIQxnhwdeKSsC8/740At/D20zQrrj205oofsFBsCqPCJwR0UelCRwybLU1ZkQXcA8C7oWaAljUEFFZbBKXXUjMADZTP8+YF8dtDSElT4LNAOw4gMQ6jmg53bvypy2XBCmruNb23r6X+8ePnw4V520+hAYgFhf4kfWlwcNfiiDKjDTdumvgZurFVcPgruAmGsrNSpwzXLENILgLqDOt9DZEcS0hzNpc6h5rUpddSPEc8DzHwLP1UFLQ1jxs0AzAI0W0Ggqfh/w+Vu3XTHbYu8QlU5UXRUmrZHho0MDb9VCYK0JHYBbbvlq60zbzKM5dJeorAJABAEcy2OxeGLIGP3m2C/T/6yV2FoQqgv0eF7bTNvpUWA3sKqQfZL8TnIelS3Wlzd6NnufjlxlDQkVAP+U2QP6BQCE3xhrY9nMQEc2M3CZI841IjyZrymXqzEvdXV9I9S7g/OBwC7QvSX5GbXsBEA4lDt+cXxi4vHZufLfDb/wDvBArC/xHsiDCje2XDp1H/BElEK7tm5td3PtaQCzxt45lk6H3qorR2ALsL4mCvXU+HZX8c0Xk/v3JQ8D7wCo6vYoxBXTcqa9E4gDcaadzqjsBgZARNYVkn8cG0n/dal6ExOPzwqSKVy1PhJ1RYyPDPwe5Hug3x3L9P8hKruBXUBVV4sIwIdBdS12Kj8v1OT4i2Yz/T+O2mhgCzBG5qa1tUGDmzDfWo5VK6xeBM8CKqOFVIfzyamdS1XriXvrgNsAEEaXqne+ERiADqZeRvgHgAg/jfUmFp0p3BhP3uCreYl8l8r51u6JXmptCBwDMpnMx7EtiftRGQHaERna2Js4aIyMWuWMQT6nqkmgFQDRHx7NpP8UZLehu8OqXXPJUI/C2aHB17v7El9R5HngQhHpVaVXAD27w6uq+tCRzOCjIWU0bHe42Gvo1eB4ZvCAm5NORPeAvl9UNK0qgxi74cjBwYc4D46/hkWRX1W0GvztaP975NcDu7s2eRe77W5rdv/e40HXlXQeYnfYWP9vAIjuseL+7Jyyoh1ea5zrK/Xv+NZ+6kL/2LK3xycOpaeAqeVeH2Z3ONaXBEAwJ95YULd4h3dhWVjGab4QaQZgxQdAYn3JuVH7ROFTilmQHxS2yvPX9SafQeRaWuTOuYGwsHR+jiUPR2gbyOUAovLF8YP9h4tLN/YmPREe5uxZhOvKaOsofADmxoCFOgNxyf9vwOoFBkto1x0Uzgn0bPY6rLADVHTW9gAvA1hfekX0s0u7k/mUNUwvKhXdAbK2xIXltZ0N1Dk6w+CKyl0quqVsLSFnrfnF3J9jI+n/xPoSD4Bc/dEaHZ7LP9N6+ukLPl51BchF5d3qn48MD0wszPWNfN9R3kUrf1lbSmeTJk2aNGlSnv8BuJ4nJxkCi4YAAAAASUVORK5CYII=;" vertex="1" parent="1">
          <mxGeometry x="290" y="490" width="64" height="64" as="geometry" />
        </mxCell>
        <mxCell id="vxvJLaRAeoQ-sSdQ6FoQ-11" value="" style="shape=image;verticalLabelPosition=bottom;labelBackgroundColor=default;verticalAlign=top;aspect=fixed;imageAspect=0;image=data:image/png,iVBORw0KGgoAAAANSUhEUgAAAEAAAABACAYAAACqaXHeAAAABHNCSVQICAgIfAhkiAAAAAlwSFlzAAAB2AAAAdgB+lymcgAAABl0RVh0U29mdHdhcmUAd3d3Lmlua3NjYXBlLm9yZ5vuPBoAAAdsSURBVHic7Zt7bBTXFYe/c3dtY6BJUx4GRSGoJA2PKkAB75q0khFR7bUITVHXY5eQUDWkKar6rqoKVXIrtRU0UR8RjQSBRAkqXm+rpCDZhqBkJSTYNY+WFlqStiJFooohNCUxNti79/QPr3l1g2d2Z3etlu+fnbl7zzm/e3Rn5t65dwTvSKjRcTCsR/kEMCEPH35yETgiopuTnR0dXo3FU+22NhNOndyu6GNeA5WI51NdsS8C6tbAUwLCTc43VXma4QjnBF5W9F2PIn1FkDuAVcDkbNE3Ul2xn7u3d0k0Gg2c7pN/gkxFOBVIV4YP7H3prEe9RSG0srWGIZsEZgK9MybaO+PxeMaNbdBtkFP9Zk4ApgKoZaPXxtc1RGvVBJa5qZtRfe1Qd+yQW9+pXTt7wxFnk8KvgJq33gvOBk64sXWdgAprJ1kMABLQN93ajWCN2QVa46auEXqBaV78q9GT2OEOHTTpyaNUvxrLdQANXLlcJGNc32SuOmAvYF3UtNm6nrhW07VaR8N1DyiUVHfsUeDRUsVzi+se8L9KXj1ARV8PRRy/tRSEun/0X8etHpCXlchOVXvaZy0FIWJmoNrq1S6vBIhlS6q7I5GPbbEIN7bUq+A5Af/3l8CtBJRbQLm5lYByCyg3wVDECQssGTdQvTWReOFSuQWVmiCwW2HywPhLFthcbkGlxiDSDXrWWu0pt5hyEEx1tq8pZcC6hug9GQLTx1/O/D6RiPeVMnYuSjYdfmDlyg9lhqp/bWGFoAxUmwvhJueHd02wv3D7+qoYBOsiLQstdmHfRN1xIh4fLFagzND4TYquuKbodlWePt1nWmsbnMd79sSOFSv2jcyLRisnvB9YoyZzxGTQPSDbJr5vHi9mUEU/B4CwX0QdYOS12mIxHAo1tvy4vn7tuGJqGGHixcA6EX3OqOwxAlMAxMjUIse9AwDVRLKzo6N6oHq+iPwAGAQqEP1ef/XA8SWNLcuLrIORNoNMLdtAKJF44VKys73NiF2MSE9W2Cwj+mqo0XmxdvlnJ5VCR84EhCPN62ojzo5FDY9ML7aAg53xP6VqZ9eBfAnoAwRhjVRWHq9tdKKF+l/U8Mj02oizI9zk5LzEcybAIs8IrA7KUGmWwNrabKqrfYtm7P1w5Y3wNBE6QhHnqUJcBwODawVWq/JMrv9zJkCgCkCMlOSmNELP3vipVFesQeExkPPZ4m+FI80P5OtTMFXZw5xtGZOToZ6u2IuiLB45V5VPFSvWmExAJBKpUqPrR84VOVesWCUbCbolHGl+4F/IVpQ52aIzg+Mu/XY0u4yx1qhcOXYb74MSkAaCWJt266hQQpHVtyHpn6jyJFd75lEVWv/wyiv/Hs3eDuoxUyF/BtQO6tVRpbVpRGC4Tf9FzgQIukmR5Wk07rUh+RBqbG4S0s+qMiNbNCAim4Z6b/vRkSNbhtz4OLIvfgGYd2O52MBvNGBXKOzLZZczAcmujg3ABpf68ya0srWGQftThDVX1nWE/Rlr1x3uir/hR4yDe3eeBMIf9H/J7gEKaYEAyHhAQk3OWobsUwgfyVZ5F/Tbqc6O5/GwxaVQSvYUEOR49nB9KOIcR9kOw40XIW7Fzk11dWyngMaHm1pCdQ3RWi82JUuAqt3A8I2oGpibLT4jKp9JdsaaD3XG3y7Ef2jF5+9V1QPWmIN1DdF73NoZhXNZhb2FCBiNnu6OPSLySUR2AF2i+n0Izk12t+/yw39gMHBB4bzC+aDhws3qXmkzejaoYj8tmIVDvbfv8EPIzUh2tqeAVDF8H9j70tlFDz00E2D/7t39N6vbNyGzdeJF068ZOep6K8nw4qO+DiAqy5Ld7YlCBI8VxuRQuJSMuaFwvix4+OEPV12uOgBoesguzQ6MRqUoPWBJU3RauKH5QbxuxS2AisHK+4E5wFxTKfPd2hUlAUbNPjXyajjiPFkM/7kIWGNyHY+GL5dAfX19sL+65pci3AuAMnv4h++GmpxVfsS4gTer+3u/lkgkCp6s+ZKAgQlT5ovlyznGcHej3O1HjBt48FJVzTbgaKGOfElA9cVzxwbGTd2MkfsAUJYBAeAfCH/1I8Z1WH1j3OWzf/TDlS8JyHbFr4ychyLOcWCewMZkZ+xZP2IUi+I8BivMcjuoHz/U3f5aUfz7SFESkNq1sxco6tzCL/LdKtsajrSE/BZTCIp+NB+7fHvAE/nuzR1r3JoL5GM0FmeD185WvVDWHrCkKbpgSVN0QTk1lC0BSyPOLKPmsFFzeGnEmVUuHa4vAZGMajZfGrAFz/IyFaaPIfseoJkKU/BmKQ1YGfloSiTj+g7tugcMGTOyWosq93lSl4PhsUJwZrBiYGZ23FAQYmX2yHHaBt9xbee24nUfTsJbVJiwH8L94IYPJ99OhebcSVubq/VBT105FHG+Dvwse/oOyMsCf/ek1mcUZgGrQCcBCHw12RXLuRkiF16vZQlFnG3AFzzalQRVnuvpjj2Bh8WVgNcgZ/524nd3fWzeX0CmMPzBcqVXHz7TBxwA+U5Pd2yjV+P/AGltkM4jfZ9xAAAAAElFTkSuQmCC;" vertex="1" parent="1">
          <mxGeometry x="910" y="280" width="64" height="64" as="geometry" />
        </mxCell>
        <mxCell id="vxvJLaRAeoQ-sSdQ6FoQ-12" value="" style="shape=image;verticalLabelPosition=bottom;labelBackgroundColor=default;verticalAlign=top;aspect=fixed;imageAspect=0;image=data:image/png,iVBORw0KGgoAAAANSUhEUgAAAgAAAAIACAYAAAD0eNT6AAAACXBIWXMAAA7DAAAOwwHHb6hkAAAAGXRFWHRTb2Z0d2FyZQB3d3cuaW5rc2NhcGUub3Jnm+48GgAAIABJREFUeJzt3Xe4XWWZPv77WWvvffYpOelAQk5JaDIxoQVpFkAdkK+AMhN+o44zQgqMCA4WcCDBPTmh2EXUEQxNxDqoWBCwwFhoRkwBBSlp9JCenLLLen5/7IOGkHLKWu+zyv25rlx66dnreeBkr/d+3/WutQRElBm6prQ/NDgXGpwEyOT+//lpiNwNBP8j7QufMm2QiJwR6waIKHqqEKy+7JOAXgIgv4sfK0N1IToWLhSBuuyPiNxjACDKAF017zpA5gzsp+Va6VhwbrQdEZE1BgCilNOV88+G4PrBfUo+IB0Lbo6mIyKKAwYAohTTJ85vQGHUCgATBvnRZ7HVnyJTS+Uo+iIie551A0QUofzoEzH4wR8A9sWI6vEhd0NEMcIAQJRmgqOG/FnFMSF2QkQxwwBAlG77DP2jMozPElHcMQAQpZkEuaF/Vnd1uyARpQADABERUQYxABAREWUQAwAREVEGMQAQERFlEAMAERFRBjEAEBERZRADABERUQYxABAREWUQAwAREVEGMQAQERFlEAMAERFRBjEAEBERZRADABERUQYxABAREWUQAwAREVEGMQAQERFlEAMAERFRBjEAEBERZRADABERUQYxABAREWUQAwAREVEGMQAQERFlEAMAERFRBjEAEBERZRADABERUQYxABAREWUQAwAREVEGMQAQERFlEAMAERFRBjEAEBERZRADAFGqSY/NZ4ko7hgAiNJM9ZkhfzbQ1SF2QkQxwwBAlGaivxrGh38ZXiNEFDcMAERp1nb5HwH8cfAflIfQ0bUk9H6IKDYYAIhSTAQKDS4AUBnEx8rw9AIRaFR9EZE9BgCilJPOy+8DZA6A6gB+vArIbGnrejDitojIGAMAUQZIx4KboXoSgMd382OPIdC3S8eCW1z1RUR2xLoBInJHtZTD6urJEDkJis76/yoroLgLHd5dIqWBrBIQERERERERERERERERERERERERERERERERERERERERERERERERERERERERERERERERERERERHfBpgg+mRpL+Rr5wFyCqAHAChAsQaQX8H3viZtpWXWPRJRuumK0qHwaucAeCuASQDKAP4KyB2oeF+V/UsvmTZIA8YAkBC6cv7ZEFwNoGUXPxJA8TVs8y+UqaWyy96IKP300VIBLbWrAZyDXY8dWyFygbQvuNFhazREDAAJoCvnfRwinx7gj/8Kef80mVjqjrQpIsoMfa7UhErtx6jP+gfwAb1IOhd+JtquaLgYAGJOV152AkR/CcAbxMd+jbx/KkMAEQ1X/+D/EwAnDuJjATycKG1d/xdVXzR8gxlUyILopzD439OJqNR+os+VmqJoiYiyYYiDPwB4ULkqip4oPFwBiDF9et5B8OWxYRzit2j0T5G9SltDa4qIMmHQy/474+mB0rbwifC6ojBxBSDOcnLMMI/wJvTUbudKABENxnYz/6EP/gAQDPscRhFiAIizAONCOAovBxDRgA1j2X8nB9Pxw++IosIAEGeCzSEd6URUanfqS6Vd3UJIRLT9sv/wB38AgLcxnONQFBgA4szD0hCPxssBRLRLoS37b89TPpwsxrgJMMZUSx5W154G0BHiYXmLYIboPaUcxr44AgBQ7WtEDkUAQM1vha8+AEBQgQb1jaLibYPmy6j1qBx2E2dvGRHqsv/frUR71xQRaIjHpBAxAMRc/xMArw/5sAwBCaaL5+aRDyYBmAzVTgCTIDIWirEQjAUwDtBxgIwFMGJ41aQCkV6I1wtIGXl/LZBbhVzDEyjk/4zAWwn1VqATz4iUqsP+hyPnIhr8AcgHpGPBzeEek8LEABBzqhCsmncrRN4T8qF5i2DM6cOzOuB50yDBNEAOAtDZ/2cSAD+6ygL4OcDP1//T8wGv/z9ll6eMKoA1AFZAsBKKxyGyFFJ7RNoufza6Xmk4QrnVb+duQ3vXTM7+440BIAH6n8F9G4B3hnxohoAYqM/ocThUD4PodECnATINwMjIi3se4Bf6B/s84PcP9uFaD8EyAI9AZRk8fQCT/EdFSkHYhWjgIhz870bgny6TS70hH5dCxgCQEAwB6aEPvK8VTU1vgOobARwH4FgA0W/OFABe/0CfK/x9hm9jM4AHAL0PgvvRl3tADiiFddcL7UF0y/4c/JOEASBBGAKSSR/9YAuqlRMBPRnA8QBeB1ffPT8H5Br+/ie+3/gA0CWA3A2Vu7HN+z3fahkNDv70ivieDminGAKSQZfNnQYNTgZwMoA3Aig4KSwekH9lwC/Ur9sn0zYA9wJ6F/zcXTKp9FfrhtKAgz9tjwEggRgC4ke15GH5mjcikDMhOB31jXpueB6QL9b/+LGe5Q/HowBug+ffJm0l3ls+BBz8aUfpPFVkAEOAPdWShyVrjoEnZwL4ZwATnRX3/P5BvxHI5Z2VjYknANwGCW6T9ssXWzeTBBz8aWcYABKMIcCGLps7DYGeBdGZcDnTF6kP+oXG+hI/AcBjgN4Eyd0i7aXnrJuJIw7+tCsMAAnHEOCGrvhAEVv8U6EyF8DbnBb380BDU33g51d2VwIAvwZwC/L+//IhV3Uc/Gl3eDZJAYaA6OiSWW+AYDYg/4JhP1VvEESAQhNQaK7fm0+DsR6KmyD+V6Sj9LR1M1Y4+NOeMACkBENAeHTx3DwKtZlQ+QiAI5wW93JAQ3N9tr/rp+7RwPSvCsiX0L7gp1l6Kh0HfxoInmFShCFgeHTx3JHI1+YAcgGANqfFcw31gT/Pa/sReRTAl+BtvUXavtBj3UyUOPjTQDEApIyuKBUhtR9CcHLIh/41tvrvSOPDWXTx3AnIB+cAuADAaKfF8w1AcUT9Oj+58CJUP4em3P+kMdD2TwJ+jrAHf8WdUP/dHPzThQEghaILAXKtdCw4N9xj2tHlZ7Uh8D8G4BwAbqfe+UagsSWK5+7TwKwD5MtA+WrpuGqDdTNh0VXzrgNkTrgH5eCfVgwAKRXR5QCFFxwtbZc/FOIxndOHz54Iz7ukvrnP4cAvAPJNQLElyU/oS5uNELkGNe/zMrm00bqZ4dDVl86Aeg8h3PM6l/1TzLNugKIhU0tlBP5MKO4M87BQ75wQj+eULp47TpfMugq+9yQE58Hl4J8rAC3jgaaRHPzjZRRU58OrPaWr5l2sK0pF64aGTL3zEObgr7iTg3+6cQUg5UK/HCBYLe1dHaEcyxFdPLcJ+eDjAD4OoNlp8VweaBzJa/zJsQbAQrQ/dr3I92vWzQyGrpr/DIB9wzkYl/2zgAEgA0IOATW0P9aQhJOjKgTLZ70HKlfB9a5+Lwc0jqg/uY+S6E+AXCwdC35h3chAqJZyWF3rQxiruhz8M4MBICNC3BNQRntXMe73VOuy2UdA9YuAvNFpYZH67XxFd88MoggJfoCKf6HsV1pt3cruqEKwen4fgOEuNfGaf4ZwD0BGhLgn4Ok4D/66fPbeunT2zVD8wfngn28ERozn4J8mijOQq/1FV11W0ifOj+1DGvq/kyuHdRBe888cBoAMkcmlXqj/7mGFAMUdIbYUKl02ayYCPALg3+BydcvLAc1jgOZR3OCXTk2AfhKFUct1zbywn68RIhn6d5PL/pnESwAZNIzLAWXAPzhuz1fX5XP3QxBcC+CtTgsLgEJL/Vo/ZYjeCr/2YZl05TrrTranK0qd8GqPAygM8qNc9s8orgBk0JAvBygujdPgr/eUcrp0zocRBEvgevD380DLOA7+mSTvQy33qK6cd4Z1J9uTyaWVAOYP6kNc9s80rgBkmK4oFeHVbgZw5gB+/NPS0XVx1D0NlC6ffTAC3ALXL+sB6g/yKbaAXx8C8H3k/Q/KxNLL1o28Qldd9mlAPz6AH/0eAv/fOfhnF89gGVffPXzZbEBLACbu5Ef+AtFPSPvCHztubadUIVg25z8A/SyARqfF/RzQNIr39NOOngfkHOlY8BPrRl6hqy87HapXAXjdTv7vZ6EooaPr+jhv6KXoMQAQgP77iJ+pHYdADwUwCoqXIfIA2rsejstJQh8+azx8bxEgpzkvXmgCGlv5il7aNcVXof5H4zKj7r818HCoHg3BOAAbIfontP3190l4jgdFj2czSgRdPvvtCHATdr5KER3x6gN/we1iAyXWn+HhX6Sta7l1I0R7wgBAsaaL5+aRr30GkAvg+u+rX+CtfTQUPYD+l3QsvNq6EaLdYQCg2NLFcycgH3wfwHHOizc0A8VWfkNo6ATfQtE/R/YqbbVuhWhneHqjWNIlc98IL/geFBOcFhapb/TjM/wpHMsh+m5pX/iUdSNEO+JzACh2dNnsuZDgV84Hf8+v39vPwZ/CMw0qD+nqef9o3QjRjrgCQLGh913YiOYtiwC813nxfEN95i/MxBSJGqCXon3hp+NyVw0RAwDFQv0WP//HAI52Xryhpf4CH34bKGqCb6Hmz4rLrYKUbTzlkTl9dNb+qMrPABzotLAAaBxZv8efyBn5HTzvdGkrrbfuhLKNAYBM6fI5xyLQHwEY77ayAM0j66/wJXLvKXj6Dmlb+IR1I5RdvOBJZuqv79VfwfXgLx7QMoaDP1naD4H8RlfNd/8uC6J+DABkQpfM/ihUvgvA7Zb7V3b65wb7xlSi0O0D4P901bzBvpabKBQMAOScLptzMQSfhetLUF4OaBkL+HyyH8VGMyA/0NXz/8W6EcoeBgBySpfNXtD/ljK3/Hx98OdjfSl+8lB8U1fOP9u6EcoWbgIkJ+qv8Z31BUA+7Ly4n69f8+c9/hRvCuiHpWPhNdaNUDYwAFDk9HszfRzYuggiH3BePFcAmkdz8KekUIh+VNoXfsG6EUo/nhUpUqolDweNvN5u8OfMnxJFoPJ5XTX/IutGKP14ZqTI1Jf911wD4N+dF8+9suzPRS5KpE/pyvkfsm6C0o0BgKKzdNaVgHzQeV0/X5/58woXJZngS7py/mzrNii9eIakSOjS2SUAn3Re+JVb/TxmW0qFGkTeJ+0LvmvdCKUPAwCFTpfO+hggn3Fe2PN5qx+lUQUq75bOBT+zboTShQGAQqVLZr0fIjfD9d8tEWDEuPoKAFH69EDxVunsut+6EUoPBgAKjS6b9Wao3A2gwXnxljFAzn1ZImcUa+HpMdK+8CnrVigdGAAoFLps7uugwX0ARjsv3jQKKPDFPpQJT6FQPUYmXLnWuhFKPu6UomHTxXPHIQh+AovBv3EEB3/Kkv1Qzt2mT5zP5S4aNgYAGha978JG5IMfQ7C/8+KFJqChxXlZImNvQmHUN1S5gkvDwwBAQ6YKQfOWGwEc47x4rgA0jXReligmzsSqefOsm6BkY4KkIdMlsz/a/1pft8Tv3/HP/EqZFkD1VOlceId1I5RMDAA0JLrk7BMg3t0A3N931zK2vgJARBvg+W+QttKT1o1Q8nAKRYOmi+dOgOfdCovBv2kkB3+ivxuNoPYDfeFjzdaNUPIwANCg6OK5eeSD70MxwXnxfGN94x8RbW8ayo3cFEiDxgBAg5OvfRHAcc7r+vn6/f5E9FqKM7Bq/nnWbVCyMDHSgOmy2adD8SOT4q3jAC9vUpooIXrh4Q3S1rXcuhFKBgYAGhBdeu5eQHUZgL2dF28cCTRw6Z9oAP6MvH+kTCx1WzdC8cdLALRH9WuL1RthMfjnGzj4Ew3cP6Bcc/8mTkokBgDas2WzPwzgFOd1xePDfogGS/BBXX3Z6dZtUPzxEgDtli6bOw0aPASg6Lw43/A3ZNpdRfW5bujWCuAL/DFF+Ps0Aj6/8hmxDoH/eplcesG6EYovvjyddkkXz81Dg2/CYvAvNHHwHwLtraLvvpdQeWozELz6/5MGD4XpY1E4dCzX/tJvLLzadQBOs26E4ounAdq1gl4MYLrzuuLX3/JHgxJsrmDbbStReeK1gz8AaF+Avj+sRfdPVkHLO/kBSptTddVlM62boPjieiDtlC6ZcyBEl8Ji9t88Gsi7L5toNcW2/12BYGN5QD+e62hB40mTeAZIv5dR8afK/qWXrBuh+OEKAL2GasmD6CJYDP75Rg7+Q1BevmHAgz8AVFdtRXXNtgg7opgYh3z189ZNUDwxANBrLX12LoA3Oa8rHtDU6rxs0mklQHnpukF/rvL4xgi6ofiR9+mqee+07oLihwGAXkUXz50A0StNihdH1EMADUpl+QZob23Qn6u91BtBNxRP8lW+MIh2xLMtvVoh+CIA9w/d9/N80c8QaCVAefn6oX22uxJyNxRjbehr+rh1ExQvDAD0N7p8zrFQ2OwabmzlhrQhGOrsH8BO7xSgNNOLdeW8ydZdUHwwABCA/o1/gV4Ni2G40AjkCs7LJp1WApQfGdrsnzKpCAg3BNLfMABQ3bJnzgIww31hqV/7p0GrLN8A7Rni7J+ySfAuXXnZO6zboHhgACDoY2ePALDQpHjjCMDzTUonGWf/NGSiX9DFc/lubWIAIAC9cimAfZzX9XygwI3JQ8HZPw3DQdhr71nWTZA9BoCM0+VntUHkwybFiy3c+DcEw9n5TwQAUFymz5V4203GMQBkneYuhcUT//wckOf5Zygqy9cPfec/Ud0EVGoXWDdBthgAMkwfntUB1bNMihdHcPY/BPXZ/wbrNigdLtY1pTHWTZAdBoAs8+STANzff+fn+bz/IeLsn0I0CkFwkXUTZIcBIKP0T+ccAMH7TYoXW0zKJh1n/xQ+PV+fvmRv6y7IBgNAVvm1ywDknNf1OPsfKs7+KQJN8HM2m4DJHANABumSOQdC8R6T4kXe9jcUnP1TdPQ8XVFy//4PMscAkEUePgLA/dN3PB/INzovmwac/VOEWuHXPmjdBLnHAJAx+vBZ46H6bybFed//kHD2T5FTfISvC84eBoCs8f0PAnA/Dfc8vu53iDj7JwfGoq94tnUT5BYDQIboig8UAdgs9fGRv0PC2T+5Ix9RnckXc2QIA0CWbMm/H8BeJrUbOPsfCs7+yaFOrDn4ndZNkDsMABmhCoHqhSbFC02A8K/aYGklQHkZZ//kkOp51i2QOzwrZ8XSs48HcLBJbV77H5LK8vXQPs7+yam36dPzDrJugtxgAMgK8eaY1PXzQI6vHh8szv7JiMAX3hKYEQwAGaCPzhoD4N0mxRu4+W8oOPsnQ2fpE6VW6yYoegwAWVD13g+LV/6Kxwf/DAFn/2RsBArB/2fdBEWPASALFDav/M0X+eCfIags38DZPxlTmxeFkVMMACmny84+BqKHmBQvcPY/WPXZ/3rrNojeqKvn7WfdBEWLASDtVGxm/54P5AompZOMs3+KCYHiX62boGgxAKSYLp6bB+QMk+Kc/Q8aZ/8UL/J+VV7ESzMGgDQr6NsAjLWpzQAwWJz9U8zsh9Xzj7VugqLDAJBmgc40qZvLA17OpHRScfZPsaTyPusWKDoMACmli+fmITjdpHjO/R2HScfZP8WS6BmqJY4TKcVfbFr5tX8EMMakdoEBYDA4+6cY2xurKkdbN0HRYABIK0/ONKnr57j8P0ic/VOsif8u6xYoGgwAKaTfm+kDsHmtZ67BpGxScfZP8acMACnFAJBGB486ClbL/3z076Bw9k8JcICuLr3eugkKHwNAGqmebFLX8/jmv0Hg7J8SI6hxFSCFGADSySYAcPf/oHD2T4khcpJ1CxQ+BoCU0cVzx0FxhElxzv4HjLN/ShY9mq8ITh8GgLTJBSfD6vfKFYAB4+yfEiaHQvXN1k1QuBgA0saDzVKdn6/vAaA94uyfkkneat0BhYtn7LRRHG9Sl2/+G7DKsvWc/VMC6dusO6BwMQCkiP7p3E4Ak0yK8/7/AdFKgPLyDdZtEA2BTNWVl0yw7oLCwwCQJn7F7s1dXAEYEM7+KcEEnv8W6yYoPAwAaaI4zqSulwOErw3fE87+KfEUR1m3QOFhAEgT9WwCAG//GxDO/ikFGABShAEgJfSxs0dA1OZxnT6X//eEs39KicP1ifO54SclGADSouwfBcA3qc0VgD3i7J9SogENo6ZbN0HhYABIi0Bn2BSW+iuAaZc4+6dUCXgZIC0YANLDaPk/B4AbAHeHs39KFWEASAsGgLQQHGJS1+fy/+5w9k+po8pLACnBAJAC+ujMAoADTYpz+X+3OPun1BE5SLXEL34KMACkQTDydQBstuJzBWCXOPunlGrAiup+1k3Q8DEApEENdktyHicCu8LZP6WW5/2DdQs0fAwAqSDTbMoK3wC4C5z9U7rpVOsOaPh49k4D0YNM6vL6/y5x9k8pxwCQAgwAaaDSaVLX4/X/ndEyZ/+Uch4Otm6Bho8BIA1EO03q+jYPHoy7ynLO/inlFB3WLdDwMQAknC77j9EARpoUFwaAHdVn/+ut2yCK2ih9otRq3QQNDwNA0mltslltjwFgR/XZf2DdxsCpdQOUWA1ot26BhocBIOk06DSrzTsAXiWJs39eqqAhCwJeBkg4nsETTzrNSnMF4FUSN/sHEKzvs26BkspTBoCEYwBIvkkmVT0ffAnQ3yVx9g8AlSc3W7dASaXCSwAJxwCQdIJxNnX5V2d7SZz9A0Dl8U0INpWt26BE0n2tO6Dh4Vk88QKbAMDr/3+T1Nk/ACBQ9Nz1LPcC0OAJxlq3QMPDs3jSidgEAP7V+Zukzv5fEWzoQ/cPV6H2Yo91K5QkAcZYt0DDk5pnueqqT4wGiqPtGqgqCrkXZWKp221doxTOSwAAEj77306wqYzu21ch19aMXMcIeKMLQC5Zv2PxBNKSgzRwc6oT4j4A6Asfa0ZvcS9IznADUu8G6bgqFY/6THQA0BWlQ+HVPgrg/wEYDRguY4oAlRp01fxVUNwG1D4rnVc876CyTQDgJQAAyZ/9v4oC1dXbUF29zbqTYZHmHPIHjUJh2mhIkWEgQk4CgK4uTUQQfAyiZ6APHfW9x5aXrPLQVfPXA/ozeLnPSltpmWEzw5LIbdyqJQ+ra5cDuAjxXYveBpE50r7g21EV0MVz88gHfbD4PTa2Ag3NzsvGiZYDbLv1KWiZ18/jSFpyaHzbvvD3brRuJa0CtPt5kVJkCVhXXvY+iF4HoCmqGsMUQHEVOvz5Uf57iEpcB8/dW137CoBPIN79N0P1Vl112b9HViHvjYZViOMlgPrsn4N/bOnWKnp+voZ3OUTHwzMYFdXBdfVlZ0H0FsR38AcAD4JLsCb4knUjQ5G4s7iumn8mgHOt+xggAfRaXVPaP5Kj54JiJMcdCEnk4lFotBygvCwVlwFTTfsC9P7fC9ZtpFelMiKKw+qaeQdA9X+QlFVq1fN05bwzrNsYrEQFAFUIFF3WfQxSA4La/EiOXJaGSI5Le8TZf3LUnu/mHQ5RyUshkuMGchmAZJ3fRK6wbmGwEhUAsKp0GAQHWrcxBO/SJ84P/y+zV7X7gmR4BSAtO/+zpPas25tzMiMIPwD0nytPD/u4DhykK0qHWjcxGMkKAKgdbt3BELWiMHa/8A/rR5O+ByS7ASBVO/8zItjIdx5EQhH+Oag46kAAkVxaiJwfHGbdwmAkLACo3X3+wyWVCB7YE9gFgIyuAHD2n1D5hJ3qkkKD8FchNUjueT4wejLrECXsWyHrrDsYslr+pdCPKWq4ApBNnP0nkzcib91COvkRrACol9zzvHjhn+cjlKwA4PuLrVsYok3oxtOhH1W4CdAlzv6TKzel1bqFdNIINgGuffGvADaGflwnNFFjVKICQP8Tl/5s3cegCW6TqaXwb0auBYbr8Nm7BMDZfzLl2prhtXIFIBIS/hgiM66rAPhR2MeNnj4iHV2PWncxGIkKAAAAkUusWxikblSDBZEcWcTwPjS1K22As//kKhzGl9ZFJvAqkRxXdQGAZN27qd4nrFsYrMQFAGlfcDsUn7fuY4ACAGfJlMtXRXJ08aqRHJdeo7yMs/8kyrU1w58Q5wfJJZzUIgkA0rlwBQRnIykzDcFnpXPBz6zbGKzEBQAAQEfXx6CYDyDOA+BGiJwhHV3fi6xCLYjzP39qaDlA5RHO/pOIs/+IeRGtAACQ9q7vQOWfAGyKqkYIKoBegraui6wbGYpEBgARqHR2LURNXw/ItQCese6pXwDgzxAshF/dX9oX3B5pNUFkX749SkYuDwVn/8mUm8TZf+SCaCdh0rngh8j7+0PlcgB/QXzOPM8Aci18//XSsfBKkdj0NSip2cmlK0pFeL22r/1au35r/wYWJ/SRsw9BzVviqt6rtIwFcum/C1HLAbZ960kGgARqOq2dASBq4k+T9tIjrsrp4rl5jB/T4qreTgXFHplc6jXtISQ56wbC0v8LScUvZcACbDGrrdkYEDn7TyZ/3yYO/i5UsNlluf4JFt/CFZJEXgKgflU1DACJXPEaFF77T66GI8Zbt5ANntsAQOFiAEiyES2GX770z4o5+0+m+uzf9mpgZnRiq3ULNHQMAAkmB1zTByD8BwwNRJDuFQDO/pOLs39nukVKvBMpwRgAks/mkZkpvwTA2X8y+fs2c/bvTpxvz6MBYABIPpuXT6jhQwijVlPO/hOq4Qje9++OvmjdAQ0PA0Dy2XwJg/TOjqurtnD2n0D+RO78d0sYABKOASD5jFYA0jtA1p5P1iPIqa5hBq/9u6WJevUtvRYDQPLZpPAUBwDtTe8/W1rVZ/+89u+UcAUg6RgAkk7kBZO6Kb4EIEV+LZKm4Yhx1i1kT2A0+aDQ8EyXdKqrjQqnNgR444vWLdAg+BOa4E/ktX/nRKJ5yyk5wwCQdJ7hl1DTeQtwbsoISNG3boMGqGEGZ/8mvBoDQMIxACRdpbbSrHYtnbcCSs7jhrKE8Cdy9m+mL7/SugUaHgaApDvshudh9RKkIJ0BAADyU0chP3WUdRu0B5z9m+nBfqW11k3Q8DAAJFz/e6htluJSHAAAoPjGfVB88z6QYmpempkqvO/f1Mr+cw8lGM9sqaCPA3KQ87JBOvcAbC9/8CjkDxyJ6uqtqK3rg3bv8M+s9fcGxEK1Bq3t5JxcUwSbytCedAU27vw3JPiLdQs0fAz/xNkeAAAgAElEQVQAaaD4CwSnOa+bgQAAAPAFuckjkJs8wrqToVOg9mIPyg+/jOqabdbdDJs/oZHX/i0FwgCQArwEkAZWaTwIUnsrYOoI4O/TiMZT2tBwzF6AWDc0PNykaY4BIAUYAFLBf8ysdMr3AaRRYfoYFA5P7vI5Z/9x4DEApAADQBr0bPsLYLQhJ6iYlKXhaTh8HLzRDdZtDAln/+ZqKG593LoJGj4GgBSQo2/dDOiTJsVrDACJ5AGFqaOtuxg0PvUvFh6XfT6b/I0kxACQHvKwSVkGgMTyJyVvIG04Yqx1CwTYnGsodAwAaSHyJ5O61YzcCZBCXnPeuoVB8fdphL9vs3UbJLA511DoGADSIqgZfSkVqDEEJFIuWbcC8Kl/MVFTrgCkBANAWjRU/wirjYDVsklZyg5/b87+YyJAUOEKQEowAKSEHPyNdQBsduZyHwBFrOFI7vyPBdVHZL9PbbJug8LBAJAuvzOpyhUAilB99p+8DYvp5P3eugMKDwNAmojYfDmDKp8ISJHh7D9WGABShAEgTWqG6bzGVQAKH2f/MRPUbFYZKRIMAGly6LVPQvC8Se0q9wFQ+Arc+R8na2TK5TavHqdIMACkiAgUKr80KV7tMylL6eXv3YjcJO78jw3BL6xboHAxAKSNBjZf0loFUL4YiMJTOIKz/3gxmlxQZBgA0iZf+wX4PABKOH/vRuTaOPuPEUXNu8e6CQoXA0DKyNSbXgDwqEnxCi8DUDg4+48bXSqTSy9Yd0HhYgBII5U7TOpWuAJAw+fvVeTsP3a8n1t3QOFjAEgjDX5sU7fGuwFo2AozeN9/7Hh6u3ULFD4GgDQ6tO1+AC+a1K72mpSldODsP5ZexCT/D9ZNUPgYAFJIpBRAYXQZgPsAaOgKR3D2H0O3i5T4qM8UYgBIK09tLgPUKvVHAxMNkj+es/9YUrE5l1DkGADSakTtTgA2b+3iKgANQWHGeECsu6AdbERlA+//TykGgJSSyTf1AkbJvdxjUpaSi7P/mBK9TQ64hok+pRgA0kz0OyZ1a5X6H6IBKhw5jrP/OFLvu9YtUHQYANKs7P0CwDqT2hXeDUAD448vIjepxboN2pFiLdr59L80YwBIMZlxXQXA902KV3gZgAaG1/5jysN3RUrc0ZtiDACp591kUrbGhwLRnvHaf4wFuMG6BYoWA0DKySHXPQhgmUnxcrdJWUoOzv5jSnWZdHb9yboNihYDQBYovmFSt9IDqxcTUvxx9h9jgkXWLVD0GACyQHK3AHC/Hq/KWwJplwozuPM/psrI575t3QRFjwEgA+SQr70EwQ9NivfxMgC9lj+uiFwbd/7Hk35XJpZetu6CoscAkBWKL5vUrVW4GZBeg7P/GPPkK9YtkBsMABkhhyz6LYA/mhTnZkDajj+uiFw7Z//xpA9LW9eD1l2QGwwAmaJfMylb7gGULxOjOs7+48z7knUH5A4DQJZU/G/B5MmAylUAAsDZf8y9hICP/s0SBoAMkRnXdQNGewF6t/GOQOLsP85EvySTS3yGd4YwAGRNoXwNgG3O62rAVYCM8zj7j7Nt8Go2lwjJDANAxsjB31gHlRtNivdxFSDLGo7g7D+2RL4mk660eXEYmWEAyCLRzwNw/5KPoMq3BGaUN66IXAdn/zFVhud90boJco8BIIPkkEUrANxqUrxvq0lZssXZf6zdJJNKz1g3Qe4xAGSV53XB4vHAtQpXATKGs/9Yq0D1KusmyAYDQEbJtOuegsgtJsV7t5iUJRsNR4zl7D+uVBZJ58IV1m2QDQaALKsGCwCUndetVfmSoIzwxhaR6xhh3QbtXBlB7VPWTZAdBoAMk8OvXwXgBpPivVt5R0AG8Np/rH1Nply+yroJssMAkHm5T0Jks/OyQZXPBUg5b2wRuU5e+4+pLaj4l1s3QbYYADJODvnaSwiCz5kU793CdwSkGGf/sXaF7F96yboJssUAQEB362cAuL8NSIP6w4EodbwxDZz9x9ezyPt86Q8xABAgx36hB9D/Ninetw0IaialKToNR3L2H2OXyMQSr78RAwD1m952A4CHnNdVBXp4W2CaeGMauPM/vv6Adv+b1k1QPDAAEABApBTAC84D4P6ifKUHqLq/G5Gi0cA3/sVVAC/4kEiJG28IAAMAbUem3bAYIjeZFO/ZZFKWwlW/9s/ZfzzJ16XtcverfBRbDAD0atXqJwBscF63VgX6eFky6Tj7j631yHvzrJugeGEAoFeRw29cC+DjJsV7NnNDYIJ5ozn7jy/5iEwsvWzdBcULAwC91vRFNwD4pfvCCnTzUkBSced/bN2D9gXfsG6C4ocBgF5DBApgLgD3N+lX+/iegATi7D+2uiE6p/87TfQqDAC0U3LIohUQ6TIp3rOZTwhMGF77jynBfGlf+JR1GxRPDAC0a9P2/QyA3zqvqwEvBSSIN7oBucmc/cfQ79H22NXWTVB8MQDQLomUAkjwAQBbnRev9PJSQEJw9h9L2+D5HxD5PnfV0i4xANBuyfQbngZwkUlx3hUQe5z9x5VcKG2lJ627oHhjAKA9m77oawDudF5XAz4gKOYaZozl7D9+7kD7gkXWTVD8MQDQHtV3EOf+HYLnnRev9AG9fGNgHNVn/63WbdCrvYjAn8Vd/zQQDAA0IHLI115CELwPgPs1+d7NQI3vCoibhiN47T9mAkD/VSaXXrBuhJKBAYAGTA694R5APm1SfOvG+psDKVy5oY3g3ugG5Kbw2n+8SJd0LDR4gBclFQMADc76fS8D9HfO62qNtwZGwGvJD+lznP3HjOBetP/F5rkdlFgMADQockKpCk/+GcCzzotXeoA+7gcIk79v06A/w9l/7DyPoPZe3vJHg8UAQIMm0xa9CAlmAnB/Yb53c31jIIWiMHU04A1uKt/wBs7+Y6QCYKZ0XuF+gy4lHgMADYlMv+F+QC50XlgBdG/k8wFC4o1uQMMRYwf88/n9W/nM/3j5kHR0/d66CUomBgAaMjnk61+FyA3OC2sAbNsA3ugUjsLh41AYwDX93JQRKB4/wU1TNBDXSUfXddZNUHLlrBughCvLuchrJ4ATndatVYDuDUDzaKdl06phxjjkOlpQXrIO1dVbgWp/uhLA36sRhWmjkZvSyqX/2JDfYKt3vnUXlGz8OtOw6aOzxqAq9wM40HnxYgtQ5JJ0qAIg2FIGqgppzUPyXCiMmceByjHScdUG60Yo2RgAKBS67OwpUO9BAOOcF28aCRQGv5udKIHWwdNjpG3hE9aNUPIx2lMo+l8adAaAXufFuzcDVT4pkFKvGxqcxsGfwsIAQKGRQxb9FtAzAVTdVlZg6/r6vgCidKpB5V+l8/L7rBuh9GAAoFDJIdf/BCIfdF9ZgW3rgcBx9iCKnkLlHOlc8EPrRihdGAAodDL961+HyHznhYMA2Lqh/p9E6XGJdC643roJSh8GAIqETP/6QkCudF44qAJb19XfHUCUdIKF0tF1lXUblE68C4AipUtnfxrAx50X9vNAyxhAmHEpsb4oHV3un7ZJmcEAQJFShWDZ7K8A+A/nxf080DIWEP41p8RZhPauuSJ83iVFh9MjipQIFNMnfQgK948srVX6LwdwTwAliOKrHPzJBU6NyAlVCJbO+RxE3S9p+nmgeQzgMe9SzIl8BW0LzufgTy7wjEhOiEDl0K9/BCILnBd/ZSWAbxCkWJNPSfuCD3HwJ1e4AkDO6ZLZ8yFwHwS8XH1joOc7L020W6LzpH3h5dZtULYwAJAJXTbnA1D9Oly/kdLz+kNA3mlZol2oAXqedCy81roRyh4GADKjS+ecBuh3ADQ6LSxe/TXCuYLTskQ76AP0X6Vj4f9aN0LZxABApnTp7DcBuB3AaKeFBUDTaCBfdFqWqN86AKdLR9fvrRuh7GIAIHP66Kz9UZWfAjjIefFiC1Ac4bwsZdqTCPxTZXLpMetGKNsYACgW9NFZY1D1/hfQE5wXLzQBTSOdl6VM+j0K1XfLhCvXWjdCxNsAKRZk6vXrkdt4MlRvcl683F1/nbDy7iuKkOj1WPviCRz8KS64AkAAAF1RKiJXPR4qh0OlFRqsgycPoO2x+0S+7/QGel02ey4U1wBwu0vP8+ubA33eIUChqgI6TzoWfsplUdWZPtYceBwCOQrijYXoZog+jGruXplc6nXZC8UTA0DGqZY8rKl+GCqXABi3kx9ZAZFLpX3Bt5329adZx8GX70MxwWVdQOqXAwpub0yg1HoOGsyUzsvvc1lUV85/LwSXA+h87f+JtRBcgXb/SyIlPic7wxgAMkyfKzWhUvsOgFP3+MOCL6Ot6wKXTynTh8+eCN/7HoDjXNX8m4ZmoLHVeVlKld8i8M+UyaUXXBVUhWDNZddA9bwB/PiPkfffIxNL3ZE3RrHEPQAZ1T/4/xQDGfwBQPEhrJo3L9quXk0Ov+E5rJ90PID/BuB2ptK3Ddj6Mh8fTEOhAL6EtS++1eXgDwBYPX/+AAd/ADgNldpP9blSU6Q9UWxxBSCD+gf/nwA4cZAfrcDz/0HaSk9G0dfu6NLZJ0LwTeeXBMQDGkcCBT4vgAZAsRa+/pu0LbzTeek18w5AIH/G4J+u+Vs0+qfIXqWtUfRF8cUVgIzZbuY/2MEfAPIIaueH3dNAyCGLfo2ydwSAXzotrAHQvQHo2QS+ooX24BdQf7rF4A8AUO/DGNqjtd+EntqPuRKQPQwAGbLd4D+ce+3fEVY/gyUzrnse0xf9IwTnANjmtHhfN7DlJaBadlqWEqEH0E+g3T/Z+ZL/9lSH8908gZcDsoeXADJiGMv+O6qg3S9a7x7WZWdPgcrNgLzRaWEBUGgGGkeAXx8C5CHUgn+TKQsft+xCteRhda0Pw3+5Fi8HZAhXADJgmMv+O4rFqCfTb3ga69tOADAPgLt7mhX1DYJb1gG1irOyFDu9gF6Cdu8468G/7lFBON9NXg7IkFiczCk6IS37b2+ldHRNDulYodDlc/dDEFwL4K1OC7+yGlAcAQi/Stkhv0PgzYnbs/x11fzVANpCOtw9yPvv5C2C6cYVgBSLYPAHgLtDPFYoZNp1T2H6orcD+HfU37Lmxt9WA17m3oBs2ATof6Lde0vcBn8AgGiY303uCcgABoCU2u6af5iDf4DA/58QjxcaEagcsugbyFVfD+AbcLlnP6gCW9cB3ZuAgA9WSyEFcBNqtYOkY+HV1vtfdknkaoT7vIwTUKndqS+VWkI8JsUI1y1TKKKZPwC5WjoW/Ge4x4yGLj97BgL5MiBHOS0sUn+KIF8xnBZ/AnC+dHT93rqRgdBVl30J0LBv1eXlgJTiCkDKRDb4C36Odu9joR4zQjLthsV4fPNxUD0XwEvOCqsCvVuBzWuBSp+zshS6FwGcg3Z/RlIGfwDA2hc+CsHPQz4qLwekFFcAUiTEW/12dDcC//SkvkFMl76/GVL8EFQvBeB2ap5rqN8yyDcMJkU3INeg7F0hB5Q2WzczFPpoqYCW2m0A3hnyoXmLYMowAKQEB/8963+50H8DOAuA77R4obEeBMRtWRqwGoAbIf4npb30nHUzw8UQQAPBAJACHPwHR5fPPhgBPg/gZLeVBWho4kOE4kZwL2r+hTK5tMS6lTAxBNCe8CyUcBz8h06XzD4Dgs8CcPtcA8+rv2o43+i0LL3GSqh+VDoX/sC6kagwBNDucBNggnHwHx45dNEPsG3EVKh+Ci5fNxwEwLaNwLb1fN2wGb0FPX3T0zz4A4BMLZWx1f8nAD8N+dBvQk/tDt4imGxcAUgoDv7h0uWz344A1yO8J6kNjEh9NaDADdaOvADIXOlY8BPrRlziSgDtDANAAnHwj4b+6QOj4OVuBXCK8+KFJqBxJL+RUVLcCam8Vzqu2mDdigWGANoRTzcJw8E/WqoQLJ9zEVSvhOvvh58HmkcDHu8UCJkC8mm0/+VSke9n+poLQwBtjwEgQTj4u6NL5pwJ0RsBuF2bFw9oHgPk+NyAkHQDOEs6ur5n3UhcMATQKxgAEoKDv3u6ZO4bIcEdcP3wIKC+EpAvOi+bMtugepp0Lvy1dSNxwxBAAANAIkT2eF/FnVD/3Rz8d02XzzkWip9DtdVtZQGaRzEEDN1WBHqqTF54r3UjcaUrSkVI7YeQ0J+HwXcHJARvA4w5VQgqtRsR+ot9cDcH/z2TaV+/D0HwdgAb3VbW+q2CFf56hmATPLyNg//uyeRSL7b5pyP8WwRPQLl2q2qJ40vM8RcUd2vmnQvgzFCPqbiTy/4DJ4de/xA8nAmg6rZyfwioVtyWTbYAKu+Ttq4HrRtJAplaKiPwZ0JxZ7gHxruwujon1GNS6BgAYkx1pg+VeeEelMv+QyHTFv0C0P9yX1mB7vX1hwfRngk+Lp0LfmbdRpLI5FIv1H936CEAMo+rAPHGX06crX7d0QAmhnY8Dv7DIodc/1mI3OC8cBDUnxpIe6C3SHvX5627SKKIQsAkrKy8IcTjUcgYAOJMMC3Eo/GafxjKcj4UTzqvW6sAPYl8O60bir/C23aOdRtJFsmeAM8P8xxGIWMAiLMA4Txnm9f8QyMzruuGYg4AdV68vI37AXZOIcEsaftCj3UjSRf6ngANHN89Q4PBABBngpeGfQwu+4dODlt0LyD/67ywAujd5Lxs7Cm+Kx2X/866jbQI9XKAyIshtEQRYQCINX+4JzUu+0cl8C4F4P6xstUKbw18tRp8f751E2kT2uWAYNjnMIoQA0CMSUfpaQC/H9KHuewfKTns2icQ/v3TA9O3zaRsLAlul7aS+z0ZGRDC5YDfyuTSyjB7onAxAMTfxRjsTJPL/m6IXGtSt1oGAsePJIgtuc66gzQbxuWAKhQXR9IUhYYBIOako+v3gF6IgW86u4ODvyNl+SWcPyHwldr89QLYhC3ePdZNpN3fQgBwxwA/olBcKJ1d90fZFw0fA0ACSMfCayB4L4Ddvce8Cshn0M5lf1dkxnUVADbXOKtlk7Ix838ytcR/EQ7I5FIv2v3TIfI57P6JmOsh8h7p7Pqyq95o6BgAEkLau74DVPYDcDEgvwHwPBRrAV0Ckc+hpq+XjgUXiZS4NuySyMMmdWu8HRCQP1l3kCUipaq0L/gYAn8aRD4HwdL6OQjPAfIbqF6EwN9P2hd817pXGhi+DZBoGHTJ7LMgcP90QAAYuTcgGc7wgrOkvesm6zaIkirDZw+iMIjNHgAA0Ky/H0Dt/t0TpQADANFwaMBr0FYCj9dBiIaBAYCIiCiDGACIiIgyiAGAiIgogxgAiIiIMogBgIiIKIMYAIiIiDKIAYCIiCiDGACIiIgyiAGAiIgogxgAiIiIMogBgIiIKIMYAIiIiDKIAYCIiCiDGACIiIgyiAGAiIgogxgAiIiIMogBgIiIKINy1g0QJdE992iu3IwJa4JvjR8pTwdQN2E6kBxyUoWIwsMYAL6LsjEk2u21jV/+pLa9vAbPn3CCVK07IkoasW6AKAlKqt7RD1bfAvXOEMFbFDgIQMFFbd8P0NygyBd8FPIePK7b7agM4HEI7hXgh1M78H8iElg3RRR3DABEu6GqcteDtTMAuRz1Qd8Z3wNaWwRNReE3dXAeg+DSaZ3yA+tGiOKMpxWiXbjzIZ0qQW2RQo52Xbu1WdDSLBB+Q4fjfs/D7Kkd8mfrRojiiKcXop246/7qO1Tk2wBGuqzrecCYkYKGAr+aIdkMwXundcrPrBshihteTSTawV331/5DRX4Kx4O/7wPjx3gc/MPVCsWPl6/Qc60bIYobnmmItnP3A5V/DOD9DI7vkBEBxo32UMi7rJopNQhO50oA0d8xABD1u+s+fZ16wQNwPPMH6sv+jUV+HSO2sRbgqEP3k79aN0IUB7wEQIT6bn/1a9fDYPBvbODg78goz8PV1k0QxQUDABGAOx+q/TNUjrWoPXIEB39XBDh56Sp9q3UfRHHAAEAEAIqLLMo2FQV+Vh/mZ0QCXG7dA1EcMABQ5v38AZ0ukBkWtZsaLapmmwBHPbpKp1r3QWSNAYAyTxCcblHXE6Ahz+V/C4HC5HdOFCcMAESQN1lULRT4iF8zijdbt0BkjQGACDbLwTm+i9PSP1g3QGSNAYAyTVUFwD4WtX3O/i1N7P/dE2UWAwBl2t3L0ASj74Hw22fJ/+Pz4BZMyjSegijTCuvRZ1Vb1aoyAdCnJ9j97onigAGAMu2EE6QKYJNF7SCwqEr9Np4pUrNugsgSAwCRqsmz4ascfswowPcBUOYxABBBHrSoWi7zGoCh+60bILLGAECZJ57eZVG3FnAVwIoPmPzOieKEAYAyb6zv3wXgJYva3b1cBTDw4ksr8UvrJoisMQBQ5s2YIRURfNWi9tZtys2Argmu6d/8SZRpDABEAAoF72oYrAKo1kMAOfNCsYJrrJsgigMGACIAJxwmGxX6YYvaW3uUewEcUcUFBxwgm637IIoDBgCifu84OvcdCD7vuq4qsG5DwAcDRUyBT0+fIt+37oMoLhgAiLazeZV3kUDucF23WgPWb1KAISAaip891olLrNsgihMGAKLtnHmm1Grr5QwAN7qu3duneHkjNwWGTYBvbcljJp/8R/RqfBsW0S7c+UDtowCuAFBwWTfnA2NGecjzdcHDVVHg4umT5QvWjRDFEQMA0W78YrG2V6vBpQLMhuMVs6ZGQWuLwOc63aAJ8HPx8LGpHfJn616I4ooBgGgA7rhPD/O9YLYC7wYwwVVdEaCpKGgqCgp58Bu7Gwo8B8UP1cMNh3TKw9b9EMUdTydEg/Cp6x8bsfeY0e8pNOSPE5EpOd8rQrwBLdZ7ImPFQ9tAflZE+v8AngjEA3zfQz4nyOU8+L6HXJZXBgQbRGSFQrslkKfLldpvN2zzv3v6G2WLdWtEScEAQLQHqipf/uZTp6t65wj0bQCcXZ3P5XMYPaoVLSOakcv5rsomVRWQX4gE1/3jG/zbRYT3VBDtBgMA0W58+eYnjlHxPgXgTS7rep6HMWNHYtSoVojwazpYAn1Axb/o5KPkt9a9EMUVzyxEO1G6557cmDXtXxTgPNe1i41FTJw4Hr7PGf9wqeCaYrf3ET77n+i1GACIdvDVW1eNrtWq3wPwNte1R7Q2Y++9x3HWHyr9TVD2//mUN8ta606I4oRnGaLt3HjjiuJWP7gXwFGua7e2tmDvfca5LpsNqn/YrP5bzjxWeqxbIYqLLO8jJnoVVZWtfnA9DAb/xmIRe+091nXZ7BA5cqSnN6sqJz1E/RgAiPp9+ZtPXwDgva7r+r6PffYdz2X/iCl05p0PBv9h3QdRXPCMQwTgmm+vniiVymMKjHBde6+9x2LkSOdls0mwNlBv/1OO5iuBibgCQAQAlcrHLAb/XD6H1tYW12WzSzHek+Ai6zaI4oArAJR51177XFO5sed5AK2ua48bPxqjR490XTbrNm0OvAncEEhZxxUAyrxKU+87YTD4A8CIlmaLslk3cqRX+3/WTRBZYwCgzAuC4O0WdQuFPHJ8568Rcf6MB6K4YQCgzBORIy3qNhQLFmUJgAreYN0DkTUGACJgP4uihXzeoiwBgOIA6xaIrDEAUKZde+3iPACTbfiez6+foZbvPapcgqFM4xmIMm6i2TScD/6x1djj7rXORHHEAECZNnfuhB4ANYvaQS2wKEt11VNnSLd1E0SWGAAo00REATxjUbtaNckdBECB1dY9EFljACACHrEoWi6XLcoSAIGY/M6J4oQBgEjkXouyPT19UFWL0pknovda90BkjQGAMk9rtR8CcD4Sqyq2bePTaA2o73m3WzdBZI0BgDLvgg8c8JQA91rU3rRxi0XZbFP59duOlKet2yCyxgBABAAiV1qU7e7uQU9Pr0XpzBKvdoV1D0RxwABABOBD75/yCwF+YlF77doNFmUzSn500lH5X1t3QRQHDABE/TSfPxfAs67r9vX2YcOGza7LZtEzyMkHrZsgigsGAKJ+57+n/TmR4DQAzh8Q8/LL67FtKzcERkWAHoH3rpNnyPPWvRDFBQMA0XY+9P4DHobo+wC4HY0VeOGFtejp5X6AsAnQA9H3nnS0/NG6F6I44cPIiXbiKzeuODTwg9sBtLusKyIYv9dYjBxp8n6iNHpG4L2Lgz/Ra3EFgGgnzjtr8hLk88cA8l04fEaAquKlF1/Giy+8jGqNjwoeHvlRzfOO5OBPtHNcASDag69886kjgwBXAHgrHH5nPPEwekwrRo5qhc9XBw+UKuQeT2qXc7c/0e4xABAN0Fdv/euUoOq/C4LjFTLVE+n0PPHEi3ZwFgGamoooNhbRUMgjV8gh53vI+tuEVQFV1ALFKog86kHvAbwfnXSUrLDujSgJ+D5sogHqnHzASM8LRgE6EpBRcHQJTQQoFgQNDUAhL8j7YHT/Ox/ASAAjBTJK6v+diAaApxGiPbjrwcqJqnIlIG9wWdfzgBHNguZGyfxsfzAUeNAT/NfrO+Ue616I4oynFaJduOtBnayqXwH0Ha5rtzQLWps58A/THVXgvMMmy0rrRojiiKcXop24+349LpDgBwD2cllXBBjdKmgs8qsZkrWq+OfpU+Q31o0QxQ23FhPt4K77q+8LJPg1HA/+ngeMH+Nx8A/XeBH8YtlKfa91I0RxwzMN0Xbuvl+PC7zgV1A0uK49brSgocCvZETKXoC3Tt1PfmfdCFFc8GxD1O/n92uneMFDUIx3XXtUa32zH0XqJS/AkVP3k9XWjRDFAS8BEPUT6CKLwb9Y4ODvyF6Bhy9aN0EUFwwARADuur96KkTf6rquABg5goO/Q+9evlKPtW6CKA4YAIgABIKLLeoWi4IcH8flluIK6xaI4oBTD8q8nz2oB/oaPG5Re+woQbGBX0PXAsXrDpkiJr9zorjgCgBlnqfBP1nUFQEaOPib8IDTrHsgssYAQJknIm+2qFvIC5fgrAiOt26ByBoDAJHqVIuyeV77NyPAP1j3QGSNAYAyTVUFwL4WtX3foioBgCom9f/uiT6/gOwAAAT1SURBVDKLAYAy7ad/RCOMvgd80Y8hQe6Pz6PRug0iSwwAlGkTgIpVbVWrygQAWx5H2boHIksMAJRpM2ZIBcAWi9pBYFGV+m064QSpWjdBZIkBgAh4wqJotWZRlQAAYvM7J4oTBgAixUMWZSsVXgOwogEetO6ByBoDAGWeenq3Rd1qDahxFcCED5j8zonihAGAMk/X+XcA2GBRu7uXqwAG1qMHd1o3QWSNAYAy75RTpE+Bay1qb+1WBMwATqngq1OnCu8AoMxjACACoGXv8zBYBQgCYOs2JgCH1udz+KJ1E0RxwABABOCUN8taqJq8Enhrt6LGWwLdEHz84EmyzroNojhgACDqd/Ixua+LwaUAVWDdhoAPBorejdM65QbrJojiggGAaDubRngXAPpb13UrVWDDJiaACP2mbx3OsW6CKE4YAIi2c+ZUKTf0+KeIyg9d1+7pU6zfqFwJCN8dxSpO7X/qIxH14+tIiHaipOod/UDQBcEn4DgoF/LA6JEecnxb4HAFKrhiWgc+KSLcZUG0AwYAot248yGdKoF+UqEzXdYVAZqbBK3NwrcGDoECDyrwn4dMlgeseyGKK55aiAbgrgcrJwbqzRHgnQBaXNX1PKC5UdBUFORyrqomlGCrKn6CADdM309+ad0OUdwxABANwuLFml9XxpEqtanwpEMUIwKgONTjlfvKk/t6y0crdAQAiEj/H8Dz/v7fRQSiCkgVAsD3gZw/9K+viIfW1uYhf364xJONeV//kM/JiqEeQ4FeKLYIsCrw8Ej5ZSzmdX6igWMAIDJ0zTeeugLAf7mu6/k+9tuvzXXZVxHgypOO9i8xbYIow3gXABERUQYxABAREWUQAwAREVEGMQAQERFlEAMAERFRBjEAEBERZRADABERUQYxABAREWUQAwAREVEGMQAQERFlEAMAERFRBjEAEBERZRADABERUQYxABAREWUQAwAREVEGMQAQWRL0mdQN1KTsDi10W/dAlGUMAESGROVli7qBBlC1DQEesM60AaKMYwAgMhQEeMKqdqVSsSoNAFAEZv/sRMQAQGSqpvIQgJpF7Z6eskXZV1T9fO4Plg0QZR0DAJGhC8+avBGCByxqb+u2vASv9719hmwybIAo8xgAiIypys0Wdbu39iComSw+QAXfMClMRH/DAEBkbH2x52YAT7muq6pYv95gEi54akuLf4v7wkS0PQYAImOlM6eWVfBJi9obN25xvhlQVeedOVVMNyAQEQMAUSysf2rKt1XxK9d1VRVr164HnN0RKHedfJT/XVfViGjXGACIYqBUkqBaKZwJdX9b4LatPVi3boOLUn+tVuQ9ImL/FCIiYgAgiouPzG5b74l/OoDnXddev34TNm/eGmWJ5yTwTn/nm8RJ0iCiPWMAIIqR8/6t8y/I52cAeMh17RdfeBlrX1of/oFV/1AJvDecdKw8Fv7BiWioGACIYub897Q/VykWjlfgiwCcbpbbuHEznnv2BZTLoWwMLEPw+YZe/82nHivPhnFAIgqPWDdARLv21Vv/OqVW87sAzASQd1VXIGgd1YIxo0cil88N9uMVFXzPgzf/pKNkRRT9EdHwMQAQJcD/fOPJvSrwThfo8Qq8XoA2AKMQ8XdYBFooNLzc1Fzc2NjYUCs0FOD5foMv0gqgsf/PRgCroXgU0HuCin/7KW+WtVH2RUTD9/8DzQPzFvwm/vIAAAAASUVORK5CYII=;" vertex="1" parent="1">
          <mxGeometry x="480" y="50" width="60" height="60" as="geometry" />
        </mxCell>
        <mxCell id="vxvJLaRAeoQ-sSdQ6FoQ-13" value="" style="shape=image;verticalLabelPosition=bottom;labelBackgroundColor=default;verticalAlign=top;aspect=fixed;imageAspect=0;image=data:image/png,iVBORw0KGgoAAAANSUhEUgAAAgAAAAIACAYAAAD0eNT6AAAABHNCSVQICAgIfAhkiAAAAAlwSFlzAAAN1wAADdcBQiibeAAAABl0RVh0U29mdHdhcmUAd3d3Lmlua3NjYXBlLm9yZ5vuPBoAACAASURBVHic7J15mCRVlbffGxGZGbnU3tkLyb4viiwOrqOOOjqKQqMWouICjCJubIKjzgziODoKKoi7KFK4jCDaCLjNOPrNuCvgjggC3ZD0krVXZWbkEnG/P6KKXujuqso4uVXd93l4qM7K/MWtqoi4vzj33HOU1hqDwbA8+fwfLxqk5L2p4tWfWa/r/bTWfUGge3xfJwJfO8pCO7aq2o5VtCw1aVlqm2Vbj9i29T/9mdHPDR9zY7XdP4PBYGgOqqUG4KuvWEMidjTKOoIgOBDLLqCsP2Pbv+PFn32odQMxGJYv3//rJasfGp29bLZYe7nn1YcavcRt2wqSSfv+WNz5uoqnP/yGE68clR2pwbACuen0ODX3cOL2UcBhKJ3Bsu7Fsv7AhP97Xned16qhNM8A3HT28djBW6n6z6HoraVWj7O3Q1kKYk4Nxy4Rd/6I63yW9V+8AXTQnAEaDMsJpb698e2v0Cp4E6inANZsscbYqMf0TIW9XnuLwFIKN2VvTbnOe//xyZ/+pMiQDYblzk2nJ4mlzqGmX0m5cjRerQc/sPb4fgXYdkDMrhCzx3Cd20k4H+RFX3igGcOTNQB3XnQo2n4J+bHz2DJ5IH5E7Zjjk0ncTcK5ASfxcV78mZLMQA2G5cNtmy5+joIPgTphd9+v1gJGC2XGxsuRjQBAOh3bnEklzj7rpI9/N7qawbDM+NHlLr3F5zJTOouNY6dQ9JxIekpBOjGOG/9vXP0hXjxyh9BIhQzAry99Gpb+D+Dpj77mBzA6A1snoVyLfgzHDuhP3UYmeDUv+NJ0dEGDobu57YGLn6Bs9UHg+Yt5f7lcJ5+fpVyuRz62UopMJvbHeNw54/VP/uQfIgsaDN3On96cwUu9HbgI6Hn09ZkybJmE8aLMcTLuVjLJN3LaFzZElYpmAO56+9Fo6wOgT9nr+8Zn4cEC1PzGjzVP3KnTn/w8Q4e8hWddFv1OZjB0GTdxup3auP8VKM4H9hxO3B0axsbKbNlaIgiim3/LUrqvP/HZc5/y6TdGFjMYupE7zo2hes8F/gVYvcf3eTXYNAoTAkZAAb2pv5KJn8kp1/28YZmGDMBvL8rhW+8F9VrAXtRn/AAeGoWtQg/vbqxMf/J9nHb9+2UEDYbOZ8ODF/bHLPtG4O+j6FSqPg8+MEW1KpNi09sb/2XBzz3tMmPKDSuJuy45A837gEMW/ZnxImwsQFXgUrEU9KV/TSZ2eiN5Aks3AHde8mwUN6EZXOrBAJjx4P6toRuSYCB9B3b1qQyb7UqG5c238xcfruvqVhSHS+jV65qND05RElgSAEilnEIypY5//ZM+lxcRNBg6lZ9dlCRhfwE4o6HPBwFsGoOtUzLjiTt1htKvYP0Xv76Ujy3NANxx6Xko/TEgWlJD3Ye/bA7NgAQZd5RM4omc9sWNMoIGQ2fx7U1v/3sNNwL9kro60Dz00AxT0zL+OR63q/197ovOPukT/yUiaDB0Gr97x77Ugw3AiZG1tk3Dg9tEknOxLRjK/Acvvf6di/3I4gzAjy536J29GnhThOHtTKDh/m0wNiOjl4hVGUy/mPXXfV9G0GDoDG59+KJnWoH1X0CsKQfQsGnTtJgJcBwr6BuMn/T6v/m0WLaywdAR3Hnxk8H6JrBWTHOqDPduDpfJJRjs+W9ePrKoJcKFDUCY2XgL8GyBoT2WTaOweVJGy7E0Qz0X85IvflRG0GBoL7duvOQgS+lfAquaeRwdaP76wBTlksxygOvapZ6U2u+cp1w7LiJoMLSbcL3/i0BCXLtchT8/IpMXANCXepBY7YiFlsYXyCBWCi99A82a/AH2XwWre2W06oFidObD3HLOC2UEDYb28a173tFjKX0rTZ78AZSlOPCAPuKxpW0q2BOe56fKVesuETGDod3c9fZnoBmhGZM/QDIOR6wLw/gSTJUOxI/9cqG37f1od1zyXtDrZUa0Fw7MQm9SRssPFGPTG7jt7INkBA2G1nM5l1tW0v8KcEyrjuk4igMO6sOylIje7Gx1/0/9+NwfiIgZDO3iN+88EK1upllLcPOkEnDY2rDwjwQTpSfw9ddcv7e37NkA3Hnpy1H6n2VGsgBKweHrQhckQaUeY7z0K246XUjQYGgtT9w0c5mCF7X6uG7CZvXqlJje1FTl2Z/92XmXiQkaDK3kT2/OEPjfogVROAD6UnCg4KFGZ1/DN87aY+7e7g3AHZeeAPo6uVEsAtsKTYBUCKRYGcKP/0JGzGBoHbfd/0/7A+9o1/FXZZMk3MWV91gMs7PVd33xwbNcMUGDoSXML4Hrx7f0sKv7ICu0LK41jM1cw7fOevLuvv3Y2fa+tyVAfx0QiskvATcGuQE5vYnicdz82n+TEzQYWoBTfx/NWmtcBArI7ZMR06tW/Xj1kfi1YoIGQyu465K3tGQJfHfsPwQxIRNe9y0mSrvdHfdYAzAVfwuK9q2fr+0P10KkmC5fYpYCDN3Ctx+89DgFZ7Z7HOl0jP5+uetweqb2is/e8fbWhFENhqj84m29aP2vbTu+Y8N+Q3J6pWoPN5/1oV1f3tkA/P6dAyj1brmjNoBScFBWTs+rJVDJz8oJGgxNxPI/SPgQ3nayWblcgHo9sHxv5qtiggZDM4klLqVV6/57ItsLPYKB+Oni+dx0+k6COxuAuv9uQDAG3yAZF1bJhSCZKp7J9y5qrHSxwdAibtt08XM06nntHsc8rmuTTsslPs9OV59zw51vXnzNdIOhHdxx4TrgwnYPA5BNCPRqcVTyizu+tN0A/OadB6L1W+SOFpE1gj6k6ttMFb4iJ2gwyKOwXtfuMezK0JDcE4gfaFXy6u0LqxoMi0E5lwNy4a8opBJyW+QBJoov45Zz1s3/c7sBCOrvoo2JR48hk4C04HAmy8/j9je1P7phMOyGH3G5A/rkdo9jV3p7Y8SEigMBVCr+C8TEDAZp7vin/YGz2z2MnVjTJ6dV9y0q1Ud3+M1d2ZdbwGlyRxFC8gf3fUWleJGcoMEgR3nj7DPohOW3XVBK0dsrl0NbLtezX/jJW9ct/E6DoR3461lsi/tWMZCGeLT+eztRqv7t/JehAbiz+DTanfCwO4Z6wJF7+sCrv1xOzGCQw1fBqe0ew55IZ+QMgNbgW7VLxQQNBkkUnXcdKgXZHjm9cjXFN84+CeYNQCf+0ACWgh7BpZhi5RDuOLe55RwNhgZQqM68BoF0SvaS8Sr+S0QFDQYJfnNhP/CMdg9jtwykZfX8+sUwbwC0PkVWXRDJBIi6b7HRe4OcoMEQnds3XngUcEC7x7EnHEeRSMhFRcvl+n5iYgaDFL7zQkAw1i5IKgG24O7gcvU5ABZ3vuMo4DA5ZWF6hCuIVupnyQoaDNGwsA9s9xgWQnI7YBBo9amfndexhsewQunUSDiEywAZwYfhUmWIW9+wnwVBZ4Y85kklwqpIUlTqR8qJGQzRCVD7tHsMCyHVJniehBU8TlTQYIhOZ8+FktFwDdQrr7ZQHX7zUchuB6z5pimJocMIOvsaBGzJZFygrtXhooIGQxR+dLkDrG73MPZKRniXvq8PsYCOv/mIboGo+7bpDWDoJFSnm3DkDYDSylQENHQOA1Nr2FN33E4hJpye4LO/Bbrjbz5iLYLnsdJHywoaDI2ju8CEO5Zse4J64JtEQEPnoK2OvwbFugPOo4O1FkHn33zkf3DfrD8aOgfNmnYPYSGkIwA66PBwq2GF0flROGzhebAeDFmoFWgAFEfIChoMEVBMt3sICxEEgaieZamiqKDBEAW/CwyAQnYu9P1eC+iXU2wS0ksAgRbsN2wwREOhNrd7DAvh+1pWUKmHZQUNhijozp8HISyOJ4WvYxawVU6xSdR9WT3L2igraDA0ToB+pN1jWAi/LmsALKUeEBU0GKJgqc6fBwF8wUicbZUtlO74pw9qsuFHFPfIChoMjaOg4w1AXfLGA6Cse2UFDYYoBJ0/D2qgLmoApi201fE3H2p1YUH9e2FBg6FhlO78CEBd8sYDOE7tT6KCBkMkOv8aFI+EO9ao1RU/uC/4gysFvz/kr3KCBkM0AjrfhJfLgiZcQU9y0hgAQweR6PhrUPxB2LYeseiC8COe4A8es+pcdplwPNNgaJyy7f8GdKnd49gTGiiV5K5BN2HPDB9zY1VM0GCIyvEfGAVq7R7GXqkKGwBLbbKAzk6I0xpKFTk9x56VEzMYojO870fKSqvvt3sce6JcqhMEckmArhv7XzExg0EErYFN7R7FXpnxZPWU9QeLWu2/gM59Ip71QPDmgxv/hZyYwSCEpW9p9xD2RHFW9mE9HrOvFhU0GGT4XrsHsFemy3JatqWJxb9o8aSrtgKdOylK/tAAcXWNrKDBEJ3AUbfRoUZ8pigXGU3ErcrZJ33iv8QEDQYptOpYE44fQFEwEp5ObOLFnymFFXYUnfuDTwuGPRJOldNGbpcTNBhkeNG6K0eBn7Z7HLviVXyKs3IGwHVjvxYTMxhEmfohdGhVzllvbpVCCDe2Aea7H/nWBjllQWo+zAjmRqXid8mJGQzSqJvbPYJdGR+TXXeMJ9QnRAUNBilO/EwN+Ha7h7FbxgVT15QC6lfAvAF44gfvgQ4sjlOYClOQpXBj1wqqGQyixBJ8DtjS7nHM4weaiUk5A5BKxbaec9KnvyomaDBI04nR8HoAo4IGIJ0Y5aVfzsNO/Y/1iNwRBNAatgpGYxKxKuuv/4KcoMEgy/PWXFEELmv3OOaZmPAIpHoAKEim7TfKiBkMTaJk3Y5ivN3D2InCNEg240rGvzb/5XYD4Kir6aCnDyaKsvse+9xrQHdkkpXBME9p/02fB/7c7nH49YBt2+QScDPp2H2vP+nTnbnUaDDM87QPzhCoD7R7GDuxdUpOy42VWXXwBfP/3G4Ajr2iCLpjnj7YMimnlYoXeenI2+UEDYbmMMyNvlLqn9o9ji1bSvhC5X8tpYgnY2eKiBkMzWYm/XHgoXYPA4DxIlQE6xP1pv+NZ1326JP1zn12/9oZTx+MzsgWPehN/rOcmMHQXF643xW3AD9u1/GLpRrjE3LXX09P/FdvOOmTnbvV2GDYkWdd5oH613YPgyCATQU5vYw7zkuv2ym6sbMBGL7Rx6K9Tx9+ABtHxeR0b2aa0754lZigwdAC7MB/NVoJXv2LQ2vNI/mimJ7r2sVkT+p5YoIGQwsoH3PCDYGdbm+HwPwEVASXwTPxt+z6kvWYNx13xS2gfiB31CWycVSu65FSTJz45t58wfuYjKDB0Br+4cCPPoilXkqL65PnH57FE+q94cQsvyeT+tvXHfdRwfU8g6G55AteYnx6/S3jgy9bB6o9gyhXYfOEnF5f6i+cdv1jduA81gAA6OAMNA/IHX2RTJfDjEchise+mPLQcQBvNSbA0G2cvN+H/g+tzmvV8bZtKzMxKVNtTFmKwf7YWec86RpTe8PQNeQLXhy4GTi54h7KdN9zWj8IDTywTW4LfCpeJLX6Sbv71u4NwIlXjqI5BZgRGsLClKtwr1zEpXrQsUwe9oodX3prvuB9ROwABkMLOPmAKz4PuulLWFOTFbZulQv9D/a715x90mduEBM0GJpMvuDFgBuBk+dfm+l9JuXUsa0dyAPb5HLgYo7PQOrprN99FG73BgDgiVf8AXgVrahPXvPhns1hwQMBgqG1FE58x+6+dWG+4H1I5CAGQ4so7f/Q29H8Z7P0Z2ZqPPSwnNfv64/f9vqnfOptYoIGQ5PJFzwH+E/g1F2/NzF4GtV4rjUDeWRCLgpuKchmzuKU636zx7fsVeCEK25F8S6Z0eyBQMNfNottddDpNFuffjl7+dEuyRe8fxc5mMHQAoa50T/5gCtfQVgkSLI2JuNjHg9unBIpM25ZSg8NuR8472mffXF0NYOhNeQLng18BXjJ7r6vlcP4qlfh2z3NHcjYLDw0JqeX7b2GU6/baxRO6cVc+Xdc8k4U/450RoQfhE/+MzIFR3RPL4WnX0Ytvc9i3v7eXNbtnLoHBsMi+PbGi1+qFSOgUlG1tmwuUhiVufbiMbveNxB/+Tl/86lviAgaDC1gbvK/AXjFQu916qMMjX4Zpya3S+1Rxmbhr1tlGv5YCoZ6ruVl179+obcuzgAA/OaSUwn4EpCJOLwQrwb3PBL+X4D62gMoPPUyAiu5lI/9ay7r/pvIAAyGFvHtBy89Div4lob9Gvl8va7J52eZnpZJ+EsmY5N9vdaTXvfEz/xFRNBgaAH5gmcB1wOLLlJlBR4DYzfievcKDmQCHhZ68nfsgGz6Tay//jOLefviDQDAHRc9HmXfChzQ4PBCZrww7C+x3U+Bd/jTGHv8Y7Y4LpZ35bJuZ5V+NBgW4LbNb19FnfcozbmAs9jPjY97bNlSxBeo8W/ZSvf0xG7d11WvePGJnxFs22kwNJd8wVPAF4DXLfnDOqBv6ntkZiJ279Ya7t8WFr6TIBkvM5h6Nqdc9/PFfmRpBgDgrndl0bWbgGcucXjhev8j4/DIpEyow7GZPuFVzOz/gqhKl+ay7hXRB2QwtJbbHr70MBUE7wdetrf3eZ5PPj9DqRR9j79S0NuT+BWONXzeUz61MbKgwdBC5ib/zwL/GEUnVbyL/olbUbqBKHbRg/sLUJKJwtGbfJikfSIvuWHbUj62dAMQfkxx5yWng/534JBFfWS6DA8UwKs2cLxdsBS1/Y5m/NjzqCeGouuFXJTLuh+VEjMYWsl3Hrz4yYHFh0D97Y6vz85UGR3zmJkRuO6ATCb+gOvGzvzHJ30i4uOPwdB65ib/TwIinSltf5reqf8hVbpTo/XCOXJBAA+Nw9ZJmXTeZLxMb+pyXnLdBxv5eIMGYI47zo1B73ko/gVYtdv3VGrhGofU1oa+1IPFQ//+A5MHnfEpFtrFsHTelsu61whrGgwt4/aHLnkcBKdOjlfP2lYoHVKpRFtmU0rhJp1RN2H9dzxhfeSsEz/1K6GhGgwtJ1/wPg68WVh2enDi5tOSs3ddCOpFu32H1tuz/CW63MadOn2pa3nZyJujdLmNZgDm+cXbenHcS1D6tcwnJk2XYfMkTBWjOx2lIJPYQtq9hNOu+xJAvuBdADTjif1Nuaz7qSboGgwt5bM/P+8ZOgjOq9WCZ5XL9azva3uhz1iW0o5jVWMxtdlNOBuw/Ctf/6TP5VsxXoOhmeQL3lXA+cKyNeCluax7KwB3XfpMtH4X8HdAjJoP26bClr41gZy3RKxKT+J7ZPSZvOBLkZ+qZQzAjvzy0ieyacu/M1V+FtV6vGEdx9Kk3ftJxL6B8q/c3dpGvuBdAkgX9tHAubms+zlhXYOhrVz+nTN7h1Lpg2MxfaRS1iFa6/1RlC3Lvhf8P2un57dvOPHKJuxxMhjaS77gXQlcLCxbB16ey7qP3fr6mwv72ea9ni0TF1KuriOIMM+m4rMkEz8hEfsYp37+240LPRZ5A7Ajt53zVCr+G/Cqx+MHWXydIfCT1AIHrcMne8euE7M8HGsayx7FUluIWbfhlz/D8I0LLlzmC947gfcLj1wD5+Sy7nXCugaDwWBoIfmC9wEQ73LrA6/IZd2bFnznLef0oINzqdZfQKV+EH7QR6BT1P04fhAuY9u2JmZXsdUsjj2JbW3Dsf+MFbuK0z73O+GxP0pzDcDe+PKbBnjVp6airF/Mky94/wK8V2BUOxIAZ+Wy7oiwrsFgMBhaQL7g/Rvwz8KyPnBmLutGL899x7kxthWTEuH8RmifARAmX/AuB/5VWDYAXp3Lul8R1jUYDAZDE8kXvMuA9wjLBsBrc1n3S8K6bWHZGACAuRr/0r0LfOBVuaz7NWFdg8FgMDSBfMF7N/A+YdmAcGn4i8K6bWNZGQCAuW5/lwjL1oEzcln3ZmFdg8FgMAiSL3jvAP5DWFYDr89l3c8L67aVZWcAAPIF78PARcKyNeD0XNbdIKxrMBgMBgHyBe9i4EphWQ2cl8u6i6qv300sSwMAkC94VwPSPcmrhHs+bxPWNRgMBkME8gXvfOCqJki/JZd1P9EE3bazbA0AQL7gfQJ4k7BsFVify7rfEdY1GAwGQwPkC96bgY83Qfr8XNb9WBN0OwLpUrqdxlsImz5IEge+kS94zxPWNRgMBsMSyRe8c4FmlHC/eDlP/rDMIwDwaPOHa4GzhaXLwItzWfcHwroGg8FgWAT5gncO8Dlg4UY8S+MduawrXWW241j2BgAgX/Aswt7PrxWWLgEn57Luj4R1DQaDwbAX8gXvtYT3delI9rtzWVe6umxHsiIMADxqAkaAVwlLF4EX5LLu/wnrGgwGg2E35AvemcD1yE/+78ll3cuFNTuWFWMAAPIFzwa+BJwhLD0LPD+XdU2PdIPBYGgi+YJ3BuF9fMHulkvkfbms+y/Cmh3NijIAAPmC5wBfBV4mLD0NPC+XdX8hrGswGAwGIF/whgnv39KT/3/ksu47hTU7nhVnAOBRE3AjcJqw9BTw3FzW/bWwrsFgMKxo8gXvNML7tiMsfWUu60pXj+0KVqQBAMgXvBjwdeAUYekJQhNwp7CuwWAwrEjyBe8Uwvt1TFj6qlzWvVBYs2tYsQYAIF/w4sA3gRcKS48Dz85l3d8K6xoMBsOKIl/wTga+QViDRZJrcllXulpsV7GiDQBAvuAlgFuA5wtLjwJ/l8u6fxDWNRgMhhVBvuA9n/D+nBCW/lQu60pXie06lnslwAXJZd0KsB74b2HpVcAP8gXvaGFdg8FgWPbkC95zgQ3IT/6fA94srNmVrPgIwDz5gpcEbgf+Tlh6K/CsXNb9s7CuwWAwLEvyBe/vCO/HSWHp64BzclnXTHwYA7AT+YKXAr4DPENYejPwzFzWvVdY12AwGJYV+YL3DML7cEpYegQ4K5d1A2HdrmXFLwHsSC7rloCTgZ8IS68DfpgveIcI6xoMDXPqR0YT66+eMPcAQ8eQL3hPI3zyl578v4KZ/B+DiQDshnzB6wG+BzxFWPohwkjAA8K6hhXE8AiuXyo9PqhUDtX1+kE6CPYnCNYAGa11BkihdRJw0ToBxLXWMcL/bLS2tNaK+WvfsrRSSqNUXVlWHaWqKFVRSnkoVUKpEjCrlJpGqSlgCqUmUGoMGFVKPYRSv9hw/oDXpl+JYRmQL3hPBr4P9AhLfw14VS7r+sK6XY8xAHsgX/B6gf8CThKW3khoAjYK6xqWCSe/534H2Mdy3eOVbZ8EHIPWB+sgWIvv92nfj+ugwx5klEI5TkXZ9riy7Y3Ksv6IZf1cKfWDDRcMGsNr2Cv5gncS4f22V1j6ZuCMXNatC+suC4wB2Av5gtdPuDvgRGHp+wkTAx8S1jV0GadcsXUNSp1MEDxT+/5xul4/UPt+D/LtTduGsu1AOc6Msu3NyrLuxbLuUpb1vyj1fxvOH6i2e3yG9pIveCcS3mf7haU3AKfnsm5NWHfZYAzAAuQL3gDwA+B4Yen7CE1AXljX0KGs/9jkwQTBq7XvP0fX64cGtdoqXa9LVzbrHrZHDcaUbd+vbPtWZdvXbjh/YLzdQzO0hnzBOw74H2BAWPpW4KVm8t87xgAsgnzBGyI8SY8Vlv4LoQnYLKxraDMnv+d+24rFnq0c55U6CJ6qff8AXa9L72defiiFFY9PKsf5jXKcryvLun7D+QOz7R6WQZ58wTuW8L46JCz9beC0XNY10aUFMAZgkeQLXpbwZH2csPSfCU3AVmFdQ4s55YObD8GyztP1+sm6VjtUB4F005KVR2gIxlQs9mtl219TlvVls2zQ/eQL3jHAD4GssPT3gVPmCrwZFsAYgCWQL3irgR8BRwlL/5GwbHBBWNfQRE77+HQmqFbP0fX66UGt9gRdq6XbPabljrIsreLxbZbj/Bzb/rKyrJs3nD/QYRmRhr2RL3hHEU7+a4SlfwC8KJd1zW6URWIMwBLJF7y1hCbgCGHp3xOagDFhXYMgp10z9YKgVntjUK0+JahWswRBuJatFMz9pyzr0a/RGrRGB8FO/zfIMGcIHrFisR8r275iwwWDd7R7TIY9ky94hwP/D1grLP0j4OS5Wi6GRWIMQAPkC94+hCfcYcLSvwGek8u6JgmqgxgeYR3wKu37r9O+f4xSCuYm+Ucn/qWyG1PwqDnQGu376HqdoFZD1+voWo2O2/rXgViJxJgVj9+kHOeyDecPbGv3eAzbyRe8Qwkn/32Epf8PeEEu6xaFdZc9xgA0SL7g7Ut4Mh8sLH0H8Nxc1p0U1jUsgeERUoRNol4DPBew2zsi0EEQGoFdjEFQr6PrdRNZ2BHL0nYicb+KxT6tbPuqDecPmH3gbSRf8A4mvF/uKyz9E+AfclnXJIo2gDEAEcgXvP0JT+oDhaV/Bfx9LutOCesa9sLwCAp4FuGk/1LkK5I1lXljEFQqBJ5HUKmgfVP8TNm2b7nuryzHef+GC4dubfd4Vhr5gncg4X1yf2HpnwPPy2XdGWHdFYMxABExJ3f3MzzCkcCrgTOR/zu2FV2r4c+ZgcDzCKorO4HeisdLVjz+XeU4795wwaDp0NlkzENSZ2MMgAAmvNV9DI+wCjiD8Gn/b9o8nJahg2CnCEHgeSszt0AprERiqxWPf0XZ9ns2nD8w3e4hLTfmlkl/BEg3QbuTMFfKLJNGxBgAIZqY4PK/wAtNgosMwyM8G3gb8EJg5Vbh24GgWiXwPPxSCb9cXnG5BMqytOW6d1vx+IUbLhj8frvHsxwwidLdgTEAgjRxi8sPCbe4lIV1VwzDI7wQ+GfkOzwuL4IAv1ymXiwSlEorLjpgJ5ObrHj8wg0XDn2j3WPpVsxW6e7BGABhmljk4r+BF5siF4tnLqnvJcC7ke/lsPzRGr9cxi8W8UulFZVQaLnuFiuReNctFw5d1+6xdBNzxdJ+CBwtLG2KpTUBYwCaQBPLXH4PONWUudw7wyPYhOv770L+RtT5KEhkwO3TzGxWBA3O2/EMJDIab0pRK0PgedSLRfxiMdx2uAKwEokxy3Uvv+XCoWvaThYdCwAAIABJREFUPZZOJ1/wVhHe90y59C7BGIAmYRpdtJ7hEeKESX3/hHziUUdjxSDZp3H7w4nfmutC8MidFn6D/dBSQ5qhQ8P7Q70C3qTCmwRvWuF7VfxikfrMzIowA1Y8Pm257gdvuWjV+9s9lk4kX/AGCe93TxCWNg3TmogxAE1krtXlD4BBYelvAS8zrS5DhkdIAv8IXALs1+bhtJRkv6ZnHSR6d38dSxmAHdEBlMcV05sVtRL4pRL16Wn80vKvwmrF40XLda9Rtv1u04MgpMkt05+Zy7qPCOsa5jAGoMnkC96JhOv3/cLS3wROz2Xd5f/4tQeGR8gA5wEXI59z0bEoFU7OPftoYsm9v7cZBmBHvEnF9GaoTCt0vU59ejqMCizzfAEVi3m2616rHOfildydMF/w+gjvb08Ulr6fcPJ/WFjXsAPGALSAfMH7G+C/gD5h6a8Dr1hpJmBu4r8IOB/56ErHomzIZDU96zR2fHGfabYBmKdahOlHFOXxsAFSvVikPj1N4C3vnFXlODU7mbxBOc65K63ccL7g9RK2332SsPSDhJP/JmFdwy4YA9Ai8gXvyYQXi3R52f8Ezsxl3eX9yDXH8AgvAz6KfNGljiY1pBk4QGMtsXJBqwzAPLUSjN9vUZ2rWhFUq9SnpqjPzi7r+gJWPF60ksnzbrlw6IZ2j6UV5AtehjAp+anC0psIJ/8HhXUNu8EYgBaSL3hPA74LZISlvwy8Jpd1l+2a5PAIhwIfB57f7rG0EjsOgwdp3P7GrtNWG4B5ZrYoph5S6LkzUgcB/sxMGBWoLd/UFTuV+qMVj5+84YLBje0eS7PIF7w04X3s6cLSDxMm/P1VWNewB4wBaDH5gvcMwkz+tLD09cDZy80EDI/gEmb1/xOQaPNwALCccHJ0XHaa5KTJrNX076tREfoQtssAQLhzYOIBhTe1c7tkv1ikNjERuS+BchxS+/dSHa9Qmyp1TIRB2XZgp1LX3nJx9tx2j0WafMFLEd6/niks/Qjh5H+vsK5hLxgD0AbyBe/vgNuBBVK4lszngdfnsu6y+KMOj/APhE/9bd/SpyxIDmjSq8JtdvUKbP2TRdCEh9lYEgYPDogLxInaaQDmKY0qJjYqgl1WyOuzs9QmJtARIgJ2ymXoyQMEPpQfrlDZWqY+2xkFM61EYsp23dduuHDolnaPRYJ8wUsCtwHPFpbeQjj53yOsa1gAYwDaRL7gPRe4FXCFpT8DnNfNJmB4hH2Bqwhb8rYPFU726SFIDmqUFb4c1GHrHy3qTchvS63SDB60/VhR6QQDAOBXYfQv23MDHkVr6jMz1CYnG64nEBvoYeDE7ak1fjmg/JCHVygTlNtcM0sp7FTql1Y8/uIN5w9sa+9gGidf8FzgFuB5wtLbCCf/u4V1DYvAGIA2ki94zye8qKRD25/MZd03C2s2neERHOAC4DLk8yQWjR2HzGpNerXG3iXpTgdQ+LNFpQlNmvv20/TuI3s9dooBgPB3N36/ojSmdvNNTX16OjQCDWwhdHMD9B712IBabcqn+ECJ2nixrX0NlG37djr9kVsuWnVp2wbRIPmClyDcdvwCYelRwvK+fxDWNSwSYwDaTL7gvZDw4lrkxq5F87Fc1j1fWLNpDI/wt8AnkS8jumgSPZBZo0kNatjNHAUwdq+iNL6HbzaIsmHoEE1yQP5a7CQDMM90XjH18B5+h0FAbWqK+tTUkifs9GFZ0gfsfptEUNWUHizjbSkSVNuXhGi5bsF23eENFwz+v7YNYgnkC14cuBl4kbD0GPDsXNb9nbCuYQkYA9AB5AveiwkvMun2tB/JZd2LhTVFGR4hC1wBvLYdx1dWONFl1mjiC6RlTm5UzGyRnfydBKw6PCCWEpV9lE40AAClccX4X/ecQKmDgPrkJLWpqUUn9ynLovfxq0lk975+Us5XKT9UbF+uQLgs8EMrHl+/4fyB6fYMYmHyBS8G3AScKiw9QdjS9y5hXcMSMQagQ8gXvPWEF5sjLP2hXNZ9h7CmCMMjvJIwyW+g1ce24+HTfmb19rr5e6NYUIzfLzv5J3pg1WHBkvf2L4VONQAQFg8a/YuFv5fNANr3qY2PU59Z3JqLisUYODGLs4gFpHYvDyjHqdnp9Lmd2HEwX/Acwhoj0nk4k8Bzc1n3DmFdQwMYA9BB5Avey4CvIm8C3p/Luu8W1myYudr9VwOvb/Wx7Tj05jTprEYtcj6vlcKkP8ntfm6vZtURcsl+e6KTDQCEWwW3/WnvJgDCToTVQmFRNQTspMvgkwdQ9uL+wL6nKd5XpLJttvVGQCmcdHrDLW9ffVprD7xn8gXPBr4CnC4sPQ38fS7r/lJY19AgxgB0GPmC93LCwj4Rdn/vlstzWfc9wppLZniEI4Ebgce38rhOAnr2WdrED2Hi2tY/WNQEo8WJHsgeGTR98ofONwAAdQ+23b2wCUBrapOT1CYnF1wWiA1kGDixd0njCCqa2XvbYwQs191su+5T2l1AKF/wLOAG4JXC0jPA83NZ92fCuoYItOAWZFgKuaz7NcL1cOk70GX5gvfPwppLYniEM4Ff08LJ30mElfTWPiEgs3ppkz/A+ANKdPKPZyB7RGsm/27BcUNDtOuOi8egFLGBAdx998Vy9757tjYxy8xfltad0Eooeh+XYejpa3DX9aGs1v2RAs9bV5+dve/Uj46d1bKD7sLc5P9F5Cf/IvBCM/l3HiYC0KHkC95rgOuQN2nvzGXd/xDW3CtzIf+PA2e36phOAnr30aSW+MS/I9Lr/vE0ZI8KsKRjO3uhGyIA89TK4XLArgWD9kR9Zoba2Nhen9b7n7CaeLaxFbWgqpm9t0Rl60zrIgJtWhLIFzxFWEhM2oCUCCf/rtj1sNIwBqCDyRe8s4Fr2eOmtIa5JJd1rxTW3C3DIxxFGPJvyfY+y4befcOs/kYnfggno61/kFv3j6Vg9VHBohIOJekmAwBhvsW2uxdvArTvUx0bw5+d3e33rXiMwaeuwnIaPxmCqmb67lmqo61raGS57hbbdZ+64YLBB5p9rLnJ/zPI5+SUgRflsu7/COsahDCByA4ml3W/AJwLSN91rsgXvAuENR/D8AivBX5FKyZ/FRbvWXdcQM/aaJO/DmDsXsHJPxmGuFs9+XcjsdTc72qRURJl2yRWryaxdi3KeewvOKjWmP7jruUHl4YVV/Q/oYeBE1fjZKSrd++ewPPW1mdn/9KiJYFPIj/5e8CpZvLvbEwEoAvIF7zzCC9Sad6ay7oflxYdHiEFfAJ4nbT27kj0hq1ypfbSTzygmN0mE3SxHFjzuACnTW2Mui0CMI83qSjcs8S/gdbUxsfD2gG70PO4NSTXyqy9lB+uUrx/qjUFhcIlgVtuefvq9c2Qzxe8a4C3CMtWgPW5rPtdYV2DMMYAdAn5gvdW4GNNkD4vl3U/LSU2PMIxhCH/o6U094STgP4DZCvoVaYV2+4WWnFRkD1C4/a17xrrVgMAMP1I2FJ4qfjlMtVt23YqKWzF4ww9ZRVKqOaC9jWz95Xx8tMtyQ9oxpJAvuB9lLD0tiRV4CW5rHu7sK6hCZglgC4hl3WvAS5qgvQn8wXvHyWEhkc4C/glTZ78lRXWzV97bCA6+esgzPqXon+/9k7+3U7vPprk4NJ/f3Yy+ZidAkG1yvTd0ZYCdkTZip4jUgw+ZQ3xwea3rdhhSUAkkTZf8K5AfvKvAcNm8u8eTASgy8gXvEuADwnLauCcXNZtqCLZ8Ag24RLFG0RHtRsSvZrBg3VTQuqTmxQzm2UMQGqVZuiQ9l9b3RwBANB+WISp0a2YtfHxsG4AgFL0PX41idXy2zC8LTVm75kgqDXW0XDRKIWTyVx3y8XZho1AvuB9APgnwVEB1IHTc1n3m8K6hiZiIgBdRi7rXgG8S1hWAdfmC96rl/rB4RFc4Os0efJXNgwcpFl9VHMm/2oRsTr/8XRYe8AQHWWHvRIa3ToZGxwksW4dyrZBa2bumUAvvdnggrhrYww+LUt8Vc/Cb45C2D75rFOu3Pa9Rj6eL3jvRX7y94FXmsm/+zARgC4lX/D+BXivsKwPvDqXdb+6mDcPj9AHfAt4hvA4dsLt0wwc1JyJH8KdXVv/YFFbWt2Y3WLFYO3jAmzp3o4N0u0RgHkaSgrcAV2vU9m2jcDzcNf20/u4JnVfArxtNWb/PNn0JEE7lfqNlUicuOH8gUUlIeQL3r8ClwsPwwfOzGXd/xTWNbQAEwHoUnJZ99+QNwA2cEO+4C1YA3x4hHXA/9LEyd+yYfBgTfbI5k3+ADOPKJHJHxU29+mUyX854fZr+vZr3Iwox8Fdt45Yfz/e1imqY00IA8zhro4x9LRVJFY3Nxrgl0rHBZ53//qrJxZ0M/mC9y7kJ/8AeJ2Z/LsXYwC6mFzWvQx4v7CsDXw5X/Besqc3DI9wKPAT4FjhYz+K2x8m+aWzzX0CrZXD/vQS9O6jSTQ5ArySifz7VSpcElizhpl7pkWbOz3mULai79ge+p6wGivevHaPfrl8gF8qbVp/9cSaPb0nX/AuBf5d+NABcHYu635JWNfQQowB6HLmuvxJJwU6wH/mC95j+oAPj3AC4eR/kPAxAVAq3NqXPUK35El6cqMSKe4WS4VdBg3NZfCQ6H0U7FSK+KosXr55UYB5ElmHoaeuaupOgaBSGfKLxb+uv2r8yF2/ly94FwEfFD6kBt6Qy7rXC+saWowxAMuAXNZ9B/ARYdkYcGO+4L1o/oXhEZ4D/AhYLXwsINzXv/qYsJJfKyhPKrwpgad/BYMHB5GqDxoWh5OA/v2jnx/KcQj8NFYLujIpR9F/Qi/pQwfBas5JElSr6frs7G/XXzX+9PnX8gXvbcCHhQ+lgTfmsu7nhXUNbcAkAS4j8gXvauBtwrIVYP0F33F7gC8BTXkuTw5oBg/RrWuUo2Hz7yzqXnSp3pymb9/OvI6WSxLgrhTuVnjT0SfT1JDGXV2jWmlNs5/alM/U7yYIKgv1Pm4MZduBk8m8/BNnplcTVuOU5s25rNuMqqSGNmAiAMuIXNY9H/mSwYn/22h/C/gaTZj850P+qw5v4eQPzG5VIpO/Cf23h8FDNErgfCmNKWKWg5tqzckX67MZeuoQ8aHmLAlo37fqMzM3/ujPNfES38D5ZvJfXhgDsPx4C/BZKbHv3Otw859iMeQ7ErY85D9PUIcpgcQ/pWDoEBP6bwd2HAYElgIAJjdZJNM26Z7WdGtStqL/+F4yhw6hLPlbsA4C9ZX/GVW33CUaZbg4l3WbUYrc0EaMAVhm5LKuBt5I2Nu7YbSGm/4Y43v3NeemmBzQrHl8QDzdFPm9Mp1Xi243uzd6c3INiAxLJ71a4/ZHNwGVmTASEHctevqdlhm61IEJ+p+YxUo0YZeA1tz+01Gu/7FAmAvekcu60jlGhg7AGIBlyJwJeAPQUJau1nDDb2P8ZFNzwqI961of8p+n7oXh/6jEUuG2NEN7GTxI5jyaekihA3BiFj0DMSy7NS4g1msz+KShprUZ/slvx/n0Dxusoxzy7lzWld5lZOgQjAFYpuSybgCcTZi4tyRuvjvGnZubMDursJyvRBZ3o0xuktn2N3Bg0IRFEcNSseMyORj1yvZS0Lat6O13cGKt+QNbcYvBJw00rYzwnX+a4Cs/bygScFku60rXGTF0EMYALGPmTMDrgEVX6vrefQ4/3ig/+Vs2ZI/UZFa3b/KvzEB5QiBzfNAU/OkkMms1jrvw+xZi5pHtS0PKUmT6YsTiLbpFKug/rofU/v1Nkf/RnRN853dLygn4t1zWla40augwjAFY5uSyrg+cCdy00Ht/+pDNd+6VX/N33DDZz+1tb8hcouKfsqCvjREMw2NRSqY2QODv3BBKKUj3Ojix1t0mM4en6DlqlXxyoNZs+PEYP7lvUckvH8hl3X+VHYChEzEGYAUwZwJeCeyxW9fvttp8/Y/yyUiJHlhzTECsOUuci6Y6i0jRn561ze1LYGiM5IAWMZizWxTBDgUClYJMX+uWAwCSuTh9x69CObJmXGvNDf89yh/2XgHxilzWle42auhQjAFYIeSybh14OWH3vp3467jFDb+JEQg/2KaGNNmjAqzW7K7aKxJP/3bMJP51Mv0H6Mh5GYEfmoAdCU1ArKUmID7gMPikLJYrW3oj8AM+cfsYG8d2W/joo7mse6noAQ0djTEAK4hc1q0Bw8Dt8689MqP43B1xasKF0DKrwypynbBHvloMy/5GpW8/meIzhuYQS0FGoHnUzBaF3uUhed4E2E7rTmg7qRg8aRA7JRty8mt1rtgwxujsTr+ra3JZ9yLRAxk6HmMAVhi5rFsFXgp8d7ys+PSv4ngCe+J3pGetZuCgznlSnn4k+k07nqbpnQkN0enbN/q2wKAOs9see84oBT39rTUBVtxi4KRB7LTsGlrVq/G+m8cpVTTAp3JZV7qEuKELML0AVijvuj3Yt1BU90x6SrSUTafVxa+VYcvvovvc1UcHXZn5v1x7AeyNmc2KyU3RJmk7BuuO233nQR3AzGQN32/d70b7molfT1GfKYnqpnuS5VRPcuiLb+iPVCzA0J2YCMAKZHiEzL1j1jelJ//+/Ttr8geZtf/kgNn2101kBBI1/druowAQ7gTJ9DvYLSoWBGH54MG/6SPWJ1t6sjhTTo5PlH8nKmroGowBWGEMjxAHvgE8UVJ34EBNz7rOmvxr5bDEa1RMs5/uQilEzsWZzWF1wN1hWYpMv9OyioHhQRUDT+wnPijbSMgvlw895YqtPxMVNXQFxgCsIIZHUITlgf9eTFTB4MGazJrOmyRnNke/Obu9ui39CgzRSGc1VsRdrX4ViqN7PocsS9HT12IToKD/hF7xqoF+sfjkU6/ctkFU1NDxGAOwsrgSOENScPAg3ZHJcUFd5um/Zx+BwRhajrKgR8CULtQ3wrLnTIDV2u0u/cf1EB+SNQH12dlTT/3I6FWiooaOxhiAFcLwCC8DRLf59B/QmZM/hOu3ewrfLpZ4Gty+zvz5DAuTWRN922atBJXphU1Auq91XQTn6T+uh1i/bHiqPjv7tvVXjf+DqKihYzEGYAUwPMLBwLWSmr05Tc/aDp0ctUzHvx5T9KersRxEek/MbF34PY6jSGVaXPFKwcAJvTg9glsEg0D5xeI31189MSgnauhUjAFY5swl/d0I9ElpZtZ2Xrb/jpQnFf6S+p48FscNm/4YupuetdGLUZUnFnc+xV0LN9XiSlFziYF2SqAb0hxBreYGlcpPxQQNHYsxAMufDwMnSomlV2kGDujsiXFmS3SN3g7b0WBoDDsOqVUR/5ZLiCgl03brOgjOoWzFwBMHRMsG+6XSEad+uPBJMUFDR2IMwDJmeISXAm+R0ksOaAYP7uyJsVZeeM12Iew4pDo0t8GwdCT6NywlpyTd29oaAQBWXDHwxCGsuFxDr3qx+EaTD7C8MQZgmTK37v95KT23d64qXAfU9t8buzZyaQSJsLGhc3BcSEZczgnqUBpf3EmhFG1JCrRdxcCJQ6iYUC6CyQdY9hgDsAyRXvd3XBg6XO+2LGonEfh737e9GKQSxwydhUgUYAnm0rYV6d7Wt8G00xZ9xw6iLJmLdS4f4CciYoaOo8Nv6YYGuRKhdX/LhuwRQeQGK62gWIi+9U9i65ih85DY0lktQnV28e+PxS2S6dafTPEBh/RhA2J6fql05KkfLnxcTNDQMRgDsMyYW/d/q4iYgqHDNI5cgnFTKe6hdvtikSoeY+hMJIo6zRaWdo65KZt4ovW32dR+Cdxcv5hevVh8k8kHWH4YA7CMkF73799fd00hnFopTACMgkT5WEPnIlHWuTy29ChTqsfBaWEL4Xl6j0rJFQrang8g5yoMbccYgGXC3Lr/1xBa90+v7uBCP7uhuMQns93RqVUNDXJE/RsHflgXYCnMJwW2ulwwQP/xvVjJiK0R55jLBzBNg5YRxgAsH65EqMNfoifs7tc16Oh1/2MpTNOfFUBqKHoya2l06Z+xLEWqp/X5AMpWDBw/gHJkjm3yAZYXxgAsA4ZHOA2hdX8nAasOC7pqG5w3pfBr0TTM0//KwHIg2R/tb11u8HyLxS0Sydbfcu2URd/jhpC6qOfyAeQ6ihrahjEAXc7wCH3ApyS0lIKhw4KuWwcvNvBEthMqfDI0rAxS2YgCESJOyXSL2wfPEV/lkDpAaPk+CJRfLn9NRszQTowB6H7eB6yREOrbL3qSVKtpZE12V5L9GrvLTI+hcZJ90f/epQbrTSgF6Z7W1wcAyByaJNaXEtEKKpUBsxTQ/RgD0MUMj3ACcJ6Eltuv6enC+vfl8eh7/9NRnwgN3YWK3h+gWmx814kTU7jJ9hSb6HtCn1ilQL9UOm/91RM5ETFDWzAGoEsZHkEBnwQi30nsGAx1eI3/PRG58l8sND+GlYVEzkejUQAAN223vF8AhD0Deo8eFMkH0L5vBZXKbQLDMrSJ9sSiDBK8HniShNDgod25/92vQmU6mkZ6qDPr/gd18GsQ1BR+HbQPOgiXPHQQ/jsIdn1dha/v8B4dYZ4rjSnKEwplg2WBssNiSZYdZtI/9nW2v26D5YShdjtOx5WRjiXDXR/VYuMaxVFF336N/YKVCusDzExGzF5tgETWwd2nDy8/GVnLL5WOO/WjY8O3XDh0k8DQDC1G6Sh3CENbGB5hFXAPELlJR+8+uuGbWLuZ2aKY3Bht9l77+ICYzLLoguhgflIHvxb2mN/+7+2vBXUiL2t0GsoOI03hf6HhnP+3FQ9fs2NhRKZVhmx2q2LiwWgHW3NMQDzT+OfLRR+v5EcaQ0NoGPv5OH7RiyxlxeMzdjrdv+H8gWV21i5/TASgO/kgApN/PAN9+3bn5A/h+n8U4mnEJ3+/CnUP6hUV/n+Hr4M23Oc7Be1D3Q9/H7tvKbn9NTsGdgJibliG2kmAM/e1JXjHSg1pJjeqaFGScUU807hAMm1Tqwb49RZfhwr6j+tn/OcFtB/txAyq1R4rkfgccI7M4AytwkQAuozhEZ4K/JiIjXmVHT79OjJFwlpOUIf8nRZEOH37D2ig2qGGehXqnqJeYfskP/fv5fbk3mlYdtid0tmNOWgks3/0XhXJSDourHtCtD+6X9dMT7R+KQCgnK8yc3fUfbSgLCtwensP3XDB4AMCwzK0CBMB6CKGR7AJ9/xHDpL276e7dvKHua1/ESZ/pSC9QCZ44Ic9BqpFRa0I1ZKiXo62rm6IRuDPdeUr7ngJhF8ra76ioyaeglhaE0vuPf8gnYXyeOPjqXvhboBYsnEN21Ek0zblYutDRMlcHG9LmtpEhGQIQAeBFVSrtwHHyIzM0AqMAegu3gocG1Uk0RO2ve1myhPRPu8O6J3CyX4NakUVTi4lqJXUXLja0C3oIGzXW52dNwcK1FzCX0oTS4fmIJbi0fbWYU2AaJUkyxOKWDLa9eSmbKqVNiwFAL3H9DL+My/yUoBfKh196kfHXnvLhUPXCw3N0GTMEkCXMDzCPsCfgZ4oOkrBmscHkZ5Y2o0OIH+HFSncnlkdGoBqKZz4o5YSNnQXjrvdFFSmwJtuPKgWz4TJgFFp51JA6cEKs/eNRdax4vHiXEJgXWBYhibTYZtzDHvhw0Sc/AF6c7qrJ38Ia/9HXWuf3aaYfkThTZrJfyVS98IEvqmHVKTJH8Kog8Q5ZDuKeKI9t+TUgQmcnug3hqBaTet6/QaBIRlagDEAXcDwCM8BzoiqE0tCzz7dH/GJGv43GKSJWo56nmTaFsjwaYy+Y/pQVvQpwS8WX77+qvEjBYZkaDLGAHQ4wyPEgU9IaA0e3F1d/naLlrvZGgxSSJlSy25fmWA7Y5Hcry+yjg4CFVQqtwoMydBkjAHofM4Bjogq0rNWRypY0ilUZsMtgAZDJ1GZCqswSuCm7LZVTswcmsRORd8e5JfLh67/6NipAkMyNBFjADqY4RFiwDui6thxurba3zx+Laz8N/GAOWUNnYfWYU2B0mh0I6AUJFPtiQKgoPfoPpFyjEG1epXAiAxNxNxNO5szgQOiivTvpzuuFvti8GthudZtd1s8cqfF5EbVcAc2g6HZeFOKsb8q8ndaoRkYazxZNZG0sdrQLAgg1u8QH4oeLvTL5QPXXzX+HIEhGZqEqQPQoQyPYAHvjKoTT0dvfdpKgnpY4rc0Prc1q3uGbjAA4TbV8riiPA7KUiQHNKnBsOvkUox4Mm1TnG7PelfPkRnGf1pEB9G22wTV6icRWMI0NIcufC5cMZwOHBZVpP+Azq9NG/hQLCgK94RPT+MPKLwpM/kbuh8dhF0VR+8Nz+2xv4YdFhdTfiWesHBi7YkC2K7C3ac3so5fLh++/qrxJwsMydAETASgAxkeQQHvjqqTGtIkIlcOaA7aD7P5S+PgTUZryLJSUVa4VKusuXK3O3wdfk/v8PXce3b8zNzcovVc++Bg+9fs9G+10/d0AOzyGcPCaB9Ko4rSaJjtnxyciwz06T1u/Uum29MyGCBzWJLK1lmCWoQohNYE1epnEahgapDHVALsQIZHWA98M4qGsmDtsZ3V7EcHu0z6nR+caB0KbIe5NrnbW+M++n8HrPnXnb3Xt28Hu7Y6nm9xHNTnWx1DUFOPvmbYjuWw3Qz0PtYMFKfrVCvtuVhKmyrM/iVihUCliPX1PWHDBYO/kxmVQQoTAehMIj/996ztnGY/5cnwqac8sTInfTs+17EuwU4Te/j19km9m1FW2JmPBOx57UY/+j+/vt0sbDcO4X91L2y6tFLaJwd1KG5TFLeBHQsjA+msJp4Ov59M220zAKn9E5QfTuCXKo2LaE1Qq10LnCQ2MIMIJgLQYQyP8Hzgu1E07FjYolS1aScRhE+ExVHFzOaV0VRH2RDboU1tLBl+HXNp69+hmwnNQGgIauUd2i57K2PZIdEDPes0yQFNadanUm6PI6qO1pn8zbZoImEU4PANFwzeKzMqgwRd/tyxLPnnqAJiKTNUAAAgAElEQVS9++q2TTrzW/dmt6rlF+pV2/vPx1xwktsnfTve7sEtP+ajJImeHWd7DRrqlTlj4EF9zhzUPIVfbdtwxanMQGVG4biKzFrwK1XsNlQJjK9yiPWnqU1GaBkcRgG+APyt2MAMkTERgA5ieIRnAj+KomHHYd1xrS/5WyuHhXpKo8sjzD/fWz6RCSsoxlLhk33Xl1Je5uggPBdrJUVlrjVwrdTuUclQHRtFqTqZQ9LEBmItPXZtymfiV1sjaSjL0k5v7wEbLhh8SGhYhoiYCEBnEXntv3cf3dJJyptWzGwOk/q6GceFeEaTSEO8J+wZbyb77kNZYe2LeFqTzgJotA/V4rwhCE1BN3aAdHp68R5+mIk7SjgZl9RBadw1rUn0ifXZxPpS1KYad1M6CFRQr38eeJ7cyAxRMBGADmF4hJOAX0TRsGNzT/9NzhDXGspjiunN3fl0ZdnhZB/PhL3cExnd9Ul4hqVRr4RGoDoLlbkoQTdEripbtuCXtl90thsneUCG1L5u07sIVsd9Ju+MHAUInL6+dRvOH4iYVGCQwNz2OofIa/8965pb8jfww2zlmS3dtdYaS4ZP9YlMOPHHorc9N3Q5TgKchCY1BKDRGmrF0AxUZ6Ey3ZlRAqevbycD4HtVZu8Zp3S/Q3LfHlIHuqgmlRCOD9o4PSnqM5GiAJau1T4HmEZBHYCJAHQAwyM8AbiLCB7ecmCf45vz9F+vwOwWxWxBruNZK9nn+MAk6RmWRGlcMXZvZ64BeQ8/TFDdvQNXto27tof0IS5WXP5mUBmtMxVxR4Cy7cDp7R3YcP7AtNCwDA3SYeVEVixvImIArxlP/3UPxu5TbP6txcyW7pz87Rhm8jcsmXi6cx+MnL6+PX5P+z7l/CRjP97G1O9nCaqyP0dilYOTiRZC075v6Xr934WGZIiAMQBtZniEBGHd/4axbMiskbvQgxpMPKjY/DuL0lh31+SPZ7p48Ia2MV+0qRNxMhmUvfftgDoIqGydZuwnW5m5p4z25a6D1EHROwUG1eoZAkMxRMQYgPZzCtAfRSCzVmMJbA/WAUznFY/81mJ2a3dP/PPEo9+rDCuUjjWPSu01CrAj2g8oPzTB2I8LlB6MUM1vB9w1MeyUG0kjqFRWrb9q3PQHaDPGALSf10T5sFLQI/D0XyyEof6ph7sz1L8njAEwNMp8Kd5OxOntXdI+1aBWZ/a+MUZ/PIq3JXp2Y3L/6L8cXa+/L7KIIRLGALSR4RGywD9E0UgOaqwIoUpvUrHl9xbj93dOZr8dD+sZrD02elJjJ6/lGjqbqObR7dWsPjognZWvzKksC6dn6a0+A6/K9B8KjP9igtpE46U6U7kEyom2iSyoVJ4bScAQGWMA2ssriLgVs9G1f78Ko/coCvd0xl5+ZYXti7NHavY5PqBvv/DnirI3O5ZEZGnEsDKJugRQLSkSPTB4sCZ3QsDgIZpEr9Dg2Hsy4ELUZ8pM3LGNqd/OENQa+DkVJNZEc0hBrZZc/9Gxl0USMUTC1AFoL5HC/7FU2DBkqcxuUUx2SKg/noZ0VpMaemwxnlox2jasjl3DNXQFlh2ayFq5sc8H9dBo2/HQ4KZXadKrNHUvbJRVLESLulmxGFYiQVBpfG2/Upih+tMyPYf24+aWtl0mfWAS75GpSJ2Zgnr9HcDXGxYwRMJEANrE8AhHAydG0cisXtqFVyvD1j9aTGxs7+Rvx8Jti2uPDVjzuIDMmt1X4qtGjEyY9X9DVKIuIVV3Y2IdF/r2DSNd2SND89voUpeTiX6S61qd6btHmfj1FL63+J/XTipifalIxw4874T1V0+YjbptwhiA9hEt+c8OnygWg9Yw9bBi6+8tqrNRjhqN5IBm1eGadccH9O+/cEW+qEsTZv3fEJWoJnKhc9jt0wwdqtnnhICBg/SSEw/tTEasaUVtssj4z7ZSfHDx/btT+0czANr3Le37l0YSMTSMWQJoA8MjWMCromikhxaXWFSZgYkHrIbDmFFRFqRWaXrXhd30lkK11PiNTVkQj3ZvMhjmlpEaPw8XG8Wy7DCil1mtqUwrphfZYEvZNnYyuVN54ChoP6B43ziVLUl6HtdHLLP3Z8TE6hhWIk5QaXwtQ9dq5wBmR0AbMBGA9vB3wL5RBBZK/tMaJjcptv2pPZO/ZYeZ/OuOCxg8aOmTv18LCxI1SjxN05ujGJY/sRSRdqI0kseS6NVkj9CsfXxAapVe8DxuZDfAQtRny0z8civF+xeOBrjrom0J9D3vwPVXT6yLJGJoCGMA2kOk8H+iJ7wx7Yl6Bbb9yWJmc+tnQDsO/ftvz+RvtJqaSQA0dAJKRasHUK+ETbQaIZaCoUM0+xwX0LN2z3kCdiqFsppwKw80xf/P3pvHyXGWB/7ft6r67rk1o3vkE4MNmEu2ARsIbJIlCgG8KCcRiQ0Ek8OGKEuWhE1+SRaSXe0GsomMEyBEIWGzSoIMv4EECCFAOHzftyxrJI2kufu+qurdP2rGGkmjme5+36rqnqnv5zMfjWamn3q7u/p9nvc5n51l7p7cipUC6R1JtetLGfUECIkoBBAwuw+QAW5UkZFeIfZfnhXMPSva3nTaJZbyEvvSG6SWkKRyAmAHN3EJAgOIG5BY+Hr+eyGe/5llQMOF2sJX1ZXPf7/41U6F2FojnpHUCu3f1I1ye9U6i5hx6N8h6d0qKZ4WFE6Ls71jQmBmMtiFQvsXWQEvN6BO71WDxIfOjzsaMYHVn6Yx236CkVuv3wjcrLDMiDaIDIDgeTvQfmqRgPTg+buydGH+qKA4GeypP9HjKf7UgF5NoZwAuA48AAYwGIfhmGA4DiNxGI7DcFzQZ7UTATn/Ea6EeRum6pKpBkzXYaoOUw3JbMP7/VpHNRGwXhIketRfKMOC3q2Sns2S0pQ3ltte8NBbPT2+GQAAbr3B/AOTpLf3kX3B+e7H1KakmgFQq/W/7eOz1x26bfD7KuuMaI3IAAgeJfd/sneZevkKzDwdbKw/noX+UVfpZLMSy5VPNYsZ84a5rCVMAduTcGlKsCMFI3HBUMz7uZ8YAgZjMBgTXHHWbwSOhNmGZxwcr8EzZXiuIrHXmFGgmgiou9GWMLwcoOyIpDwjyB0X2CQRloW02+/utypSUh6fpz5Xp+/qPszkmdckuSlO4UkD6bTfucu17d8DfkTDSiOaJDIAAmT3AbYAb1KRkR46+//lGcHss0KpY14rWAno2+7VLvuFdHn+ZNMOsXT3ayBLwI4kXJoWXJqGHUmBD+PdlTDFGY/DlVn4kSGwpeBIRfJMGZ4uS45VQeMgulCwEl7Zbbu9MxplgS+TtYQXDkwNSgqnBI25LI25ef3XOQe7UGb2+3X6XjJ0JiRgQKw/Q32mfS+EW6u9XtMSI5okMgCC5UdRSLwUhtf7f5H8hCB3LBiXv2F67sfsxvabljSL6omp1YqDTmEkDi/rEVye9k75VhdWMVgCLk8LLk/DmxHUXXh2wSB4pCiZ7JB5E60SS0K91N5jG2WvKkdTuf55CMOruIllejh9j0ttqqDUna8ZpG0z/+AkPVcMkVroIJjcnFQyAGSjEX/bx2dfd+i2wW/pWmfEykQGQLD8kMqDk30LY38lzB7xWon6jRCeu7F36/Ld+vygUVF7Xt1kAPRa8PIewSt7Bdu6aN3NEjfghRnBCzPw48OC8Srcm5fcn5cUO6AVdbNYSdl2WEpKz6O1WuMrVVK9Jv1XZ6nnUhQez2MXfI4JupLC49M45QGyl6dIboxReMJE2u2/sdJxbgIiAyAgIgMgWN6o8uD0kFdSNPO0oJrzX/mnBiX921uv4VdFxf0P3mmtk0ka8NIewSt74bK0WFftCkaTMJoUvHVY8ERJck/e8wx0et6A6mfArgpiKZ+fpIBYwkD2wuC1A1QmMpSeyeHW1cf/rkT56BxOxabvJT3EB9KeB6JNpG1HYYAAiQyAgNh9gMuBre0+XhhebHvyUf+T/awEDFwiSfaGsyvb7c82AbzTWidyeVrwmn64Kiu60r2vE0PAlVkvd6DqCh4sSO7JSQ6H1LFyNZQNAMV7ulniCYN61UsISm2Jk9y0geLTZaonCkjXv0Sh2mSB2bsd0tszSgaAW6+PalxWxCpEBkBwKJ3+zThMPW7g+GvM07NJ0rfd/zj/SthVhRbAorMqAATw4qzgTUOC0Q73TIRF0oBr+wTX9gmOVuHrM5LHitKPtLm2iSXVKgFUvVrNEosbCHEmBUAYgp4rMqS3pcg/XqAx32YiQxPY+TLFwzbCMNo2NqTjGG/7+OyuQ7cNjmleXsQyRAZAcCgZAH5vIFYSBi/xr6yvFVSeq5mgI1oAmwJe0St406BgJJp11jQ7knDzVsHJmuDrM5IHC5KAClxWpFs8AOCFARa9AIuYGYOBV/VRHk9ROjyHdPxJwHCr6lme0rb3AJEBEACRARAcbwh7AcsiFk7928I99S/i2u23ToXFk1p4xA24rk/whkFBf/TpapvNCfj5LYI31wX/Miu5Jy9DLSc0LO/LbbPM3vNqBfMErNj5BsAi6dE4iZERcg/lsPOaGxRowrXt68New3pBSJ/LRSJg9wFeDDwc9jrOJZaCwUvdjmqbWy/C6Ufbt0R6Nkn6dwR/T5sCXjcgeOOgINPElMaI1pi34V9nJd+dD88QOP1o++O0hYBtO91AvFOOI8nPrh4rLD1XpfzsvK+5Ae0gDENafX3xQ7cO+NjVKAKiYUBBoVT+5wc9myQbX9JZyh/ArimWAPpcarUcL8gIfuMig7cMR8rfL/otePuI9zpfng4nxqPiXZIS7IB6IJimQBirv0aZi5IMXjeCmems5BTpukK67k+GvY71QGQABINS/F8nwoShy7xTsl+NSVRQzXUIsmRxIAa/sEXwvm1RnD8oRuJwy3bBni2C3oBDLKrGpUpya6tYseauZaYNhl49SGr7gH+ditrBcX4m7CWsB6Iopc/sPoABdERtaywFQ5e7vjckUUG9B4D//mFLwA8Negl+ndaed73wsh7BizKCf5qWfHteBjKUqJsSAa2YoNHC9XquSBHvj5F/bMa3BMFWcG372rDXsB6Iti//eRkwEPYi0oOSjVd1tvIHtRCAMLxyST+5Miv40MUGb94QKf+wSRjw1hHBB3cYXBzAfa1qXAZVCggQi7V+cyY2WgxcM4yRDL+O1q3XN7ztE3OdFZtYg0QeAP8J1/0voH9U0rOpO5I9VTZJP93/CQP+00bBq3o7yE26DLaEmQZM1iXTdSg5UHOXfEmouZK6C3XXq1qIG5AwBAnhPc/Fr7TJwphhwYYAJg+2y5YE/MqowV05yaFJSc2nnDb1boB61tEMpiXO6gfQLFbGCwnMP5CnMedfz4BV8fIA3gXcEd4i1j6RAeA/oSUAGhZseEFn1PY3g3RRanTkl/t/awL2bDEY7qA4vwscr3rjd6fqMLUwlne+0W6x2UqPkhh4OQ8jcbFgFHgtfbcmO6LtAgKvmdAlKcFfTbhM+OBuX/QwOW0m83nereAMcStm0Ki3bg0JUzDwyj4KT1pUjuV8WFlzSMfZTWQA+EpkAPjI7gNYwA1hXNuMwfCLOt/lvxT1FsB61rGU6wcEPzEcfuteCZyowjNlb7LesxXJBUq9fcHF8yzMNCSPP38wlCQNb2TxZWlvrsGWRLgGwXAcbt1h8IXTku/n9CvbWFLi1Nt7hkF6AGAhD0Ch8qDnigxWJk7xqZlQSgVlo/GKwC+6zogMAH95FRD4+dtKeMq/k1riNoOjWgKo0QBImfDTmwQvyYanzioOPFiUPFqEw+VgFX6zVF14dGGNIEmZcGlKcEUGru4RZEMoi4wJ+MlNgkvS8PenvXCHLqwkkG/vsdL1mlwZAb0mzVYCrERqWwwjsYH8w9OBGwFuvT7wtk/M9R+6dWA+0AuvIyIDwF9eE/QFYykYfqHrezKcHziKbT90PeeLU/DOzQYDMT3yWqEhPYV6bx6eKIXb/a4dKo433e+RInxhUvLCtOCVfd48BA36qCVe1SvYnhR89oTLaU01+Kr3mNsIzgAwLT1Zqolhi96XDpN/eArpBGgESIl03Z8iCgP4RmQA+MsLg7xYPOMpf6NL39V2Y6uLmDF1bfn6AcFbhgVN9FHRhgs8VZLcl4eHi/4lsQWNK+GxkuSxEiQM+fwI5MsDHIG8MQ4f2GHw96e9dsKqGIpGoVMPrleFEJ4XwG6oP+/EBpO+q4fJPTgdbJmg615LZAD4Rpeqiq4hMAMg0QMbrnADO134gas46VDF8BHAT4wIXj8QnOZvSPhBTvLNWUkTnVu7mpoLd+ckd+eg35K8YVBwXV8wpZRxA352s5ew+MVJtSmDpuKO6TQCTgS0DOyGHoUdHzTpe/kQufuD6xUgXfeqQC60TokMAH+5IoiLLJ78O2GYjwqqo47bPZ2ZwlMQL+8JRvlXHPj3ecm35iTF8HuuBM68DYcmJV+fkbx+QPDaAUEygHv39QNeq+b/c6r9xkFGTG0ssN/jvM/Figmo6JMX77fof8UG5u8LxhMgHWfU94usY3w3AD734K8OFQr1/whcCXJUSrZIybDryn7DECXDEJOGwTEhxBHDEE8KwSM3X3P7A36vy292H2AAGPH7OmbcO/l3u/IHNQ+AYbXXyTRpwC9uFYH0l8/b8M05yffm146bX4WiA2PTkm/MSm4YENww4P8shVf1ClIG/NWExG7DCDAVQwCqXq5WMX1IvIj1mfRdvYHcA1O+JwZKxxn09QIBMTa+V5w8Wbq2XneuF0JcLKXcKiWbpJRDQNwwxLRhiAnDEEeFEM8YBo8JIe65aef+WT/XpX0a4B+O/YLR2xu/Ebip0XBfXa06/a1eIxYz7FTKejgWMw+YpvjkTTv3B1xAo87uA1wHfM/PaxgmjHRBd79mOfWQQaPN00osBZte2tpm1GvBe7cZbPG5WqLmwldnvBN/tyX1BUncgBv6BT885H9o4HAFPn3cbbmywnXgxD3tLy4zLBm8JNibYH663nJDoGYoH6tTfHJav+ClCEGsvz9z6NaBzpxdvAKf+Ma7d8Tj5q84jvuWWs25rNFwWzJvhRCkUuZUImF+1bKMfX4cjLUZAGPje68A3gm8tVy2XzIzUyGXqynfeKYpZCplPRePm39nWcZHbtq5vytGRO4+wLuAz/p2AQHDV0iSfWtHo5y412h73nqiB0aubH43H4nDL23zP9P//oLkzklJvivu2s6g34K3jQhe6nNI5kQN7jjmthyGOX6X0fa+luqXbLgi2M9sfq6B0467oxnZj5epnvC3Si/W3//mQ7cN/pOvF9HE2PjeGPAO4EbHkW+em6tmZmaq1Ovq4ZJk0iomk+Z3YzHjt2++5va7lQWiwQAYG9+7Ffhd4BeBsywc23aZmakyO1vFttVdRYmEWclmYx99z3Wf/ANlYT6z+wAfA37TL/kDF0uyI2tH+Uvpbaztkh6UDF3e3OuxJQG3bDd8dTefrHllcM+U1857FDQvyghu3CgY8tFIm6rDHcfdlpIwJ+432q5YiWdg44uDjf8U8zYNH2NOc/fkaMz71zbY6u392J0f3PBh3y6ggbHxvQLYDfw34LJzf5/P15mZqVAsqseAhBD09MTuSiatn75p5/4jSrLaNQDGxvf2Ax8CbgVWdEI7juTkyRJzc3o8+amUNZfJxH7t3dfe/jktAn1g9wH+EXi7H7J7Nkv6R9eWYnHq3sbaLtmNkoGLVn9NTAEf3GGw2Se3f9WFf5qWfCegCXVrHUvAfxgSvHHQv26MORs+cdRlvkkvzelHDOpt6jszDlteHqwBUCk5VMv+JexJRzL7vRmcqqZmC+dgZrNf/uLekV2+CNfA2PjeNwJ/hNf4bUXy+ToTE0UaDfV7wDSF7OmJfyUeN3/upp3723LDtGUAjI3vvQX4A6ClBI1SqcGJE0VqNT03YzYbO5pOx9500879h7UI1MjuAzwGvEi33HgWNl7pdkYDdo3US97G2i592yS9W1e/l39sg+A/DPnz4h2pwF9PNK9IgkDgDfVZOuQnaXgx9pjwShHrLlQXBgQtDg0qOUEWq63Ohjj87CaDi3zKd3m8JPmL480946knBdX59u4hIWDbNcEaALWqS7ng703plF1mfzDlS2WAmUo9/cUPbX6BdsGKjI3vHQX+HPjRVh7nupJTp8rMzOgpz7Asw+ntjf/xe1/9yd9o9bEtGQBj43vjwO3ATa1eaBEpPW/AzIweb0A8bjT6+hJvv/ma28e0CNTA7gOYQBnQ2o9PGJ77cK0k/S2lOi+YerJ9xdxMSMQS8LHLDe1T7STw9RnJP09LwkruTxleaGPDwrCe4ThsiAk2xGmrA58tYbruTRWcqsPkwoTB0zVCa0lsCNi1QfCGQX8aCf3tyeaaBc0eFpSm21/B1lcG26zLrrsUcv5bpeWjNYpPz2iXa8TjhS99eFuvdsEKjI3vvR74BxQqvcplm/HxvBZvAEBfX+I7iYT5+pt27m9aYNO34dj43mHgH4Hr21ncIkIItmzJEo+bnDypHjeq193YzEz1S3/x/ff93nuu++TvKgvUwyVoVv4AvVvlmlT+oF4f3UyDlq0J/SNt8zb8zUnJ0wHH+tMLPfcvTXvDeHQP4bEEbErApsRSqSLUoUSuhC9NSQ5X4Gc3CdKaczh+aFA0ZQAodwNsqDWtahUjoDnO6R0JqqdT2HmNjQcAadtZrQIVGRvfezOwH8U9Pp22uPTSfp57Lk+1qm6g5XK16zOZ2LHP3P3+l9+0c/9kM49pygMwNr73pcAXgR2KazyLfL7OsWMFXE3B0v7+xJff99o7Qo8V7T7AjwNf0ilzrbr+F8lPCHLH2n9yI1euPvb4+gHBjSP6XsDHS5LPnwyumc/mBLyyV/DCjGBzyFP3FlkcS/x0SXJfQXLShzG8yzEQgz2bDXZoNIhd4DefclftD1A4KZgfV7hXXyRJ9AZrMM5N+ROfPxen7DL7/Unt/QFi/f1XHLpt8CmtQltkbHyvCfxPvLw3bbiuZHy8QKGg5z1KJMxKb2/8jTdfc/v3V/vbVYOuY+N7rwH+Hc3KH6C3N87FF/dhaGq8Pj9f+7E/+9Z7O6GJkNYWwMKAwUvWrvIHkIpKtJkGLbpKyyUwNiX51HH/lX+/BW8cFPzGRQa/cZHBGwfDH7m7FAMYTcKbhrw1/vpFBq8fEPT4fMKda8CfHnP5tzl9itSApnpCqHoA3BC6P5oBeQHMtEH6oj7tcqWU/0G70BYYG99rAH+PZuUPYBiCHTt66e/Xk5lcqzmpubnav3/6rltet+q1V/rl2PjeLcAXAN9cMOm0xehoT1td3JajUKhffcd3f+lv9UhrG60tgNey638R1U2xmU15QsPp1JHwuQnJv8yq9ZRfCQN4WY/gl7cbfORSgx8fFr5VLehmawLeOiL4nUsN3rNNcHWPf4N/HAl3Tkr+5qS+iotm1qo6D0DV2G2HoMIAAJlLUlgZzROPXPcavQJb5qPA2/wSLgRs25Ylk9FT82rbrpHP1//5M3e/f+NKf3dBA2BsfG8SOARs0bKiFejpibN5sz4bY36+9jN/8f1bfk2bwNbRZgCYMejZ1En52P6gsikK0dyI1eNVtdex6sKfH5fcX/Dn/bAEvKZf8F8uMdizxYvvd8pJv1UMvDr+d20R/ObFBtf0Ce35F4vcm5d85oREdeidI73mQKthKE6d9Ll77rIEaQAA9Fyp1wsgXVd7RVWzjI3v/Tm8kndfEUIwOtpDPK4nuaVWc5KlUuOBz9z9/gvq+ZU8AJ8CdmpZSRMMDSXZsEHPMVdKmJ+v/nEzLhCf0BYC6Nks10Sf/9WQCptisy7Z6sJEunbI2/Bn464vyX4pw6t1/8glBu/wufFNGAzH4ac3CT58scH1/f7U8z9WknzyWOutfZdyqk5T8wFU5wGE4QEwA54SGuszifWltcmTjqM9BN0MY+N7d+LpwkCwLIOLLurVFrIplRqbajX72xf6/bKqZWx8738Gfk7LClpg06YMyaSe4KHjyEUXiO8DeZay+wBpYFiHLMNiTXX7WwmVU1ErI5APTUlaLYmerMOfjLtNnQ5bwQBeNyD4yKUGP7bB/7h52AzE4MaNnqHz2n79oYEjFfjTcbfl93eRr88091lTHbmtYuy2S9AeAIDMJatk5baC4+hPLFiFsfG9m/G84JrjGSuTSJhaPeK5XP01f/699318ud+dZwCMje+9GPh9bVdvASFg69aMNnm1mpOs1Zy/1yawObTd9T2bJCJgyz0spNP+BtWKh6TieONg601uwofL8L/HW2sV2wyXpuDXLzJ420gwo3A7iR4L/tNGwW07DLZp3lonavC/j7X+ft2XlzzYbGhH8f1ay0mAS4kPmVhZXV5dGYZ5/EcEEAJfjoGBhLZ8AIBcrvZrn7n7/dvP/flyt/JH8aGGvVnS6RiDg/p2hUKhfsOn73r/S7UJXB0tBoAwvfa26wWVTbHVEMnjJcl/f87l8ArzxWou/MNpyf5jLiWNG3avBe/cLPjlUf/aEXcL25PwgR0GN2o2gqYXPDaHmyxHP1aFf5xs/rOmmrC81pMAl5K+SNNJ1m1tkp4qC6XvgXvBl7J1a1ZbcrzjSFGt2v/33J+fZVWNje99JfBTei7ZPps2Zcjn61oGCLmupFq1/xZ4sfrKmkKLAZAdkYE2CwkbFbeoEK0bSrMN2H/M5cqs4KIUbE9AxhJMVCXHa/BwQWpv6XtNn+DtI4LEOjvxr4TA689wdY/gC5OSBzQlWOZt2D/ucsOAYNewWLYboi29uQ3fnG29g6Mw2r9nw0gCBLwXO+AzRXJTjNLhBE5FLX4mpQzagvlD9FUOt0UiYTI8nGZyUs8k5GKxcd2n77rllTdfc/u9iz87V8X8dzog8dg0BUNDSU6f1vXE61d9+q5bfvjma27/mhaBK6PFAMgMr5/TPyieitr8mErg0aLk0eLSn+gnYcA7Ngpe2Rv6RzRrcvYAACAASURBVKtj6bFgzxbBC3Lwj6dlU8l4qyGBb815rv1LUoJtSdgYh+mG17zocEUy12ZoR4j275YwPACwsOYQtpXE5gzlZxUTaKTkbZ+Yyx66daC4+h+rMTa+9w3Am/2+TjNs2JBierqipVme60oqFefzwPNzFZ7fOsfG974ZeKPyVTQxOJjU5v6QEspl+zN6pK2Kss/LSrDm6/7PReVUpOs+8YOtCW/6YKT8m+O6PsGtOww2aAxC5my4vyD50pTkUyckhya9nv/tKn9oPey0lDCSAMErMwuDlK5Yl5Qr1rRr5I8Cus6qmKbQ1iAIoFisX/6pH9zyfD+DpbfxB7RdRQOWZdDXp++Jl0qNbZ++65ZVxzVqQNkDkBpYX6d/UOwD0KEu9df2e8psOLSMmu5k0Wh6aU8HG00KS3MVEl5VCMtQNlMCM6VlL/fdABgb3/saIOymQ2cxNKQ3U7ZWcz62+L0BMDa+tw94g9araED3E2803JbHJbaBsgGQHNCxjO5B9UTUaQaAAfzkJsF/2ujfDPu1TtKAX9gieOuIf50EVehOD0A41wWIDWpwaUoZREn3WwO4Rkskk5bWioBKxX7BYnOgxRyAHwM6rv1IOh0jkTCp1fQEzWo1J4h+0koGgGFComd9eQBUy6I6KQQQN2DPZsGV2fAXZUsvGc77kt6/zpmflR1JxhT0WtBneRUKPRb0Wd7Pekz90xNb5fUDgn4LPndS4nTQx0LlngsvByCELMAFUpviVE+oyZCa+qusgm/tflUYGEhQKumpRbZt13BdeTPwF4sGQMdZPYtkszFtBkC1ag9+6ge3jL772tvHtQhcHqUcgGS/7CiFFgRrxQOQMeHdW/VOqGuF6To8WvKSGk/UJJWmPjbLKQTvZwLvOW1MwIuzghdnw+lSeHWPVyb4lxPN92/wG5V7LtQqgJCIDVgYMQu3oVBaI+WgvhWdz9j43heyJEGuk8hm9cYR63XnJuAvrLHxvXE6JONxOTKZGDMzVS2ypATHcT8E/LIWgcuj5AEozwjKM+vMAlCkEwyAwRj80rZg4/0ucLQCjxQljxYlk5onvkqg6ECxDIfLkjsnJZuWGAPbk8HplCsyglu2Cf78hNukYeMvSgZAA479IPibtpGr0JiZCfy6GhnyWX7HHoRjMYN43KRe13UYdl4BXgjgDUCvFqk+oDP2AVCvu2+hgw2AiDYI2V5KmfArowb9AfRtaEh4bKF08fGS1NqkqBlO1eBUTfL1GUmvBVdlBS/OwuVp//MddqTgV7Yb3HHcJa+5R0OreL0nustQ767VLoOUfmdHdawBAJDJWNoMgHrdiX/6rlt+xAKu0iLRJyzL0JoH0Gi4fieSRAZAwITtAbhxRPiu/B0JP8hJvjojQ1d+i+Rt+N685HvzkDUlP7JB8Gofp/4BbE54YZaPH3Vbbt6jlQ7wOrVMt8cWpfR7HkBH68JMJsbcnL6BJI4j32gRUq/jVtBpANi267eTVt8Uh4imCNMAuDLrb4MfCdyfl3xlWjKjeR6BToqO18Dn23OSXRuEryV825Lw+kHBv86GlxXYlbq0Kxd9Bumjp3psfG+GDvaEAyQSek8ZUsqLDbrAALAsfTu860qx/9vv9TOWFHkAAibMfe0VPr7bj5ck//M5l8+d7Gzlv5SpOnx2QvKJcZcjTfbib4f/uMF/r8tKhO11aosuNwCQ0s+9tQv0oN73z3Xltq7wAOg0ABbkvRT4V61CzxAZAAET5ma8Lal/Uz1SgbEpl2d9VKB+c7TiTVF8cVbw48OCEc1+t5iAy9KCe/LheAG6UZeG1QlQG1LqGxV7PutODzqOHOkKA8CHUZZXEhkAa4awDIC4gdas/7oL//e05L6QlJofPFKUPFaUXNsv+IlhvYOQwpym2JUegG5nnRsAhiEQQiA1DXRwXTmw7kIAAFLKy7UKPJsoByBgwjrYNFxvbLAOZhveCNu1pPwXcfGSBf9k3FXqv38uG8NssdyNBkCXewCklHpbw55Nx+tB0BsGcByZ6cbbuNPpkBzt9UNYKlMCJzS0qHi6LPnjoy4T+hJ8O5KTNfjjoy7PaQpthJoXsfbstI5HCNEhbaDWDgYwEfYiVsO29b7vQointQo8m4KPsiOWI8Rt4WhVTRN8e05yx/Hg6/nDoujA/mN6PB3H9PQHa4uw+vkrEcYsYJ0IoWc+/PJ0vB4EsHXMyV7ANEXJwnviHdn+cBFHfxPwx3QLXEJkAARMmJvxN2YlO3sFPS1mpNsS/v605K5csJty0jjT8z9tCEqOJLcwG6AR0FJs6fX2n6zDj25ob9iPI+HZSngKrSt1aVcueglClHyU3vEGgOtKbfF/AMMQc4sGQEej2wNg2+5DWgWeTWQABEyY+1rZgX+clLxrS/NqLG/DX064HPUxy7/Hgqsygssz0L9kuE/8vKDfmXVXXG9tuYZnFBypeLMFCj4Ftb464xkBP7NZEGvRCvjajGQ2zBBAF3oAdCqPkCj6KHvd6UHTFJPrzgAwDCHff8Of+9kQ28+bNGIZwnbHPliQjE15temrFaw8UZL8n1P+dPPbkvBa817VZp/+lAGpOGyMe4/c2QcS8fy8gUd8mDfwQEEy25DctNWgt0kvyrEqfD3EJkDQ/YfpbkQI4efhqgv0oN6bzjDE8a4wAHR1AQSwLEPzFnYekQcgYMI2AAD+ZVbyWEnyM5sMti2Tq1x14YuTku9rdvmnTfihQcEregQDPkzqE8BFKbgo5dXzT9bh4aLX8U+XETNehX3PufzkJm/I0Eo8VJD8w6TEDVkBd8I91zLdbrUIkfNL9K7RfaWx8b15OrgbYK2m99QghDhiAY9qlaoZ23a1GgCxmDGpTdjyRAZAwHTKvnayBv/rqMtgDLYnBZsTkLPhRFUyUfNi37pIGPC6AcEPDXqjcoNiJA5vGhTc0C/4xqzkX2elltyBogOfOSHZ2QevHxBsjPO8N8WRcKruuf0fKnTGmy1lF5bUdcoHpX3mfZb/KPBqn6/RNqWS3piXaYpvWMA3gY61fHQ/6Xjc+JJWgeejZADE0pDIdv0HtSVcB6URyJ12GpttwGxD8qAPpqAp4DX9gh8eEmRN/fKbJW54IY/r+gVfnpLcm5daKuPuzknuzklMAZviXrXd6bpnBHQSKvecMCCzIfgnVDYtwuxT1pgvIx2Fw5wQc/pWsyx30tEGgD4PQDxu1m++5vavWrtG99XHxvd+BfgpbdI1otMAEAJM0/gjbQKXR2nbFwYMXNxhu53POHVFA2CdvFyv6BXs2uCPq79d+i342c2C1w0I7px0OawpsdGRcKKT+yIo3HOGFc5nPDYYo1EPxwCQjmTqm4rpUUL4mbsFngHwhz5foy0aDVfbKGCAZNK8D870s7pTm2TNFIv6DIBk0pp997W3j2sTuDxKd3m9CE6XDH7RhWpb1U7zAOjGEHDjRsE7N3eW8l/KtiT88qjBjSOiK5vktYqqByAMwjSUq6caOhbgqwGwa3TfE8BTfl6jXYpFvalr8bj5GThjAHwZ6Di1Uy43tMb/Ewnz69qEXRhlx291vgvjiwoIVVf2GjYAMibcss3g+v7uuCeuHxDctE1vz/9ORMUAMEIK3YRZBlibVO/aJISY0rCU1TgUwDVaZm5OnzvMsgzXMMSnYcEA2DW6L4eXC9BRzMzobfUVixn/Q6vA5VE2ACp+R7o6DCHU2pSv1RDAlgR8cIfBpemwV9IaV2YEvzJq0BfiuF6/UbnnQhskFOLnpJHTEhs6rUPIKnScN7xatbWGwlMp66mbdu534eyRFn+s7QoasG2XXE6f1ZPJxI7ffM3t92gTeGHUPQA5sebd2uei4gVYi6/V1T2CXxs1OtblvxpbE3DrDoMtIU7s8xOlEIAZjiYOy1CuzdhIW4MnV4hT6kJWZtfovu8Cd/l9nVbQfRBOJMz/svj98wbArtF9XwG+ofVKCszOVrXdsEJAOm3dpEfaqig3ApKuZwSsJ1RORWvNAHhJVvCuLWKZrn3dRb8Fvzpq8KLM2ruXVfYmI7QcgHAsgOqENgUWRAgA4EMBXWdVHEcyP6/vIJzNxp9+97W3Px/mOPdW/M90wJwrx5FarZ5sNv7ozdfc/jVtAldGS/FX0Xdbt7NQiYt2ZU32BciYsHvT2nk+CQN+catgOMzRvX6g5AHQt4xWCEP/S1tSn9LQHFUIDt06EMik1V2j+74JfCWIa63G9HQFV1PXK8MQpFLmz5z1s6X/2TW6717g77RcTYFTp0ra2v8ahiCZtH5Wi7Dm0GIAVPOC+jpqKhx5ADzePhJufb8fWAJ2b1w7Rg0o5gCE8P6G5f4vPltBuuofUGEYQX/Kf5OQ04trNYepKX0DELPZ2Pdvvub2e5f+bLlt98OA3+1yL0i53GB2Vt/pv6cn/u2br9nv5/Cfc9HW/iU/sbY2zZVQiYuuFQPAgFVb4XYrl6UFL+tZG89N9X4LIwTghtFJyZVUJzSdYoQIdGD2rtF9DwF/E+Q1z+XEiaI2w800hUwmrZ889+fn3Yq7RvcdAT6i57KtISWcOKFv4mMiYVYTCfMd2gQ2Rx7Q4qqqzAkafk7A7iCUQgBrxADYmFhuWt/a4bIuq2a4EKqbchgeAB9Gqq9K6WgNaevx2gvDCKMt1IcIaVbO3FxNa+Z/X1/iT27auf/YuT9fdrvZNbrvvxOC9XPqVIlqVc8NY5rC7e2N/+hNO/f73fv/LA7uwQaO6JK3XrwAKiEAN5DIoP9sTvj3XudsuCcv+dqM5B9OS/7yhOTPxl0+OyH5wqTkG7OS+/L+jf4Ff59fkLiK+3IYZYBheAAqx/T1whamGeg+DrBrdN9J4G2A3jT8VajVHE6e1Bf/7euLf/e9r/7kbcv9bqVK3XcDLwB2alvJCszMVJme1tNHVAjo709+4OZrbv+WFoGt8wRwuQ5B5VlBX1ViLTNhbi2hcipybbzU1S7XL/MNvU/iVM0bVfxoSXL8glvY2YpBINmR8ioRXtojGNJYhtitJY3notqpM4xGQEEbAOXnarh1jb3lTPOwPmHNs2t0391j43vfDXwuiOvZtstzz+W1eWwymdipRMK64UK/v6Atumt0XxXP+vHdBVIo1LVaPP39ic+/57rb/0SbwNZ5UpskCXNHulyzNYFqXNRZA16AEzU9JTjTdfjrCcn/eM7ln2dWUv7nI4HnKvClKclHn3X5/ClJTtNre6oWeoGRFlxb7fMYhgcgyBCAU5OUjugd3CcM40GtAltg1+i+vwH8niGDlJLx8YK2nv+JhFnNZGIvW2z6sxwr3oq7RvdNAG9HQ237hSiXbcbHC9qSHXp64g/+0mvuCDLrfzn0GQB4FQHFybVtBKjGRVXdsp1AzYUJhUhnxYW/Py35w+dc7i+oT+eTeNP5PnbE5SvTkppirsVzmgYFhY2qByCMHAA3wBS6/CN5tal/yyCE+HetAlvnw/jYJlhKOH68qC3ub1nGYgh8xe6Jq9qiu0b33QW8FjiqZWVLyOfrHDmS01bn2N+f+PIvv+7PX6ZFmBpP6BY4Py6wO3k6miKGYttYp7E2DKQvnHbbUtyn6/Dxoy7fnZdo+jg9T92Fr81IPn7UZbbN/UkCj5XWiAdAcY82rWBfBynRtseuRuVEncacvkTu5zGMUJvU7Rrd5wLvAD6hW7brSo4ezWtr+JNImJWBgcRrmwmBN+WMWiiJ2Al8R3Vxi0xPVzh6NK/lxjQMIYeGkv/f+157xy4NS9OBVg8AgHRg7tm1oeSWw1SMD68FDwDAsxX47nxrn4mHi55ynvK5eHfRyBhvIyXqm7OthSI6GeUcgIBzIYKK/7sNKD6t1/UPICyrcejWgbx2wS2ya3Sfs2t03214+XFaPm2NhsvhwzkKBT0f3kwmNtHXl7jo5mtu/34zf990NGrX6L4p4E3AZ9pdHHhxjomJIidP6rES43GjMTSUfMt7rvvk72oRqIGDe5gCZnXLXcuhAFUDYC3kACzypSnJ95owAhoS7pyUfPaEunu+WYoO/Nm4y4OF5pXKyRp8ZXptnP5BvepE9V5vlaAMgPyjBW1lf0sRlqXfqlBg1+i+T+PpQqXKhHLZ5vDheW2Vb319ie9kMrHtrVS+tZSOsmt0X33X6L6bgffThoIrlRo8/fS8tja/2WzsaH9/8kU3X3P7mBaBetHuBYC1GwowYmqb1FrxAIDncj94WvLJ43LZU70Enil7SX7/Nqce62+VhoS/mpB8/pSkuorhcU9esv+Yi7129L9SuMkwg08CDCIBsDxeoz6tr+xvKcIwzqtfD5tdo/u+g+cV/+dWH+u6komJEocPz9NoqFvulmU4g4PJfbdcf8cNKyX8LYdod0DE2PjefrxGCbcCqZX+1nEkJ0+WmJvTo/hTKWsuk4n92ruvvT2Q0ox22H2AzwC/6IfsWApGrnJDmyvuB64NJ+5tf2fMDEsGL1lDWmYJPRZsTwoGLDhVl5yosqriDYqBGLxhQDCaEmxNeG1/Zxtwoib57jw8uUbi/ks59ZBBo82ERisJm68O9s0rF2xqPt4w9Vmb+funfOs3bPX0fO7OXx/+eV+Ea2BsfO8b8aoEXrXa3+bzdSYmiloUv2kK2dMT/0o8bv7cTTv3t+UlaTv1atfovnngv4yN7/1T4HfxlN1ZKsm2XWZmqszOVrX09k8kzEo2G/voe6775B8oC/MfXzwAAI0KzDwtGL5Cdn3t+yKG5fVvaHcPWUsegHMp2PBYsTMV6VwDvjApAYkpICY6xzjxC5UcgKDd/wCaE/LPll2R5B6a9XfYgGHc7Z9wdXaN7vvG2Pjea4DdwH8DLjv3b/L5OjMzFYpF9Y1KCEFPT+yuZNL66Zt27ldqOqeYew27RvedAN4zNr53H/BO4K3lsv2SmZkKuVxN+b4wTSFTKeu5eNz8O8syPnLTzv3dEu3VXgmwlGpOMPscDF7cmYqhHYwYOG3mwnhu2bXzWnQjjvS+1jRSLQfAVAx1tYNfOQDSkczfN+tL3H8pQoiOGVN/IXaN7pPA/x0b3/sFvGqBGx1HvnlurpqZmalqqe1PJq1iMml+NxYzfvvma27XYhS1HQK4EH849gtGb2/8RuCmRsN9dbXq9Ld6jVjMsFMp6+FYzDxgmuKTN+3c33X5w7sP8ELgcb+v07dd0rtlbey6px8xqLeZG2olYPPL1vjRMyJ0nAZM3Nd+qCq7UTJwUXCfVylhftqf8pC5e/M05vwdWSoMQ/7///WirpyQ8YlvvHtHPG7+iuO4b6nVnMsaDbeloK0QglTKnEokzK9alrHv5mtuf0D3GrUbAOfyuQd/dahQqP9H4EqQo1KyRUqGXVf2G4YoGYaYNAyOCSGOGIZ4Ugge8eOJBs3uA8SAMhq8LKsxdLkkPdj9RsD0k4LKfHsxDWHAtp2RAdAMloCtSe+0frK2Dk7tGmmU4dTD7eujvm2S3q0BduWzJfk5/fGx/KMlqidz2uWeixGPF7/04W09vl/IZ8bG94qTJ0vX1uvO9UKIi6WUW6Vkk5RyCIgbhpg2DDFhGOKoEOIZw+AxIcQ9N+3cr72abCm+GwDrmd0HeBJvnoKvCAOGr3BJ9Pp9JX+ZfVZQmmo/qWHbq9xQuqx1AwJ4db/g1f2CzXEwFl5mW3otiL85K1sq7VuvVHOCqSfav0cHL5ZkRoJ7nWsVl3JRr4u+8HiJygn/lT+AmUod/uKHNp8XU4/QQ1e6VroIX/MAFpEuTD1pUG3z9NwpKPcCWMOJgCoMxOB92wXv2Ohl6htLbhNLwI4kvGuLYM8WQSYyoFZENdk06CZAtoZs86XkHwtO+QOhDQFaL0QGgL/4VglwLtKF6acE5dnuNQKUuwF2S3pogCQM+OXtBpenV78vXtYjeM82I9oUVkC14ZQZD9bLYjf0XS//SJHqRIDKn3CHAK0Hos+6vzwc5MWk9MoDVdzoYaJ6Olor8wB08pZhwWALr+toEt44FL2OF0J5DkCAHgDXldpmAOQeKlI9FXw3XmEYXwv8ouuIyADwl38L46KzzwoKp7pvE1c9Ha3FDokqbE14cf9W+dEhQb/vqavdieo9pjr0qhW0nP4lzD9QpDYZgvI3TefQbYORAeAjkQHgIwf3MA6EEsOaPyrIn+guI8BKqD3e7rpiUX+5NC3a6hNlCtiR6q57JyjsavuvixkLtg2wavxf2pLZu+epT4czh8eIxzuuBfBaIzIA/Ce0Jha544LZwwLZJdVxZtzrBtgukQFwNtuT7T92m8Jj1zINhXvMCvg1VfEA2EWXme/NYOfLGlfUGsKy/jW0i68TIgPAf0LtYlWaFpx+1Oga5WgqeAFUTmdrkeF4+6/HhhBa1nY6TsMby90uViLYBkBOmxOYqqcazN09iVvzeb70KgjTVJo8G7E6kQHgP6FbsY2y12WvMtf5CjKWVDi11Ogab0cQTNbbfy2Xm0K43lE1ooP0ALTr/i88VSH/6DTSCfeDJCzLPnTb4HdCXcQ6IDIAfObgHk4Dj4W9DtfxygRzxzrbCFDdJKNEwDOMKyis49HreB52Re2zE6wB0JrxJ23J/H15KuNz/g72aRIjFns27DWsByIDIBg6ZphFfsLrZNapNfMqIQCIwgBLeaYs2xqPZEt4rhK+Eug0VOL/EGwIoBUPQH3OZuZ7M9Rn/e3r3wrCsv4l7DWsByIDIBhCDwMspZoTnHrYoJrvPGWpekpqd077WuRUDf5ttnWlMzYlyXeogRgm3RICkLJJD4CEwpNl5u+bCj3efy7CNP8i7DWsByIDIBi+CXRUdNqpw9TjgrkjAtfHeeGtonpK6pZkx6D48rRksoW9/XAZvjUXnf6XQ8W7ZJjB9QBoJvmvUXCY+d4slWPzHeHyX4qIxeqHbhu8P+x1rAciAyAADu5hFujIlpbFScGphzpnjoB6L4DOeB6dgi3hz465PFpcfZP/QU7yqRNuW2GD9YBKfkknJQAWn6kwf/cUTrkzrWUjFns67DWsF6J+X8Hxr8DL2360AL92ZqcOU08KMhugf4cMtFvZuQjD6wfgtOmRjDwA51Ow4dMnJDv74NV9gi0JiC+Y/lUXjlcl35yFx0qR6r8QqhUmlkJ1S6s06ssv1C655B/OYRc7O04mLOurYa9hvRAZAMHxDeCD7T44loJ4Rvra5780LajmBAMXS1ID4SkDKylx6u09T6fhVTwY0VS787g7J7k7JxHASNzzDsw2fLMr1xSqniVVz1azuK48L/4vXUnxqQrViTzS9TcSmdza7w0MUggrCMP4pMYlRaxAZAAEx7cAmzZf80YZNlwusRJehz+/cBpeuWB60PMGmHHfLnVBrCTUFLqP2lWIZ/StZ60hgdOdlfPV8XRLAmCjdraCr56qU3wqh1v3eVa2Ici+YNDb4RSUvxGLVQ/dNviUvoVFrESUAxAQB/dQAO5RkVGeEfRulQxdJn3vKV6eFZx80CB3LPgkwSgPIKLT6JYSwPqCAWAXHGbvmiP/yLTvyl9YJv1XD5PelqB6Wq11sIjFHte0rIgmiAyAYFEqByzPeIotPSQZfqHre6xeul7fgJMPGhRPi8B8xTHVZkBRHkCEZrrBA+C6knrZJf9Ikdm7JrHz/sf6jUScwZ3DxIcs3JrELqq9UMKyvqxpaRFNEBkAwaLUEKhROVPnnuiBjVe5wWwsDZh7TnDyoWDaCcfSapZG1AsgQjcqXQANC99DaVLC9BM1Zv59kuqpfCClfVY2xeC1Q5gZT42Uj9eUrysM4w4da4tojsgACJZvAlMqAha9AOCdKjZe5ZLsD+Zoble9/IDJxwX1kn/XsZIgFJL4ohBAhE6kC7ZCzkQ84+/nszLnlfLmnykg7WDidYmRHgavGcBYMnCqNqnm/jcSielDtw1GI4ADJDIAAuTgHmzg8yoylhoA4J0uhq+Q9I9K2hr+3ga1vOD0IwYzzwgaPk0Ljafbf2yj3HG9TSK6mEYZpfBXTOFeXolqTjD5mMH0U4JG2cUp+z+6V5gGPS/cQN9Le87SHk5F4pTU3P9GPP5/FJcX0SJRFUDwHAB+rd0H21Wol87Pcu/ZLEn0SGaeMQIbiFOeEZRnBMl+Se9mSPTq07qxtKRWaM+ikRIaJYhntS0nYh1TK6pZ1lorUqT3ucufPNv4dkol361eM52k/+r+513+S6kcV0ySMAwpLOt31IREtErkAQiYg3u4F1DKdD3XC7BIPAsbX+KSGgz2+Fud98ICpx81qMzqcUOoeAAA6oqbdkTEInXFGTmqOS3ghSEKp7yE3JnD53ve7EJB+RorkdzUy9CrB5dV/gC1KTXvg5lIPHPo1oFZJSERLRMZAOFwQOXB5WlxQWPfML1+AQMX+V8qeC71Ikw/vVA1MCmUOqepbpo1H3MUItYX9VL7xqQw1Kpa3IbX92PifoP5o2JZ7560bdyqP6UvwjTpvWqY3hdnLxhibOQcnLKa21HE4/uVBES0RWQAhMPnUBgO5DRY9aSd3SjZeJVLLNXuVdrHrsLcEcHJBwzyE+31EYilUcppiDwAETpwbbUSwFiKtu5ju+ZV3kw8YJA/sfL4br9O/1ZPisHrRkhujq34d6XnFGv/LcsWhvEnSkIi2iIyAELg4B6Oo9gToHh69V0llvZCAn3bgvcGgGeo5I4tnF7GRUv9/VVPTnaVFTfNiIhmUDUkW60AqJdg5pkzvTea8aI5RcUYxTkI0yR7+RCD1w5gplZ+/q4tacyouduMROIHh24d6KhpqeuFKAkwPP4aeFO7D64VvHr31U74QkDvVkl6SDJ7xFBqsdsu0oHCSUHhpJcwmNkAqYHVjZJYWtJQqL+ulwTJvqgcIKJ9VMtdm6kAcG1vDkdpqvWqGrdWw23o6/QXH8zSe1UPRqK5z135uaryfAEjFvsDJQERbRMZAOHxD8CfAW3nCBdPCwYuak7BWUkYeZFLaVIwPx58e99FqvOC6jwYliA9JMkMywtmScfSwEz716oXIdnX/uMjImqKFxylEAAAIABJREFUh+sLegAkVHKC0hRU5y6c07Mautz/RjxG9gX9JDet7O4/l+pJxdN/PF46dNvgPykJiWibKAQQEgf3UAS+oCKjPC2QLSryzIhk09Uu6YArBc7FtT0D5vQjBqceNiicErjnHGRUKwFUN++ICNUQwLkegEYF5se9sNj0k4LKbPvKHym98j8VhPAy/F+7oWXlX5u0cWtqU6WMeHxMSUCEEpEHIFwOAO9s98GuA6UZQXaktR3EjMHQ5ZL0PF5mcci98xtlbx258YUQwTCk+iWxjEQlE9DbvKMQQER7qOaRWEkvl8V1vNLd0pRQLilcilMuI532XXlmOknPi3qJD7SnBsrj6saHsKzfVhMSoUJkAITLvwATwJZ2BRRPt24ALJLqlyT7JKXTgtwqmcZBIKXX1rQyB2ZMkN7g5Qm0W07o2l42dVCz2CPWFirlf+Ap/5nDC6d8H1LcGrlcW48z4jEyl/SR2tb+gAKnImnklFv/njx02+DTSkIilIhCACFycA8u8DcqMhplLyGwXYSA7CbJ5pe59G4Jp1pgOZyGlziounFG5YAR7aJ6Wm+UF8J0Pih/t1ZrufZfWCbpiwbYcMOwkvIHKD1XUe48aMTjn1MSEKFMh2z36xqlpkAAhQl1JWeY0Lddsvlql8zw2nGb63S5RqwvVFsA+0krp39hGCS39DF0/QjZy1LKM0OkLamdUks+FIYhhWn+ntpKIlSJDICQObiHR4D7VWRU5vVN5zPjMHiJZNNL3DVRQtfJm3hE5yIlvg26UkXadnPJf0IQ39DD4Ks30ntlBsPS81koPVtVyj0AMJLJxw7dOhCZ5yETGQCdwWdVBeQ1eAGWEkvD8AslIy+SgY0b9oNoMmBEOzTK7eee+I2dy618UwtBfCjLwM4R+l/Ws2ozn1aQjqQyod5MRMRi/1PDciIUiZIAO4NPA/8VGGpXQGVW0KhI7a1/E72S4V5oVCSFU8K3mKZfSNd7bZppPBQRAV7Wvq6hVrqRrnvB2n9hGMSHs2QvTWOm/bnZS0eqSFvx9J9IzN/5gaG/1LSkCAUiA6ADOLiH0u4DfBz4fRU5+ROCocv8Oe7GUjB4saRvm6R4WlA8HX7VQLPMPCMQQhBLQ7xHkshAPCuxFFoNR6wRpFebXyt6JXr1oqBRCXtRF8YpFM7rvCcsk+TmLNlLUoiYj1auK6mcUG88ZCQSH9OwmggNCBn5RzuC3QfoB44CvW0LEbD5pW4gik26XvvSwsnw+wi0i2FBIiuJZ1n4khhm2KuK8BOn4Sn5evGM0u8mj1ZlfBxpe5a3EbdIbe8hvSOJMPz3WJSerVJ6Vm1irxGPF7/04W09mpYUoUjkAegQDu5hfvcB/hT4cNtCpJcLMHiJ/0adMCA7IsmOSCpzgsIpEcqcARVc20ugrMwv/kQQS3mGQGLBIGiml3tEZyJdr5d/vbSg8AutDaTqNJxiEWnbmKk46R09pLYmlDP6m0ZC5biG038y+XENq4nQRGQAdBZ/DNwGtK12ytOC3q0y0OY3qQFJakBSL3m1++VZ0bUN+BoVaFS8Hu0gEKbXzz2e9jq7WSmIJSWmWhl1hE6k1/CpURXYFa+DX70k1lQCqGGCa9Tou3oDieHgb77y0RpuXW3okBGLVYVp/o6mJUVoIAoBdBi7D/C/gA+oyMgMy0C8ABfCqUPhlKA0Gd7QIb8RhmcQxFJeLkEsCdbC91EYwR+chqfc7YqgUfW+b1QETm3tKPpzMePQs0mS6HcoFUNKunEl09+ZVjYArN7ej9/5wQ1Ke1uEXiIPQOexD3g/0PYZvjQlyG688JQ9vzHj0D8q6d0qKU164YFudr0uh3S9UrFGeakP1vvejC16C6RnGCwYCmbC67wYcWGke0ax21U8Rb/w/Vo1JpcjnoGezdIb2iWgMBfeky8+U1FW/iIWqwvT/A1NS4rQROQB6EB2H+B24H0qMhK93vjfTqGWF5RnoDzbPdUDfmBYnoFgxOTCv2A+/zMwY3LhX9ZM2aLrgNvwTvBuQ+A8//3Cv/aZn7U63XItYSUhPShJD52de1KvuZTy4Xxo3Lpk5t9PIx21vcTq6fnUnb8+/B5Ny4rQROQB6Ez+CHg3Cu9PLe8N1kkNdIaBl+iVJHph4CJJdcEYqMytP2PAtRcmzFUu5Ao483NhnG0YLH5vWN7vhOF5FM7+fqHfwXk/b9KgkJ47XbpLvpb+Xwo472ee4nZtlih38bySj84YF8ZKQGpB6V/IY1cphWcVFZ4oKit/YVm2sKxf1bSkCI1EHoAOZfcBPgu8S0WGlYRNL3U71u0sJdRyS4yBdXz6CwohgCWGAZytyLs1ebObMONnTvrx7Mp/W604VIrhfDAaeYe5uyeVLTirp+fzd/768M9qWlaERiIPQOfyMeDnUWjXbFeheErQs7kzd3UhINkvSfaDdCXVRWNgXqxrV7CfSAk469vVHgZm7MxJP9FkFbyUUA3x9F98oqCs/IVpOsKylMKZEf4ReQA6mN0H+DvgJ1VkGCZsfpmL0UWmnnShOr/EGOicVIaIiKYxYpAekKSHvBBYq1SKDtVKOAZAdbJB/qEpZTlWNnvnnXtH3qZhSRE+0EVqYV3yURQNANeB3HHBwEXdY+gJwzstpQY9z0BlzjMGqrnIGIjobAzL64uRHoJkr2y7UY/ryNCUP0DxaQ0DfwzDFbHYezUsJ8InIg9Ah7P7AF8E3qIkRMCmF7td39XOdSB/3CsrjIjoNAYv9Vz8OnJuSnmbei0ca1dHy18AM5v92hf3jvyIhiVF+MQaKTRa0/wBqqlZEmafNbo+wcsw6dh8hoj1jRmHzAY9yt+2ZWjK36lIys/Nr/6HqyAMQxqWdbOGJUX4SGQAdDgH93AXcEBVTr3Emjg5m3FCa3AUEXEhdJbbVsLq+AfkH8mdN22wHcxM5m8P3TZ4TMOSInwkMgC6g98A5lSF5I4L7JqG1YRMp/Q2iIhYJDWgR06j5mI3wrm/y8drNHJlZTlGPF4SlvUL6iuK8JvIAOgCDu5hCvgtVTnShbkj3e8F0GEArJUuexHqqN4Lhtlelv9yhNX0x61LSs+ou/4BjFTqvYduHVhnLb66k6gKoHu4A7gJeJWKkGrOm3SXGe7eU3Qs7XVQU/Fm9G3zErbqJUG95PX1r5fW3syCiLOJpSCW9rruxTIQT0tmDwsq8+0bxsl+PbH/WsXBccL5XOYfLSJtdePDTKcfuvMDQ3+rYUkRARAZAF3CwT24uw9wC/ADFD038+OCZL/XWrZbSQ1IpZyG0pTXICkVl0vctxLXPjNK1jMMBI2KliVHBIgwFpT9wijneMbrr3/uad9pQCWnpr11uP9dR4Z2+q+eblCfKSjLEabpGvH4j2tYUkRARAZAF3FwD/fsPsAdwC0qclwb5o8Khi7rXi9AagAKp9p/fKPiKfhzEwoNC5J9kmTf4k/k85P/6iXPGLCrYNcW8im69yVcEwjD8wZZyYWxzGnvVB9L0VQNfnlaKL2Hi90sVSkV7FBmJkhHUnxSj+vfTKfviBL/uovIAOg+fgt4BzCsIqQ8I0gNQHqoOzVYokdiWGrDhEpTgnhm9ecvDIhnIZ5d+rcSpBeGsKti4d+zjYOoaZEehOkp+diCkvcUvqf0zbia7NKU2uk/0SsxTLU1VCtOaIl/+UeLyqN+AYxEYv7OXx9+v4YlRQRIZAB0GQf3MLf7AP8Z+EtVWXNHBPGsxEpoWFjQCEj1S0rT7W/g5RlB/w6F+K04o4jOxvu/U4dG1Ztl79S8/3vT8sTzo3DXO0Lw/Pjj50chxxde14Sn8P0KVdVLKId3UoNqj3ccGVq//8qJOrVJddc/QmCmUu9UFxQRNJEB0J38FXAzcL2KENeBmWcMRq7s3ImBK5EahNJ0+493bajOCVKD/py+zDiYcQm95/5GPv+PY3uGweL43MURuk4DnPrCSF37zMS+bkAYXma8YXnP/4yCXxhvHF8y3jjEHUj19A+eEapCOR+O698puxSfUq4sBsBMp79/6LbBMS3CIgIlMgC6kIN7kLsP8H7gPhTfw3oRcscE/aPdFwpI9kkMU22McGlK/RTXNuKMUlw+EC3P+6/repP8pOsZcNIF6Ygl35/9N8XJ9ucnWElPwQnTU+jC8NzxxsK/wpDL/rwbkNLzAKmQ6FULQVTLDrYdRuAf5h+cRzrqngdhWbYRj6u1Ko8IjcgA6FIO7uHh3Qf4E+CDqrIKJwXJXj3JTEEiDEgNSUqT7W/klZzAaXRJRYTwFDHnKdkLv2/lGYHTpgEQz0j6d3TXPdEs1Tm1/BGAzIb2H+vY4WX95x8v4ZSqWmSZ6fT/OHTrgIIfLiJMonYo3c3vAhM6BM0+K7oyJp3ZoKig5EImeMS6QiV0BGcmVrZ9/UI4fXKqkw2qEzktsoxk8vSdH9zwYS3CIkIhMgC6mIN7KKDBAwBezHn2me5ThIkelJMYVRIJI7oPp4FS4x/w+lC0m/1fKTk4Ibj+naqk8JieuD9CYCaTSqPKI8InMgC6nIN7+DvgazpkVfOC/InuU4ZpRS/AYtOfiPWBau0/tO/+d2xJtRyO6z/3YA5p6/E8mJnM1w/dNvgtLcIiQiMyANYGvwhM6RCUO67WFjUMlMMARF6A9YTqe23GvATUlpFQyofj+s8/WsIuqA/6ATASiZwRi+3SIiwiVCIDYA1wcA8ngJ9HU1+6mWe6q/2tlfQa9ahQnhahlGNFBMvi3AcV0kOyqS6D51IphdPrvzxeo3pST9xfGIZrplJvOnTrQDQ1Yw0QGQBrhIN7+GfgD3XIkg5MP2koZ0kHiepwo8WeABFrGx2ennbutXrNpVoJ3vVfn7EpPj2rTZ6Zzf7uodsG79UmMCJUIgNgbfER4Ns6BNk1mH66e07F6UH1iWzF03rWEtGZSAfKis1/YmnvqxUcW1IOIevfqbjkHp5F14fYzGS+f+cHN/y+FmERHUFkAKwhDu7BAX4G0FKXW8sL5p/rjlOxYUFyQG2jq+ZFlAy4hilOqjWNgtbzTaQrKeaC7/YnHcn8fXPakv6MeLxgxOM/pEVYRMcQGQBrDN35AMVJQfF0dxgB2RF1Gd1YBRGxOlKiND4avNr/Vg2AYt7GdYN3o80/kMep1LTIEoYhzXT6hw/dOqCne1BExxAZAGuQg3v4J+CPdMmbOyqo5jtfMSb7FsbAKlCZ664EyIjmKE8JHMW0tfSgN9eg6WsW7FCm/BWeKNOY0+fKMrPZ3z902+APtAmM6BgiA2Dt8tvAd7RIkjDzVHe4x7Mb1TfcwsnON3YiWiOv4T3Nbmr+3qpVHGrV4Kc3lY5UqRyf1ybPzGTuvvODG35Hm8CIjiIyANYoC/kAP42mfADXgaknjI4/HWc2qM9nL0+rnxYjOofyrDeSWYV4FuKZ5v7WbriUi8Fn/JeP1Skd1pfxb8TjRSMef4M2gREdR2QArGEW8gH2oCkfwLU9I8DWE1r0BWFCWrEkUMrIC7CWKEyov5c9TZ7+XUdSDKHZT/Vkg+JTM9rkLcT9f/TQrQN6ugdFdCSRAbDGObiHr6AxH8Cpe0ZAJw8O6tEQBihOqk+Liwifak49dGXGmhv8I6WX9Nfu+OV2qU3bFB6f0VbuB2Bmsx89dNvgd7UJjOhIIgNgffARdOUDAHbVMwI6VUFayTZbtS5BuupZ4xHhU9AwKzMz0lyPiVLBDnzIT33OJv/QNNLVZ3WY6fR9d35ww29rExjRsUQGwDrg4B5sNPYHAK+d6tSTRuCnnWbJblKXUTwtkOHMbYnQQL2EcvWKEM0lllZKDo1asB+GRt4h98CMVuVvxOMlI5G4QZvAiI4mMgDWCQf3cBx4O6CtlrdehOmnREcaAal+qTwm2LW9UEBEd5LXEPtPDUrMVUr/ahUn8Al/Tskld/8M0tF3XWFZtplO3xDF/dcPkQGwjji4h+8APwVo2zWqOcHUk515Um6lbOtCFE51TzvkiDPYVajM+p/8V6sGn/HfKDjM3TON29AXgxOG4VrZ7FsO3TZ4vzahER1PZACsMw7u4YvAL+mUWcsLJp8wlNus6iY7svrpbTWcunr/+Ijg0XH6T/bJFadM1qtu4D3+GzmH+Xv1Kn+EwOzpefeh2wb/SZ/QiG4gMgDWIQf38Gngt3TKrBdh6vHOSgwUBvRsVj++5yc6M8wRsTx21evloErv1gvfO/WaSylg5V+fdZi/bxppa7S0hcDq6fmtOz8w9Jf6hEZ0C5EBsE75+Jur/+uVW5xxnTLrJZh8rLNKBLMjEsNSk2HXooqAbmJ+XD1sk+iFRM/yv6vXXEoB1/rXpm1yD0xpjfkDvPyF/Y/t//nsx7QKjegaIgNgHXJiqpoAvvDOqxujr9isd0NpVDwjoFOaBQlTnxegkwybiOWp5QWVOf9O/4168Mq/eqqhvdTv/7V353FylHUexz9PVR/V03MnnQDNJYgirq4cIqi7eLtyX4OiEDnkVEgIhMNVAVdYThGU+44oalQmXCorLt6KBpQFRZCQq5JMamYy91Rf9ewfNRNyTObqXx8z87xfL17ATPe3nkmm6/lV1XMA7LdPE+d8KLEPcKtosDFlmAJghnE9Pwb8CPgPBXzmnTneMkv2xJL3h4qAKtk7rHZu8csD6wJ0rzZ3AardxpXF/x3F68Cp37YAyGUD+rrL3Pm7WXpeku/837xbPWd/cNPOWee4nn+L6AGMKcEUADOI6/lRYAlw2PDXbAtO3z/LLg2yJ5hCNiwCsn2isZNi2TIzAvq9qbEh0kzVv0GRE5jAVr/TyJ1/ua/8+5f79Lwsu8IfwA5za7n48G1GN57nev7XRQ9kVD1TAMwQrudHgO8DR279vbgNZx2QI5WUPdEUcrDh7xYDHZW/cq7bofi7AABdq8xHphrpAnSvKf73LJYEp3HLz0E+p+nvyZd1OmjPi330L+8U7/wbGhN85Zj67X37AtfzrxM9oFHVzNlsBnA93wa+S7gQ0IhqY5qz352lPi57wtEBdPxT0eNWtgiwIjJbBWd6ZOaXG7Kkxmhs/ew/n9P0defK1vnrvGbjs13463vEs2tq41x5fCOR0QvhRa7nXy1+cKMqmQJgmhvq/B8CWsZ67axEWAQ4RY6aH0n3GkXHPys7na5uR6m7AGZaYDWRmqURS0Ki6Y2ePp8Lytr5FwYDOv7QQa5HfiG+mBPlS8c1UxMf15/TZa7nf1W8EUbVMQXANOZ6vgU8AHxqvO/ZqU7zuf2zREvwmzHQodjw98pNE7Qio8/tHi8zLbC6dAsVZI27vRGS9QN6u8p32z/bWaDzj+0EflY8245GWHT0LGbXTuh39suu539FvDFGVTEFwDQ11PnfB5w00fe+uTngtP2yxASulreW7YMNL1nkBuWzx6N2bvF7BAD0uKpqZjnMZINdigGBRzKJZr1p3v9gf6Gsi/wMrMnQ9ZcN6Lz8Me1ohPOPmMVusyZ1qr/S9fwvSrfJqB6mAJiGXM9XwF3AZyeb8bZUwLkHZqmJyl8C5TPQ9lJlBgcqCxp2Lf5n0gF0Ljcfn0oK8rBxefG/Q0pB4y7h70R/b758G/to6Hmpn76XOyCQ/5zFnBiXHT+bt+1YVCV/lev5F0u1yagu5gw2zQx1/ncApxebtXtjwPkHZWl05E9OuhAODty4ovzP02s2u9orRqbXPAqopI0rZAb+1e6gsePQ25Uj65fnlzF83t+Jv667JPk1tXGu+OQsdm0WOcVf63r+Qokgo7qYAmD6+RZwplTYDrWa+QdlM3Gb1VKZm+trUxVZNGjz573F6F5tHgVUwkCnErmDZEWgdoeA3o058rnyPPD312Xp/INHob80vzhObaLn6k816wk+8x/Lja7nny8ZaFSeKQCmEdfzbwbOFY7NNCX00ZkC+wJ/FM4Gwj0E1r9Y3kcCsSQkZ5tHAVNRIQcbX5f5XanbMaCvN0ehUIbOX4fz+3teahdf03+YnUj8sxB15tbE1RdKEH+z6/nS5xejgsyZa5pwPf9GQLpCzwLHp1POT5fMowP4MFCSLUM3PRJ4vXyPBBp20SiBT0CmF3rXmUcB5bLxdSWy66QdLRDEsmX5fSv0B3T8vrMk8/uH2cnkHx+9ZMe9Wuc3+emUcxswvwSH+Zbr+WJ3GI3KMgXANOB6/rWA9DO6HHBCOuU8PvyFJfPoJ1xJ8DvCx9qkb4Oi7aXyPBKwYzIbBUG4zoF5FFB6A+0ym/3ku7uxHL8s0/wG3Sydz3oUBkr3CxKprX300UVzD9r8a+mUcwtwofChFHCH6/lFjzEyKs8UAFOc6/lXAdKjdPPAp9IpZ+nW31gyjxxwMnCT8DE3yQ3A+v+zwqvqEp+g63fSRJzic3QAHa9ZJW/vTFbIFr/Zjw4CMuvXg5UjnirBPNfNBFlN13M99P69dLf8UYpIXd2dSy+ac9RI306nnK8Dl0gfFbjL9fxJzzIyqoMpAKYw1/OvBKTn6RaAz6RTzo+394Il89BL5rEQuFT42JvoIFxxr+1vpV0zQFnQvIfMPeBsH3SZHQNLQmtof9Uq6tZ/kMngr1mDzueo32ebzXBEDa7J0vG7DWQ7S7gbVtj5f2XphamzR3tZOuVcB/yn8NEt4D7X8ye8zohRPUwBMEW5nv9lQHqlrgJwcjrl/GA8L14yj2uB04beVxLZPmh70aJnbenuBsTrZPYJgHAswEC7KQKkda1QRe0sme/uxl+7Fp3PU7tXE1ZUrm2bCzKajX/upvfldnS+dOsJKMvSkfr6M5YunP1f43l9OuVcDVwu3AwLeMD1/HGvNGpUF1MATEGu518GSK/VHQCnplPOwxN505J53E+4yVDJrtN1EE63a3vJEtnudSSNu2jsmExW5+tm22BJfRsUfRsmV1TpICDT1ka2I9xWNzarHmfHEmx2AQysDq/6c12l/ctXtl2I1NcfsfSCWfdM5H3plPNVYFwFwwTYwEOu54+514hRfUwBMMW4nr8IkN6tSwOfS6ecb0/mzUvm8RjhDIE1oq3aSrZ/6G6Aq8QHbykbmt8kE6oDaH+lcnseTCeZ3vDqfzKCTAbfdSn0hx2yikZLcuu/4Gs2/qmLvn+U8Fn/ECsW64vU1R3cuqD5icm8P51yvgJcI9wsG/iu6/nb3W3UqE6mAJhCXM+/AJDer1sDZ6ZTzv3FhCyZx++BfYGfiLRqO7QOR9yvf8FisEv2VrvTqEXWBoBwwFrHq1ZZ95Cfbor5M8z39IS3/HNvVGG1ezZhCewDsUmg6XtlkM7ftZHrLtGtqc3YyeQyO5mc27qg+U/F5KRTzmXADULNGhYBvu96/pHCuUYJKW3OUFOC6/nnAbeUIPqcdMq5QyqsZTGKcFbC1whPCiXlNGgad9NEEzJ5QR7WvyB39V47V9O0e+U+Y2ufm/zPUjNLM+vNlWm71rDhb9aEn/vrICDb3k6hb8s3RpvqaNpfYP3nIb6bpe+1boJs6W/zKMvSdm3t1UsXzv6SZK7r+TcBCyQzCdcOOTadciZ1h8IoL1MATAGu558D3FaC6PPSKedbJcilZTHvA74H7FyK/C0oqJ2jadhZYwmUHIMbFe2vyN1daH6TJjmnMp+zqVoAdC5X9HsT+zso9PeTbd/2NryKRGg+aA62wHTPXHeB3pd7yPeWZztLKxbrs2tqPt66oPl3pch3Pf+bgPSqgRng6HTKKcmiYYYc8wigyrmefwZwawmiLyhV5w+wZB6/Bd4FPFmqY2yiwz0F1v3Voq+t+NkCiSYtNisAoHOFzJa1M0XXqol1/jqfJ9PWRqatbcRn8LV7NRXd+QfZgO4Xetn45w1l6/w3u+Vfks4fIJ1yziPcPExSHHjE9fyPCucawswdgCrmev5pwD2EC29IWpROOdLPAEc09EhgEXAVZXgkABBNhFv+Jhon/7utg6Fb0EIDupWCWXtpEk3l/bxNtTsA3WsUPe74f93z3d3kNm5EByOv5RBrrqVxv/pJt0cXNP2v+wyu7in5AL9hQ7f8r1q6cPaXy3G8oR1E7wTOEI4eBA5Pp5xfCOcaQkwBUKVcz58H3I/8XZrL0ilHehTwmMr6SGBILAkNO2ucSRYCeT+cdRAInfeVgtlvmXx7JmMqFQA9rqJ7zfg6/yCbJet5BJnMdl9jRSPMem8KFZ14/byp41/Ti84LbDwwTkO3/D/auqD5D2U7KJuKgHuBU4WjB4BD0ynnl8K5hgBTAFQh1/M/AyxGvvP/cjrlfE04c9xaFjOL8Oc6tJzHjdVCQ3pyHe9Ap6LjVbkbMMqC2W/VOPXl+dxNlQKgd52ia9U4/py1JrdxI7nubkabHqAsi8b9U0QbJrbcb6U6fgA7mfyzFYsd0jq/qfRTCkbger4FPEC41LekfuA/0innN8K5RpFMAVBlXM//JOFmO9ILlV+ZTjlXCGdOWCUeCQybbCGwcYUKxxYIURak9g6Iyw1K366pUAD0rld0jWON/8LgYDjILzf2D1S3d4rEzuNf7q+SHX+5b/mPZqgI+DbwaeHoXuDj6ZTze+FcowimAKgirucfDzyMfMd4dTrlSK8FXpSWxbyX8JHALuU+9kQLAenxABAuPJR6a+mLgGovAPrWqzE3+NGFArmODvJ945sT6OzURP0+45sXWsmOHyp3y380rufbwHeBE4Sje4CPplPOs8K5xiSZAqBKuJ5/NLAE+c7/unTKkd4NTETLYpoJFyQ5BfmBjmOKOFC3Q7j4jxrjfkveh7aXituMZmvKCqcI1ggtPjSSqi0AdDjav3f9KH/tWpPr6SE/yiC/rUUbh+b7j/HbVOgL6F8xQMbrL9vgvi0ohZ1MPm1Fo0dW6pb/aFzPjxAW6McJR3cBH0mnnGXCucYkmAKgCriefwTwI0B6i5Kvp1OO9H7g4oYGCN4OvKMSx1c2JGeHU/9GW1Ao0wveyxZaZvPATep30jTsUprPYTUWAEEBOl5V+N3b6aW1Jt/bG47un0DnbNc4NB/YjBqlhPbX5xhY1U++p3L3r9VnAAAgAElEQVR9ruU4G2zHaWld0PyrijViHFzPjxJelIy41XARNgIfTqec54VzjQkyBUCFuZ5/KPAIILQVzSa3pFPOfOHMkmlZTAQ4H7gCKMPT8ZE5DZrauYRTCEfon6QHBQ5LNGlm7Tn2nYiJqrYCIO+H+yRsb4vnTR3/BG/HW9EoTQfMxk5u+3cT5DUDK3z8df0Emexkmi1CRSJ5u6bmhqULZ19WsUZMkOv5McKLk8OFozuAD6VTzgvCucYEmAKgglzP/ziwlHDhDEm3pVPO54Uzy6JlMWngJqCiu4tF4pCco6mZpYls9bcz7hHrExRNwOy3BtscrxjVVABkehTtr6oRH6MU+vvJdXYSjGOA39aUZdHwrhSx5i2rp2xHgcE1A2Q7+sf9CKEklMKuqfmDFYsd0Tq/qb1yDZkc1/PjhBcpnxCObgc+mE45LwrnGuNkCoAKcT3/I8BjgMACpVu4k3B9/yn9F9uymI8B3wL2qnRb4nVQM1tT0/zGUsMbVyr6Rnt+PUlWBGa9WeM0yPz1VUsB0Lt+qGjaKq4wMEBu48ZR5/OPZfMR/7neAoOrfbLtA2VZp38sVjzeZScSJ012975q4Xq+Q3ix8jHh6A3AB9Ip5+/CucY4mAKgAlzP/yDwBCC0hc0m9wJnTPXOf1jLYuLAJcBlyBdKE6ZUuGNgzazwEUHHa4rBjaUZu5hMaRp3LX5vg0oXAHkfOpdbZHq3/HphcDDs+H2/qPzErk3U7OowuNons2GAwuDkCwlJyrYDu6bmrqUXps6pdFukuJ6fAB4HPiQcvZ6wCPiHcK4xBlMAlJnr+f9OuD5+Ujj6QeC0dMqp4L3O0mhZzB6EdwOkb0FOmrIh0aAZ7FLigwKH2VFo3C18DDFZlSoAtIbetYqetVv++RQGB8l3dVEYLH49fRWJYCei5Pv8URcFKje7puYFKxY7vHVB8+pKt0Wa6/k1hOevQ4Sj1xIWAa8K5xqjMAVAGbme/z7gp0CtcPR3gHnTsfPfXMtijgW+QQXWDqikRFO4pbA9iWGilSgAsn3hVf/wQD8dBBT6+sj39BBkKzcIr9SsWKzfSiTOXHrBrO9Wui2l5Hp+kvA89n7h6DWERcBrwrnGdpgCoExczz8IeAr5Ee7fA05Kp5wKTGYuv5bFJIHLgfnIz5yoWpYN9Ttraudo1AQWiC5nAVDIQs/aN1ZNDLJZ8j094QI+lRyEV2LKsrSdTH5XRSKntM5vKv9qQhXgen4t8DPgvcLRq4BD0ilnhXCuMQJTAJSB6/nvBv4HaBCO/iFwYjrlzIiTzuZaFrMz4ZLCZyA/lqJqWRGonaup22F84wPKUQDkBsOZEQPtCh1o8v394dV+kc/3q52y7cBKJH5qRaOntc5vaqt0e8rN9fx6woua9whHryAsAlYJ5xpbMQVAibmevz/wc6BROPoR4ISZ2PlvrmUxc4ALgXOo4PoB5aascKBg3Y7bTlPcXCkLgExv2PEPblTofD682u/trczKemWkbLtgJxKPqGj0rNb5TZ2Vbk8luZ7fQHh+O0A4ejlhEbBGONfYjCkASsj1/HcBTwPNwtGPAsenU07l5zlViZbFNBE+FjgfaKpwc8pHQU2zJtEcLmJkbbWQkHQBUMjCYFd4tZ/pDafx5Xt6KAxU3Wq24lQkkrMTiYdVJHJONS7fWymu5zcRnuf2FY7+J2ERsFY41xhiCoAScT3/ncAvgFnC0U8Cx6RTzvQdTVWElsXUAZ8HLgDmVLg55aXCNQucBk2iUROtESgA9tRkesNO3+9S5AY0Bd+n0N9Pob9C6+iXmYpGM7bj3KcikQWt85vM524Eruc3E57v/lU4+hXCgYHrhHMNTAFQEq7nvx34XyAlHP0z4Kh0yqmOyc5VrGUxCeBMwnEC6Qo3pyLsGAS5yc+QsyKADpfSLQwMhJ3+wEBlV9UrIysWG7Ac51Zl25e2zm+aGT90EVzPn0143vsX4eiXCYuAGTfOotRMASDM9fy3EX4I5gpH/xw4Ip1ypvfIKmEti4kR7jZ4KfCmyrZm6tCFwhud/uBgVc2zLzUrFuuxHOf6pQtnf63SbZlqXM+fQ3j+20c4+iXCZYM94dwZzRQAglzPfwvwS2AH4ej/BQ5Lp5ziV0+ZoYY2G/o04aqCe1e4OVVJ5/ObrvIlFuqZaqx4vNNynCuXXjDrlkq3ZSpzPX8H4BngrcLR/0dYBHQI585YpgAQ4nr+mwk7/52Eo38FHJpOOf3CuTNSy2Is4CPAPOAYoKayLaocnc8T+D6FTIbA94taj3+qUrYdWI7zvBWJXNN6wawfVro904Xr+TsRFgHSe3n8hXAr4Rk9+0KKKQAEuJ6/B2Hnv7Nw9G+B/0innD7hXANoWUwtcDxhMfABRtwAeJrQmiCTeaOz9/0ZMYBvREphO84qFY3eo2z7WjOwrzRcz9+ZsAjYUzj6OcIioEs4d8YxBUCRXM/fnbDz31U4+g/Ax9Ipp3fMVxpFa1nMLsBJhMXAlH9EoAuF8Op+6Mo+yGRm1HP8kVjxeLcVi7WqSOQ/W+c3uZVuz0zgev6uhOfH3YWj/wR8NJ1yuoVzZxRTABTB/HJPTy2LeTdwMnAiMLvCzdk+rcPb+Pk8OpcL/zuXI8hk0PkZvT7UJioSyVnx+K+taPTy1gXNv6l0e2Yic5FUvUwBMElDt7d+CewhHL0M+Ii5vVV5LYuJEu5AOA84HBhlzb3S0EGwReeuhzr7IJcLb+Gbz+82lGVpy3H+rqLRbyy9YNbdlW6PYR6TVitTAEyCGeAy87QspknncqcUMpkzdC63N6BQCqUUWBab/7dSCob/AQgCtNZb/Butw/n0m/97q+/pXG7GzLkvmlJY8fh6KxZ7SNn2la3zm0yHUGVKOFD618AnzEDpiTMFwASZKS7GMbf17RhkMufoXO7IIJt9m87nZ8yuhFVDKaxotE9Foy8o235E2fY9rfObzF2zKlfCqdLPEE6VNks0T4ApACZgaJGLZ4C3CUebRS6msKNu9A7UQXC2zuc/HGSzO6P1BDbsNcbLikYHVTT6dxWJPK5s+47W+U1medgpqISLpT0NHG4WSxs/UwCMk+v5KcK1rs0yl8Z2HXbF8pidSByvtT5Z5/MH6XxeehfIGUNFIlkrFntVRSI/VZZ1V+uC5lcq3SZDRgmXS38KONIslz4+pgAYB9fzZxF2/u8UjjYbXUxzh12xvMFOJo9GqaMoFA4I8vmddC5nj/3OmUdFInkrGl2hIpGnlW3f3bqgeVml22SUjtkwrfJMATCGEm91+YF0yjHzkWeQlsVYge/vVxgc/LjO5w/W+fzbgnx+R53LJSrdtnJRth2oSKRH2fZaZVmvYlnLlGU93bqg+XeVbptRXkNbpv8C+S28HwOOM1umj84UAKNwPb+RcBOe/YWjlxN2/quFc40p6rArltdYjvMhpdRHtNbvROtddRCkKBRqdRBMvTEFSqEikYyy7Q5l2yuUZb2IZf1BKfXz1gXN5vfe2MT1/P0Jz7PSj8tagRNMEbB9pgDYDtfz64H/AQ4Ujl4JHJJOOSuFc41p6sjr22Zbkcj7NRyI1m8nCPbUQTBHFwo1Op+P60IhUtYGWZZWSmmUyivLyqNURtn2+qGr+eeUZf0KpX5rltg1xsv1/AMJz7f1wtE/Aj6VTjlmZawRmAJgBK7n1wE/Aw4Wjl5N2Pm/LpxrzGCHXbE8CqSUZdWraHSWsqzZWFYz0Aw0EF5Z1Q/9U4vWSSCJ1gmUKqBUP9CvlOpBqW6gC6U6UWoj0K6U2gBsQKk2oK11fpNZnMAQ53r+QYSD+OqEo78PfCadcmbo5hfbZwqArbieXwv8FHifdDRh5/+acK5hGMa04Hr++wjPv7XC0d8FTk6nHFO8bmbqPVssIdfza4AnkO/81xHO8zedv2EYxnakU85vgcMA6QV9Pg3c73q+6fM2Y/4whrienwAeB/5dOLoN+FA65bwqnGsYhjHtpFPOrwj33hgUjp4H3ON6/vTd9nuCTAEAuJ7vAI8CHxSO3kDY+b8snGsYhjFtpVPO/wJHAtKr+p0K3GmKgNCMLwBcz48TThf5iHB0O+HGPn8TzjUMw5j20inn58DRgPSqfmcAtwpnTkkzugBwPT8G/Bj4uHB0J+GWvi8K5xqGYcwY6ZTzM+A4QHpK6Tmu598inDnlzNgCwPX8KLAEOFQ4eiPw0XTK+atwrmEYxoyTTjlPAC2A9II+57mef5Nw5pQyIwsA1/MjhHNDjxSO7gY+lk45zwnnGoZhzFjplPMo8ElAekGfBa7nXy+cOWXMuAJgqPN/GDhGOLoH+Hg65fxZONcwDGPGS6ecRwin80kv6HOR6/n/LZw5JcyoAsD1fBv4NnC8cHQf8Il0yvmjcK5hGIYxJJ1ylgAnIV8EXOp6/n8JZ1a9GVMADC0A8SDwKeHofuDQdMoxO5kZhmGUWDrlfA84BZBe1e9LrudfLpxZ1WZEATDU+d8HfEY4egA4PJ1yfi2caxiGYWxHOuU8BJyGfBFwhev5XxTOrFrTvgAYWvDhbuCzwtGDwJHplPOMcK5hGIYxhnTKeRA4E5De0OYq1/MvFs6sStO6ABjq/O8grBQl+cDR6ZTztHCuYRiGMU7plHMvcA7yRcC1rucvFM6sOtO6AAC+RVghSsoCx6ZTzlPCuYZhGMYEpVPOncB5JYi+0fX880uQWzWmbQHgev7NwLnCsVnguHTK+YlwrmEYhjFJ6ZRzK7CgBNE3u57/+RLkVoVpWQC4nn8jIF255YBPplPO48K5hmEYRpHSKedm4KISRH/T9fyzSpBbcdOuAHA9/zpA+tlNHjgxnXJahXMNwzAMIemUcyNwqXCsAm53Pf904dyKm1YFgOv5VwGLhGMLwEnplPMj4VzDMAxDWDrlXAt8SThWAXe5nn+KcG5FTZsCwPX8KwHp+ZsBMC+dcr4vnGsYhmGUSDrlXAVcIRxrAfe6nn+ScG7FTIsCwPX8LwNfEY4NgFPTKee7wrmGYRhGiaVTzpXA14RjLeAB1/OlV5StiMoVAN85twlU0cd3Pf8y4KsCLdqcBj6XTjmLhXMNwzCMMkmnnC8D1wjH2sBDrue3FJ207KwoPzmpvvgmTY7SWnr9hM389Iz3MFg4Ez+zL7lgDkFQRyFIkC9ECLRCKYjYeaKWT8TqwbLbsdR6otbjFAbvpOUH2dHiXc9fBFwn3GoNnJVOOXcL5xpGRX3zJ+fHSWTe7MTVPij2CgK9G4pBy7JfhcLLOlL31zP3v6G90u00DGmu598AXCgcmyecGfbjUV/11KIkmY1n4mc/QSb3JgLdSCFIki/EKQQWGrBtTdTOYqs+InYXtrWBiP0yVvQbHHP3C8Lt3kS+AHj24gNY3XYV3QOHkMnHJ50TsTRJZznx6I9RhRs49tsbNv+26/kLgJuKbe4Izk2nnNtLkGsYZXX3789+v1b67FxWf3BwMD8nnw8iY73HspSORKxsNKrWOfFIK1bhhjPec7dbjvYaRim5nv8NYL5wbI5wbZjHtvjqXy5oxMt8jvWdCxnM7UAhUJM+Qk2sj0T8t8Sjt3DUvU8W2d4tyBQAfzy/noizCKU/C+wCQM8grOuC7v7iF2lUCmrj60k6izjm/odcz38P8DvkH2Gcn0453xTONIyyeWL1on+B4KiuzuypG7yBPTOZ4nZNVUrhJCLtTtz6eSxuff3U/W//k1BTDaPsXM//FiC9sE8P8PZ0ylnD8xcfgtZfBD4IRMkVYEM3tHVDTmAH43g0S138Z9Tqk/jEQz3FxhVXACw7Kwr156D4MjB7xNdkcuBuBK/otoYaala2H7hIZxr23l0mcJOF6ZRTijsKhlFyP1lx4UGBxXWg/m3zr/f1Zmnv8OntHfVp2rjV1sZed5zoSZ97z61m+2tjyhnaH+Y24GzJ3Fh29S9TbXf2gjp8xBdoDR19sLoDsnmBA0byNNTcw/GLPw960jsiTrIAUIrnFp0A+ipgz3G9pWcQXvfAFzgRWYrcLvvQ+c5zyMdnFZ8HF6dTzvUSQYZRTo+vuXgvFQRXA8eP9jrfL+C6vQwMFH/yUQrq6+J/ImK1nHPw7SuLDjSMMhoqAu4CPldsll3oob77F9QMPD++fjgIYHUntHXJbF+UiA1SX3Mlx95/7WTePvEC4PkvptC5JcAhEz5aoGFtJ6ztCiuiYkVsevb7DL27fqKYlC+mU85/F98Ywyifx9ddNJs8VyjNWcCYz/aHdXb6rF/fT6FQ/OfPspWuq4s+trOjTjxi/zsHig40jDIZKgLuA06ZbEZN//M0bnwMpXMTf3O/D8s9GMhM9vBbqk+sIWHvv/VYubFMrABYtvAdKPsxYLcJNm9LvT68sg7yAs9EFPhveR8d7/jCZN79lXTK+a/iG2EY5fPkiovfhRU8qofH20xQPq9x3T56emROPolEtKuh3nrPKQfc+YpIoGGUgev5FvAgMLGFfXRAQ/fPqO0t8imY1rB8A7T3FpczLBEbpLnmQxx5/x/G+5bxFwB/WXQUAQ8BtZNs3pb8HPxjbfhvAfkddsN77+UEVmK8b/lqOuVcLnJwwyiTJ1deeJxWLAZVU2zW+nX9eO2DEs0iFrXzDU2xT57+7ttHnxJlGFXE9Xwb+DZw4nhebwU+TR0/wPFflWvE6s7wzriEiB2QSp7L0Q/eOZ6Xj68AWLboMhRXEa6HLKcQwD/WQa/MSUjX1eO9/3JyyZ3GeunV6ZTznyIHNYwyeWLVRV8hXN5U7HPY2eHjrusTeR5pWUo3NcWvOeOgO6SX5DaMkhkqAh4GRl3YJ5JvZ1b7d4jkSrBUhtcDr2+QGRdgKZhVdw/HP3jGWC8duwB4ftElaPGVlN4QaPibGz4TEaCTSdZ/5OsE0e0urnR9OuVcLHIwwyiDJZxg16zc9SEUJVl+tLc3x8qV3SLDcgAaGmOPn/O+u46QSTOM0nM9PwJ8Hzh2pO/bhV5SbbdjF4Ru14+koxf+2SaXN7fhmxz7wPmjvWT0efTPLToCzdVyLRqpBQr23hHi4x7HNCrV38/c31xOuJT/Nm4ynb8x1dSs2uWGUnX+AHV1UXbZuU4sr7sre/jdvz/nFrFAwyixdMrJA58Clm79PaXzNLd/p7SdP8CsOkg3y+V5Peex9NSTR3vJ9guAPy/6F+A7o75GSsSGt+4EtsyhrI71pJZtMyvim+mUs1DkAIZRJk+sXHQ6qAWlPk5DY5y5c5NieZ1d/nn3PXvWqCcfw6gm6ZSTA04Antj8602djxDLlmkxzJ2bw0JAQqDB67ufR0991/ZeMnKPu+yi2SgeBeQuC8aSiMFec8XiYq+/QOOrDw//7zfTKWfUWyGGUW2eWH3xv6F02ZalnjMnQVPj5Ffv3pwONJ1dufvv/eN5+4oEGkYZpFNOFjiOoSKgrueXJAZKthT/yPaYA0lHJiuXt9k48BtaL2gc6dsjFwDK+h6KN8m0YAIakjBbruZIvvAYDa9973rT+RtTzU9XXLA7gf4REC3ncdM71+I4Mo/j8rnA7u0b+PUDfxn55GMY1SidcjLAEbU9v769vvvp8jfAUmERoITG+g5kkwxs+OOIh9rmK39ZdBToD8sceRJ2nS32KACtqX31Z6fIhBlG+RQs+9sonSr3cZVS7JSWexTg+4XkYO/AU2KBhlEG6dS1qqH7qX+TGZY/CTUx2KFBLq974C088tltpjpu2dMuOcEmKOGI//GI2rDbyNsKTEqfn+KRU0r+DNUwpDy5etFRwPsrdfxkTZTmJqFbkEBvb/bddz177nvEAg2j1J7rnwf8S0XbkG6GmOANwL7st7b+0pYFwJ67ng7sLXfESUrVyz0DAegZ/JpcmGGUzhJOsLXWlS3CgR12qMGOyNyJC7QmO5h7SCTMMErtmSsd0F+tdDOwLemL4WZ+dOplm3/pjU/4C4uSoK6UO1qRdhJ8bDiQTfKjeTfIBRpGadSsqo4i3I5YzJkz7lU1x9TXn3vz3c+efbRYoGGUSl3/F5jkMtvimpMQF7wL0NP/ZZ65ctMgnzcKgLyeD+wgd6QiNSUhJjMYCYBu/zxQpZ/SaBiT9FTboiRQNUV4U5ODZQsNRNIw2F+4QybMMErkt5fUYenLxn5hGc0VHAvg5xK0L//G8P9u1iGqeXJHEaAUzBH8wTO5GK2fPU0u0DBk5TKcQRUV4balaGqUexQ3MJCbe++zZ49rzXXDqIia4DA0gqvxCEjVgyV47TqY/eTwf4apf73wLcBb5Y4gZE697O4DmfzpgmmGIUwfV+kWbK15luBYHCCb0Z8XDTQMSYE6stJN2EbEgtkye/AB0J+ZzdLTd4ThAqBgHSWXLihqQ13Rm569oT+7n1yYYch5fN1Fs4H3VrodW3PiNslauWeQvp87QCzMMCQtOyuK0odWuhkjahYsALSGfGERDBcAiuosAADqBa9AMrkYP/7sx+UCDUOGldeHU45ltyehLilXAGSyQfy+Zz//UbFAw5Bi1R8CCD53FlSbkFsYCMDPHgNg8cKiOWgOlksWVid7C5JcYb5soGEICFTVFuHJ2phoXtZ8Bo1qpKv4QthWUCOzTDcA/dndeOBUxyLHR6jSKw+gBJVP/iC5MMMo3pI1CxNa6Y9Vuh3bk6iJYFlyn0Hfz/27WJhhyKnuu8OSd8MLBUVj8FkLpXeXSy0BS0GtYOWTK5RvgyPDGIdEwX4XKMHBLrIUUFMjNyXXzxTqlrx0guxtBcMoilLAbpVuxajq5NblACDPOyxgJ9nUEogLrgeQz0dkbykYRnEsgqr/DCYSgp9BDb2DjfvIBRpGkZZdOAuo7qJUsh8ECILdLFBVf/IhInvy4Qef2UMu0DCKo1X1fwYjQssCD8vno6YAMKrHFPgMErFl8wJ2mhp3AKLCQxQs+x2ygYYxeXoKfAYjUjt0DtPBXrKBhlGMKVAARIXvABQKs6dGAWAL/+CKt8kGGsbkWVPg5GNHZJ+aBVq/STTQMIqhpkA/qAg3CJKSDxosYI5cYolI3wEI9K6ygYYxeRq9Y6XbMBZbak+AYVrvLBtoGEUIpkA/COGqgFIKQcICeuQSS6QQCAdaHcKBhjF5mvpKN2EsluRa5EAQ6KRooGEUJaj+fhAg0HJZtspZwFq5xBLJFWTzbPUP2UDDKIKirdJNGEshL1uEK4sNooGGUZzq7wc1sn2hbfVOjQJA+OSDlX9RNtAwJk9Ngc9gXvLKA4hY9mrRQMMohrar/jNIQfpC2Oqw0NV/8iGXF87LvCQbaBiTp7Wu+s+g9B0ArfRrooGGUYzYFOgHpS+EbWu9hTUFfnDJ2x4RK6DlB1m5QMMollX1n0HpAiCi9CuigYZRjM6a9YD0YDNZ2Zxsnm2vsqDKrz400J+Ry4vYvlyYYRTPqvbPIJDNyZ4bM4FlHsMZ1eMDl+dRyqt0M0Yl2Q8CoJZbWJFfC6fKGsxCXvAOQDxqBgAaVSWgsKLSbRhLf7/c1YdlKX3OwbevFAs0DAmBru6+sGdQLkspsPS3Lf71mpeA6n0e1yv4QwPEow/IBhpGcQ7b7aa/A1XbIebzmkxGrghPJCJmAKBRfRRLK92EUfUI3rxOxjs55oGV4eReXcU/eM+AXJZtaYKBO+QCDUOGRlftZ7B/QPbZoxO3fywaaBgSopEnAOER50L6MhAIPoZzor8ACAsAq0pPPlrLVj218dfMAECjGtnaqs7PINDfJ/eRUQrsIHqdWKBhSHnHf2+EKn0M0C14IQwQt2+E4QLgn6t+C7TLHkFAe6/w8//IErkww5CT2K32V8DGSrdja1prenrkCoBEIuKd9r5vrhMLNAxJWrVWugnb0Bq8brm8RGyQI+//AwwXAC0/KACPyB1BSJvg6oy2pSnEbpALNAw5H+DyPKgnKt2OrfX05MgJzgCIx+2fiIUZhji7FRBecadInf2QEXwyURP7zfB/vrHAtxW5Gqie2+N9PvQL3v5vrPk5J9zTKRdoGLI0wQOVbsPWOjrkBuHaltI1TuSrYoGGIW3/a1YB91W6GVtoE7z6j9gBdnDq8P++UQC8679XgLpV7khFauuSy4raAYmaT8sFGoa8w3e98WmFfqrS7Rjm+wXR6X+19bGnT97v1uqdcWQYAMq6AhCefjZJAxnZmXCNyVaO+447/L9bbvGVyX8NEOx5J6nPh/Y+ubzGmoc54s7qG+NgGFsL7EsIl7+qOM+TG3gUiViB7dSdKBZoGKWy77VrUfrmSjcDgJWCG9fGIjkc5+TNv7RlAXDw1ztRXCN3xEl6XXCjsHg0S5/9OblAwyidQ3e/7i8aHqp0O/r7c3R1ya08Vl8XffjM/W8wRbgxNQSRa1BU9pFxe6/sNPjGmts44s4tArfd5Lu79mZgldxRJ2h9FwwIDkVoTNzEKfeb5X+NqSMf+RIgve7nuGnAXSt3By4Ws7OxnbKmCDemjv2v6Ubrr1Xs+PkAVgrWyzWxfo5bvHDrL29bAHzgcp/AagHK32lm87BasOhqrHmJYx+8VC7QMErv8D2uWQVcW6njt3uDZHy5gdC1tbGrT9ndFOHGFLNf3c2gH6/IsVd3yE2Bj1iahuRhoLeZzrNtAQBwwLXPgi5vxV7Q8Mo6udWOkvGNZGIHyIQZRnn9ede6KzWU/eTjZwps2CB327GhIf6LMw++/UqxQMMom8sDBu1Po3V5t4/3emCD0Mh/BcyuX8DR9/1yxG9rPcp4o+cXXY3mMpmWjOEfa6FL6MQTi+SYXf82jrrXjDg2pqxH/3FJnZ0o/B54ezmOl89rXvvnRrGd/2prY6u+cMhdu4mEGUal/HnhHlj2s8Cskh+rZwBeXis3DDhV9xDHLz55e98e+Q7AsH1v+M+y7BOwwpPr/G1LM6v+GNP5G1PdkW+9tjfQ6gjKsEqnDjQrVnaLdf6OYw8kYsG+ImGGUUkHfH05AccDsptibM3Pwqttcp1/Y/Kvo3X+MFYBgNYkBk4CfiHUpG2t6ZBb6CBiaWbXXcjR9/iQVkwAAAR/SURBVFbdimqGMRlH7Hb964EVlPbko2H16l4GB2RWG4tErCBZH/330w82C28Z08QB1z+DYh6lGpzr5+Af6+Se+zfUrCCSPXCsl43+CGDYM1dGqO+7GThXoGkhreG1NugQGm0cj2ZpTh7B0fdXzUIqhiHlyVUXfVTDD4BGyVwdaFav7qVbaL3/WMzONjY4h5924K3/IxJoGNXkuQsPAusRYAexzN7BsPMvCI1/a677OZ9c/NHxvHR8BcCwZRefg9K3AJFJNi1UCMIfWGqFo1qnndr4ARzzQNXuqW4YxXrSvfAtOq8eQ/EWibx8XrNyRTcDgzJX/jU1ES9Ro/Y94z13u2O/2jCmqBcu2Zl80ArsX3RWR194ITyRfnh7bAtm1V7DcQ+Oe9zexAoAgOcWfQjFEjTNE20fAL0+LG8Lb3lIaEouw86+12zza8wErSsuaIxa9g+AcVX425PJFljxejfZrMxVR3197FmvkH7f5R+4vDr3UzcMSb9fmCBu3wd8alLvD4Jwyvt6oYV3Y5E8s5IncvQDP5zI2yZeAAD8dWGagvU1UPMYcxzBkEIAq9vldvhLxHwanP/imAevlgk0jKlhCSfYNSt3vR7FfMb7+Rumww1+1rcNEATFX3VYltINjfG7zjr4jrOLDjOMqeb5i04kUFeheNO439PdD6+3Q0bgIthS0FCzjNpYC4ff9/pE3z65AmDYsoXvQNnXAp8Y9XWdfeFI/5zAAIeYXaA++QCpPc7GXG0YM9jjr1/4r8pW1wIfH8/rBwfzuG4fgwK3/JVS1NZGX4rFIp8646DbXiw60DCmqr9dGcPvOxf4EqNNFczmw9X9OoXGvdUnVlCXOJkj7/3N2C8eWXEFwLBll3wQFVwHvLHwTkFDe094i0Pidr9taRpq/gcVP9Fs62sYb3h81YUfVnAdqP1G+n42F9DuDdLROSgyxSiZjK6rrYmfduqB3/pp8WmGMU0su7QBK38pWs0HEpu+3ufD+m7o7JWZ4lfrdFIb+wLHPPhwsVEyBcCwv176dvL5o3E3nsX6rl2KHtUYtQOS8VeIxb6P3fgNjr6p8jsVGkZVUurJlRedqFVwLqiDAauvP0dHu09Pb6boE4+lFE6N3VbjRL76uYPuuE2kyYYxHb2wKElB/Qc9g/NY5R1KX6a4QfMAyXgXidgzxKybOOqBXxXfyJBsAbC5H857L6hzyeY/wEB2Drl8dNTXWwqikRwRe4B45G9E7Xs49sEHRlq/2DCM7XvqtUVzVrf3Xd7Xn/uk7+dnTfYjbttWkEjYy6OxyA9VLHmj2c3PMCboOyfVk4ieST5/AoPZvRnM1qJR2329Amw7IGpniNodxKNPYsVu4Ni7Xy1F80pXAGxtyQk2megOxNU+2JG90MGuWLaHsl7Gtl/giLtWl6chhjFz3PvSwmYG/HMzfv6QfF7vorVuCAJdVyjoeFDQEWWhI7bK2hGr37JUl2WpDZZtrbVt6xeNte13t7zdzK4xDFG3nVBLc+zNRCJ7o9gTSGJZr2JZL7Kx8H/l3L32/wEhDe608WXcKgAAAABJRU5ErkJggg==;" vertex="1" parent="1">
          <mxGeometry x="568" y="50" width="62" height="62" as="geometry" />
        </mxCell>
        <mxCell id="vxvJLaRAeoQ-sSdQ6FoQ-15" value="" style="edgeStyle=segmentEdgeStyle;endArrow=classic;html=1;rounded=0;exitX=0.5;exitY=1;exitDx=0;exitDy=0;fillColor=#d5e8d4;strokeColor=#82b366;" edge="1" parent="1" source="vxvJLaRAeoQ-sSdQ6FoQ-14">
          <mxGeometry width="50" height="50" relative="1" as="geometry">
            <mxPoint x="530" y="360" as="sourcePoint" />
            <mxPoint x="172" y="230" as="targetPoint" />
            <Array as="points">
              <mxPoint x="560" y="190" />
              <mxPoint x="172" y="190" />
            </Array>
          </mxGeometry>
        </mxCell>
        <mxCell id="vxvJLaRAeoQ-sSdQ6FoQ-16" value="" style="edgeStyle=segmentEdgeStyle;endArrow=classic;html=1;rounded=0;exitX=0.5;exitY=1;exitDx=0;exitDy=0;fillColor=#d5e8d4;strokeColor=#82b366;" edge="1" parent="1" source="vxvJLaRAeoQ-sSdQ6FoQ-14">
          <mxGeometry width="50" height="50" relative="1" as="geometry">
            <mxPoint x="530" y="360" as="sourcePoint" />
            <mxPoint x="320" y="250" as="targetPoint" />
            <Array as="points">
              <mxPoint x="560" y="190" />
              <mxPoint x="320" y="190" />
            </Array>
          </mxGeometry>
        </mxCell>
        <mxCell id="vxvJLaRAeoQ-sSdQ6FoQ-17" value="" style="edgeStyle=segmentEdgeStyle;endArrow=block;html=1;strokeWidth=2;rounded=1;fillColor=#dae8fc;strokeColor=#6c8ebf;dashed=1;endFill=1;entryX=0;entryY=0.5;entryDx=0;entryDy=0;" edge="1" parent="1" target="vxvJLaRAeoQ-sSdQ6FoQ-4">
          <mxGeometry width="50" height="50" relative="1" as="geometry">
            <mxPoint x="220" y="350" as="sourcePoint" />
            <mxPoint x="280" y="350" as="targetPoint" />
            <Array as="points">
              <mxPoint x="250" y="350" />
              <mxPoint x="250" y="312" />
            </Array>
          </mxGeometry>
        </mxCell>
        <mxCell id="vxvJLaRAeoQ-sSdQ6FoQ-18" value="" style="edgeStyle=segmentEdgeStyle;endArrow=block;html=1;strokeWidth=2;rounded=1;fillColor=#dae8fc;strokeColor=#6c8ebf;dashed=1;endFill=1;" edge="1" parent="1">
          <mxGeometry width="50" height="50" relative="1" as="geometry">
            <mxPoint x="366" y="311" as="sourcePoint" />
            <mxPoint x="446" y="311" as="targetPoint" />
          </mxGeometry>
        </mxCell>
        <mxCell id="vxvJLaRAeoQ-sSdQ6FoQ-19" value="" style="edgeStyle=segmentEdgeStyle;endArrow=block;html=1;strokeWidth=2;rounded=1;fillColor=#dae8fc;strokeColor=#6c8ebf;dashed=1;endFill=1;" edge="1" parent="1">
          <mxGeometry width="50" height="50" relative="1" as="geometry">
            <mxPoint x="540" y="310" as="sourcePoint" />
            <mxPoint x="620" y="310" as="targetPoint" />
          </mxGeometry>
        </mxCell>
        <mxCell id="vxvJLaRAeoQ-sSdQ6FoQ-20" value="" style="edgeStyle=segmentEdgeStyle;endArrow=block;html=1;strokeWidth=2;rounded=1;fillColor=#dae8fc;strokeColor=#6c8ebf;dashed=1;endFill=1;" edge="1" parent="1">
          <mxGeometry width="50" height="50" relative="1" as="geometry">
            <mxPoint x="710" y="310.21" as="sourcePoint" />
            <mxPoint x="760" y="310" as="targetPoint" />
          </mxGeometry>
        </mxCell>
        <mxCell id="vxvJLaRAeoQ-sSdQ6FoQ-22" value="" style="edgeStyle=segmentEdgeStyle;endArrow=block;html=1;strokeWidth=2;rounded=1;fillColor=#dae8fc;strokeColor=#6c8ebf;dashed=1;endFill=1;" edge="1" parent="1">
          <mxGeometry width="50" height="50" relative="1" as="geometry">
            <mxPoint x="850" y="310.42" as="sourcePoint" />
            <mxPoint x="900" y="310.21" as="targetPoint" />
          </mxGeometry>
        </mxCell>
        <mxCell id="vxvJLaRAeoQ-sSdQ6FoQ-23" value="" style="edgeStyle=segmentEdgeStyle;endArrow=none;html=1;strokeWidth=2;rounded=1;fillColor=#dae8fc;strokeColor=#6c8ebf;dashed=1;endFill=0;" edge="1" parent="1">
          <mxGeometry width="50" height="50" relative="1" as="geometry">
            <mxPoint x="220" y="282" as="sourcePoint" />
            <mxPoint x="270" y="312" as="targetPoint" />
            <Array as="points">
              <mxPoint x="250" y="282" />
              <mxPoint x="250" y="312" />
            </Array>
          </mxGeometry>
        </mxCell>
        <mxCell id="vxvJLaRAeoQ-sSdQ6FoQ-25" value="" style="shape=image;verticalLabelPosition=bottom;labelBackgroundColor=default;verticalAlign=top;aspect=fixed;imageAspect=0;image=data:image/png,iVBORw0KGgoAAAANSUhEUgAAAEAAAABACAYAAACqaXHeAAAABHNCSVQICAgIfAhkiAAAAAlwSFlzAAAB2AAAAdgB+lymcgAAABl0RVh0U29mdHdhcmUAd3d3Lmlua3NjYXBlLm9yZ5vuPBoAAAroSURBVHic7Zt7cNTVFcc/5/52AyEgioLIOFq1vnAaaYPZBGqlVZNsMBSRzQYQtbZqK62d1lrbsdXQqWjbaadqfT9axZqEVQsBsolaTKuSbJCqKGprkdb6Cq1QSkhIdn+/0z92NyyQfWQ3CTr6nfnN3nt/55x77vndx7n3noVP8PGGHGwFckVh2eKCUW77yIyIw064e7zduTkQ6IsXfaQNcMbshccbx34BOGQQbD0oj1pO3vfWP7F8mxku5UYClm1PY3CNB8hHWGxbfc8Vn33+4a7hUGykoEYF7e/EPwF5JzWDuhAtB5kDfFpGua//UA+B4vKaM42l31LldGCgj1UAHAlgxClsawq8nJFcb02roGeBvp22BxQVXe62Ju68VIQakM+AHp6GpQ/oVJU2xKnrCK5YBWgmiiXCU+H/AaLLVId+njLi/EVVzlJkYkrhxZX+k0RZCZyabWUCGwwsWB9s2JIpT3FFdbmIBKPs9AAtwLYDKfU4kHMh8x5QfPb5h0te3vPAp4BNSQ1QVOU7xhUxIWByrCVbgaAo74JEkvEpTgHIScC5wIRY8XZV57yO5kBbOgUBSrz+pxTOBrpsQ+nzaxteGYjOU1l9ASqPxrJPiLAzlVxHGS3IjHgvFrgy6RBwRcy9xBqvqrVjerbd2NramrTh+2PWLN/YPfnmxwrXABNETEup11fVFgz8KR2vQnG0XuqTNR5AHBNW6R9dZZpmoElcevRneXvJqXcPaICScv/nFMpi5Hd2NK9Ymk7p/dHaGugCri2uqH5VRO4HxjmYJk/lgrmhpron07CPAzAm9axu5XU/bYdH/0Exx2Sumf4D0bpQcMXjNKMDGkCNzI5ZynFH5KexYimpqL5ORc5ESO4/KF0q2tJRPPUeamudjuYVD3oq/L0Iy4ExqNNYXF4zv6Olfm3mSg+M5xobdwHzcpEx4Bzg8fofAL4i8FZ7sOFYAE9FdSUig1BaGyewqzoYDPYClFT456lQB+QBfQhrUEqAo5LpsR96QF4V9MHwtvF3bdx4TzhzXZIj2ZccA6CwO14gRqb0vxWeQXgqybM1RjTnAx23stTnywdob254XB2ZB9hAHso8YAqZu+P5oEUKt7on7QzOmnXJ6EG2dUBk5wmqa2Eo+Pu3B3o1c86ccZFI/lqUM0WkwuliTWHZ4jkT+vZIj8UiFCtGaiOsUtU3MqnSIAUKlcDxCmf35PfcBHwnK/0TMOSu8HONjbsKyxZ7x1h9q6JLmXwp3wo/2TPGHIbqKVEqfdsY429bW79+MLKLqqqudUXGrAM8wNdnzplzfWweyBrDshfY9MTy3aU+X5V2mccAL2hpgi/YEnFZF25cXfefwcrduHp1d0mF/+cqPAaMDveOmQY8k45vRtniSbaJTMaKuONljmIXdBe8vo8BZnj9J0REPKieEC3RQz3emssB1NHPx0erYC/yeGt2pKrU2a35oK6EIW6DLA15TrmR2lon00bvD7Wcf+JEpy5jnENT0ZZU+Oc5wo9s+j4bVWrvlGeAPfk9G1wQdQ9NnvteG86XfbwJOQr07mgyQQn05vSa7sPUqZiFHcG6dQTTcuaM03y+vLFd5jaFy1PNsApnuArLFheI1bdOoXAYdHlflUdst7kpmy6fDWaULZ5k7+57FDgzVrRD4Q5UN8ddeGPwqeIDcOVbfVezt/ErHWWZS50tlss96B1cIly7w+GYNzhsUKXc4605KqHAZUvf91GOjZW0Rxz3vI0tD7+XyFdSWXNa3CV2ISyIpTfl93T6BuPvH3SILNlnpy2JSXnwMHZeEWyJOmLJ4EI5PprUJz5SjU8BVe4LNddflvQ9Ti8ICr0uoq4pCHlnzF54fJyoYHfeu62tv9sz/OpmDxEus8VaB6B22G2JeT32YmtKRnUvh0iRgT/uXQZVrjJqXxXP9uTv+aD0PN/pbWsCqc/ZDiZUOzc0PfImxGf+zNhiXux8SL4XAHSCHTZH5Kzkhxz9PUBgjSKr+/PK30It9S8dHLWGH2dU+iYfoV079g4BkY2hpvp7DqJOI4bi8prZorp6u4zf8JG+GMkWYjEBEFQn9PcAVfWVVPqn9ucd+esx4+zaQCBgD7UCRVVVY9zhgkm2ZQ74AJbtODLO7mwLBHqGut44Qk31y0tn12zpi7i2Jm6GpqrSbwBEeWsXLcCzQ1Wxx+ubqiq/lIicq6KWcQ60rQpol4kUe/1BsayrQ2seyei8YLCIb8UTv8AO4M29jzb2OKNfGKoKPRULCsG0iUgF9B+KJINLoArbbp9e4Tt5qHQYsKJ4QkRubW+qrx22msS5g+hFpqPKA8DzInLAfkNVxYiUKnoRMMEScytQPpSqeLyLjkYit+AkOkLDiJnn1kyJoDMBRPSWUHDFd9Ow3O3x+nuBy4Fzps2de+iLK1f+d38iRRo9Xn80k+AEGXR8KuGKfZEo81SYPSKrQJ/bnpSQbc+ER1Tit0gmr2/UpJTE+0HhmpLKmlqSHLgaibr/AqNGpAe4bN5yDDZggcwHAqS6MK2tNdrx6nw0umGxre4BD2CBxxT9e39OxS3CZcA4Vb3B4/WfbMY6l6ZaUUbEAG0tge0er38lcIEqPo/Xf5wqf0b0gLN9QUYRem0WyDQAg9R3rF7dPZBcQR8MBVesTiybPtv/W+OwUuAEoMbZbaZ5KmuW2aIvCFY3gGrksHjnGLkACbdZQtgpBE4EposwPYMrgc3i2Onmi33w/NqGV0rLfcWOZRpQzkE5BfQhSyF6JQGJ9Y6YJxhqrOvsHdVbLOgygVeILrsDPduBl0VkqcvdU9rWEtg+2LraWgLb87s7vSg/jMkbGMLWEQ2Ric3k18WeYUXscOfm03y+XxXsokiMTFFH+j+4iKgrzHoX0QVkLEpmoWYHGRqxJouJX3GbtJcisZC4pHEJBuRFAEXnF5VfeFQywg8FamuNGF0Sy0VE7U25ipQSb41f0fpoVt8TMfeo8m6ugocaIjpWVeaDlsaKHgoFGy7OWS6Ap9J/F8oVuQobQbzcO6r3CwN5h4OFBfDOG5vXHH3iaf+KxfZMzFm9YYLCvwW90+Xec/GGVav+NxQyD1iIPd5FhzhG054FGse+EFgaVUx/hsgDKlbaY3UjWOI4i1T1hpgGNzti3ZtWUw13b2gKvJ+WbpDIOgbP4/X/Gvg20BXynDp+sBeeHm91J8gkEe5vb2r4WrZ65IrsHSEhdtWs3dnd9koXgCrudJTDiY/lmWAihsATlIker3/Q7iqQcs8+UsjeAI7sRPqDAA7LWo5ozktZLsjaAG7L/CJiR7odYawglxCN2t6t6G8ARKQa5TjgHUUfBhDES/wqXvV2RLZFLOuOXBuRC3KOxJ5RufBYW+0tgCXIXe3B+m8AeLz+FqLhq+s7mhtmApR4q6sUaQRAWRJqbjiojYchmAQdta8k5lCpyp2paNs9U9cSPXUG4Zt8CP6yk5MBSn2+fEW+Gsu2hprrUm9OamsdVe6K5U4t9i74Yi71DwVyMoDTJQv2/oFCbs+EJ8+y7gO6AUScJWnIhx05DgFzZSzxbmTbIasy4Xh27SM7JBozDMqXSypqPpWbDrkhawOUeKtnghYBiOqdgwledmxuiyUtxEkayjISyNoAionvxfs0L4PNTAI6WhpeAnk2KkcuyVaHoUD2BlBei6VuDTXWdR7wHon+M0R4eiB+cZylQFiIy/kIwuNdlPJPi9Pmzk0ZylpYtriA2tqP/X7kExxM/B/fBCWumwE3FgAAAABJRU5ErkJggg==;" vertex="1" parent="1">
          <mxGeometry x="140" y="410" width="64" height="64" as="geometry" />
        </mxCell>
        <mxCell id="vxvJLaRAeoQ-sSdQ6FoQ-26" value="" style="edgeStyle=segmentEdgeStyle;endArrow=none;html=1;strokeWidth=2;rounded=1;fillColor=#dae8fc;strokeColor=#6c8ebf;dashed=1;endFill=0;" edge="1" parent="1">
          <mxGeometry width="50" height="50" relative="1" as="geometry">
            <mxPoint x="220" y="440" as="sourcePoint" />
            <mxPoint x="250" y="350" as="targetPoint" />
            <Array as="points">
              <mxPoint x="250" y="440" />
            </Array>
          </mxGeometry>
        </mxCell>
        <mxCell id="vxvJLaRAeoQ-sSdQ6FoQ-28" value="" style="shape=crossbar;whiteSpace=wrap;html=1;rounded=1;direction=south;fillColor=#dae8fc;strokeColor=#6c8ebf;strokeWidth=2;" vertex="1" parent="1">
          <mxGeometry x="318" y="359" width="8" height="21" as="geometry" />
        </mxCell>
        <mxCell id="vxvJLaRAeoQ-sSdQ6FoQ-29" value="" style="shape=crossbar;whiteSpace=wrap;html=1;rounded=1;direction=south;fillColor=#dae8fc;strokeColor=#6c8ebf;strokeWidth=2;" vertex="1" parent="1">
          <mxGeometry x="318" y="454" width="8" height="21" as="geometry" />
        </mxCell>
        <mxCell id="vxvJLaRAeoQ-sSdQ6FoQ-30" value="&lt;h4&gt;SWITCHER&lt;/h4&gt;" style="text;html=1;resizable=0;autosize=1;align=center;verticalAlign=middle;points=[];fillColor=none;strokeColor=none;rounded=0;strokeWidth=2;fontColor=#4D4D4D;" vertex="1" parent="1">
          <mxGeometry x="277" y="554" width="90" height="60" as="geometry" />
        </mxCell>
        <mxCell id="vxvJLaRAeoQ-sSdQ6FoQ-31" value="&lt;h4&gt;SOFTWARE&lt;/h4&gt;&lt;div&gt;(OBS - WIRECAST)&lt;/div&gt;" style="text;html=1;resizable=0;autosize=1;align=center;verticalAlign=middle;points=[];fillColor=none;strokeColor=none;rounded=0;strokeWidth=2;fontColor=#4D4D4D;" vertex="1" parent="1">
          <mxGeometry x="425.5" y="345" width="130" height="70" as="geometry" />
        </mxCell>
        <mxCell id="vxvJLaRAeoQ-sSdQ6FoQ-32" value="&lt;h4&gt;EQUIPO&lt;/h4&gt;" style="text;html=1;resizable=0;autosize=1;align=center;verticalAlign=middle;points=[];fillColor=none;strokeColor=none;rounded=0;strokeWidth=2;fontColor=#4D4D4D;" vertex="1" parent="1">
          <mxGeometry x="134" y="480" width="70" height="60" as="geometry" />
        </mxCell>
        <mxCell id="vxvJLaRAeoQ-sSdQ6FoQ-33" value="&lt;h4&gt;SERVIDOR&lt;/h4&gt;" style="text;html=1;resizable=0;autosize=1;align=center;verticalAlign=middle;points=[];fillColor=none;strokeColor=none;rounded=0;strokeWidth=2;fontColor=#4D4D4D;" vertex="1" parent="1">
          <mxGeometry x="619" y="339.5" width="90" height="60" as="geometry" />
        </mxCell>
        <mxCell id="vxvJLaRAeoQ-sSdQ6FoQ-34" value="&lt;h4&gt;CLIENTES&lt;/h4&gt;" style="text;html=1;resizable=0;autosize=1;align=center;verticalAlign=middle;points=[];fillColor=none;strokeColor=none;rounded=0;strokeWidth=2;fontColor=#4D4D4D;" vertex="1" parent="1">
          <mxGeometry x="759.75" y="365" width="80" height="60" as="geometry" />
        </mxCell>
        <mxCell id="vxvJLaRAeoQ-sSdQ6FoQ-35" value="&lt;h4&gt;USUARIOS&lt;/h4&gt;" style="text;html=1;resizable=0;autosize=1;align=center;verticalAlign=middle;points=[];fillColor=none;strokeColor=none;rounded=0;strokeWidth=2;fontColor=#4D4D4D;" vertex="1" parent="1">
          <mxGeometry x="897" y="365" width="90" height="60" as="geometry" />
        </mxCell>
      </root>
    </mxGraphModel>
  </diagram>
</mxfile>
